<?xml version="1.0" encoding="UTF-8"?><svg id="Capa_2" xmlns="http://www.w3.org/2000/svg" viewBox="0 0 29.46 29.46"><defs><style>.cls-1{fill:#fff;}.cls-2{fill:#4f9b34;}.cls-3{fill:none;stroke:#77113e;stroke-miterlimit:10;stroke-width:1.46px;}</style></defs><g id="Capa_1-2"><g><circle class="cls-2" cx="14.73" cy="14.73" r="14"/><g><path class="cls-1" d="M14.88,12.77c-.07,0-.15,0-.21,.03-.22,.08-.43,.16-.65,.25-.04,.02-.08,.04-.11,.08,.05,0,.1,0,.14,0,.59-.01,1.18-.03,1.77-.04,.05,0,.1,0,.15,0,.05,0,.08,.04,.06,.1-.03,.09-.06,.18-.11,.26-.05,.09-.14,.11-.23,.13-.23,.05-.46,.09-.69,.15-.25,.07-.49,.16-.74,.24-.06,.02-.12,.05-.17,.09-.1,.08-.11,.17-.03,.27,.08,.1,.2,.16,.32,.2,.05,.02,.1,.03,.16,.05,.11,.04,.13,.08,.1,.18-.06,.22-.06,.26-.32,.24-.31-.02-.61-.1-.88-.25-.28-.15-.49-.37-.63-.66-.02-.03-.03-.06-.06-.11-.03,.03-.06,.06-.08,.09-.19,.24-.38,.47-.63,.66-.13,.1-.27,.18-.42,.26-.15,.08-.31,.09-.48,.07-.24-.03-.39-.15-.47-.38-.02-.06-.03-.12-.05-.19-.04,.01-.08,.02-.11,.04-.4,.16-.81,.29-1.23,.41-.07,.02-.07,.02-.16-.01,.02-.07,.08-.08,.13-.11,.38-.21,.76-.42,1.15-.62,.16-.08,.27-.2,.31-.38,.03-.14,.11-.27,.16-.4,.02-.04,.04-.08,.08-.13,.08,.08,.05,.16,.05,.24,0,.08,0,.16-.02,.26,.04-.02,.07-.03,.09-.05,.17-.13,.34-.26,.5-.4,.21-.19,.23-.35,.1-.6-.05-.1-.11-.21-.16-.31-.03-.06-.06-.13-.13-.16-.06-.03-.08-.09-.06-.15,.04-.1,.09-.21,.15-.31,.03-.06,.08-.07,.14-.02,.14,.11,.25,.25,.33,.41,.04,.07,.03,.08-.08,.14,.01,.04,.02,.07,.04,.11,.03,.12,.07,.23,.1,.35,.07,.33-.02,.62-.25,.87-.21,.23-.44,.43-.71,.59-.06,.03-.12,.05-.11,.15,.01,.09,.05,.17,.14,.2,.07,.02,.14,.03,.21,.03,.16,0,.3-.06,.43-.14,.37-.23,.64-.55,.86-.93,.04-.07,.02-.12,0-.18-.14-.42-.26-.84-.42-1.25-.09-.24,0-.42,.12-.61,0,0,.02,0,.04-.02,.02,.03,.05,.07,.07,.1,.29,.57,.49,1.17,.56,1.81,.01,.09,.03,.18,.05,.27,.1,.4,.3,.6,.72,.71-.08-.43,.19-.62,.53-.78-.12-.11-.26-.14-.4-.16-.19-.02-.38-.02-.57-.03-.26-.01-.28-.04-.21-.28,.06-.2,.17-.33,.37-.4,.27-.09,.54-.19,.81-.28,.04-.01,.08-.02,.12-.04,0-.02,0-.03,0-.04-.12-.26-.01-.61,.23-.76,.11-.07,.23-.06,.34-.03,.16,.05,.31,.13,.44,.23,.17,.14,.2,.33,.07,.52-.1,.16-.26,.24-.43,.31-.06,.02-.11,.06-.17,.1Zm.21-.52s0-.02,0-.03c-.12-.07-.23-.15-.37-.17-.02,.11-.02,.2,.03,.29,.12-.03,.23-.05,.34-.08Z"/><path class="cls-1" d="M18.82,20.38h-.17c-2.97,0-5.94,0-8.91,0-.34,0-.67-.03-1.01-.05-.21-.02-.42-.08-.6-.2-.06-.04-.11-.09-.16-.12,0-.02,0-.03,.01-.03,0,0,0,0,.01,0,.01,0,.03,0,.04,0,3.59,0,7.19,0,10.78,0,0,0,0,0,.02,0,.03-.05,.02-.1-.02-.14-.02-.02-.04-.04-.06-.06-.06-.07-.06-.11,0-.18,.13-.17,.29-.15,.37,.05,.03,.07,0,.11-.05,.16-.05,.05-.1,.1-.06,.19,.04,0,.09,0,.14,0,.46,0,.93,0,1.39,0,.09,0,.17,.01,.26,.03,.12,.02,.19,.09,.22,.21,.03,.15,.03,.31-.02,.46-.05,.16-.22,.23-.39,.14-.08-.04-.15-.05-.23-.05-.09,0-.17,0-.26,0-.08,0-.15,0-.22,.05-.07,.05-.17,.05-.25,0-.07-.04-.13-.05-.21-.05-.07,0-.14,0-.2,0-.09,0-.15,.02-.22,.08-.08,.09-.13,.08-.22,0-.01,0-.02-.02-.03-.03-.09-.1-.1-.14,0-.24,.04-.05,.09-.09,.05-.19Zm1.62,.24v-.23h-1.44c-.01,.14,.06,.23,.18,.23,.1,0,.2,0,.3,0,.05,0,.1-.02,.14-.04,.1-.05,.2-.05,.3,0,.03,.02,.06,.04,.1,.04,.14,0,.28,0,.42,0Z"/><path class="cls-1" d="M6.82,13.01c.06,.1,.05,.2,.02,.3-.06,.23-.04,.45,.01,.67,.08,.36,.3,.55,.67,.55,.14,0,.28-.02,.42-.05,.33-.08,.63-.21,.91-.42,.22-.16,.34-.37,.36-.64,.01-.24,0-.49,0-.73-.15,.03-.18,.05-.16,.19,.03,.28-.04,.53-.23,.74-.29,.31-.63,.51-1.05,.59-.38,.07-.74-.21-.79-.59-.03-.25,0-.5,.07-.74,.02-.05,.05-.1,.07-.15,.01,0,.02,0,.04,0,0,.04,0,.08,0,.11,0,.12-.01,.24,0,.35,0,.06,.01,.13,.03,.19,.1,.35,.34,.48,.69,.37,.34-.11,.6-.33,.84-.59,.07-.08,.09-.18,.06-.31-.12,.04-.23,.07-.33,.1-.11,.03-.21,.02-.32-.01-.09-.03-.13-.09-.13-.18,0-.09,0-.17-.01-.26,0-.23,.11-.41,.29-.55,.1-.08,.22-.06,.31,.01,.12,.1,.22,.22,.33,.33,.02,.03,.04,.06,.07,.1,.07-.04,.14-.08,.22-.13-.01-.15-.02-.31-.03-.46-.06-.52-.13-1.04-.19-1.57,0-.07,0-.14-.02-.22,0-.06,0-.12-.03-.17-.03-.09-.01-.16,.05-.23,.04-.04,.08-.09,.12-.13,.08-.07,.12-.07,.16,.03,.02,.05,.04,.09,.05,.14,.07,.17,.13,.35,.2,.52,.01,.03,.02,.06,.03,.09,.02,.15-.03,.21-.19,.18,.04,.54,.08,1.07,.13,1.64,.07-.06,.12-.11,.18-.15,.03-.02,.08-.03,.11-.02,.02,0,.03,.06,.04,.09,0,.08,0,.16,.01,.23,.04,.18,.17,.23,.32,.13,.12-.08,.18-.21,.24-.34,.02-.05,.04-.1,.06-.14,.01,0,.02,0,.03,0,0,.05,.02,.09,.03,.14,.02,.07,.03,.14,.06,.21,.02,.04,.05,.09,.09,.12,.08,.06,.16,.04,.2-.05,.04-.09,.03-.18,0-.27-.03-.09,.03-.18,.12-.2,.06,0,.07,.03,.08,.07,.04,.15,.04,.31,0,.46-.02,.12-.06,.24-.2,.28-.15,.04-.29,0-.4-.1-.02-.02-.04-.05-.07-.08-.04,.03-.07,.06-.1,.09-.12,.11-.26,.15-.41,.15-.13,0-.25-.06-.34-.18,0,.03-.01,.06-.01,.09,0,.22,.03,.44,.02,.67,0,.17-.02,.34-.05,.51-.07,.33-.25,.6-.54,.77-.48,.27-.99,.43-1.55,.39-.33-.02-.56-.17-.67-.5-.15-.47-.12-.93,.05-1.39,0-.02,.02-.03,.03-.05,0,0,.02,0,.03-.02Zm1.81-.5c-.09-.12-.16-.22-.32-.21,0,.05-.02,.09-.02,.13,0,.09,.04,.14,.13,.13,.06,0,.13-.03,.21-.05Z"/><path class="cls-1" d="M20.41,10.07c.07,.09,.12,.17,.18,.25,0,0,.02,.02,.06,.04-.04-.17-.02-.32-.08-.47-.07-.18,0-.41,.2-.53,.02,.03,.05,.06,.07,.09,.1,.25,.21,.5,.28,.77-.05,0-.08,0-.11,0,0,.01,0,.02,0,.04,.01,.19,.03,.38,.04,.57,0,.04,0,.08,.03,.1,.14,.19,.29,.38,.46,.57,0-.02,0-.05,0-.07-.1-.53-.15-1.06-.2-1.59-.01-.18,.02-.32,.13-.45,.08-.1,.13-.09,.19,.02,.02,.05,.04,.09,.05,.14,.06,.19,.11,.37,.16,.56,.04,.13,.02,.16-.11,.21,0,.15,.01,.3,.02,.45,.03,.37,.07,.73,.1,1.1,0,.09,.03,.16,.09,.24,.17,.23,.33,.45,.49,.69,.08,.12,.16,.25,.23,.39,.08,.17,.09,.35,.04,.54-.03-.04-.06-.08-.09-.12-.21-.29-.41-.58-.61-.87,0-.01-.02-.03-.05-.05,0,.05,0,.08,0,.12,0,.19,.01,.38,0,.57,0,.1-.04,.2-.06,.31,0,.03-.03,.06-.06,.1-.06-.07-.05-.14-.05-.21,.03-.27,0-.54-.03-.81-.02-.12-.04-.24-.06-.36,0-.03-.02-.07-.04-.1-.17-.23-.34-.45-.51-.68,0,0-.02,0-.03-.01,0,.07,0,.14,0,.21,.03,.5,.06,1,.08,1.5,0,.14-.02,.28-.04,.42,0,.07-.04,.13-.07,.19-.14,.26-.37,.36-.65,.3-.2-.05-.35-.16-.48-.32-.03-.03-.05-.07-.09-.12-.06,.06-.11,.1-.14,.16-.06,.1-.11,.2-.16,.3-.11,.19-.22,.38-.33,.56-.02,.04-.05,.07-.09,.1-.06,.07-.14,.08-.22,.04-.16-.09-.31-.2-.42-.34-.07-.09-.09-.2-.09-.31,0-.29,.06-.57,.15-.84,0-.02,.02-.03,.03-.04,.06,.02,.05,.07,.05,.1,0,.14,0,.27,.02,.41,.02,.14,.07,.28,.11,.42,0,.03,.03,.07,.05,.1,.08,.12,.18,.13,.28,.01,.04-.05,.07-.12,.11-.17,.15-.26,.3-.53,.46-.79,.03-.05,.07-.1,.12-.15,.07-.06,.14-.07,.21,0,.06,.06,.12,.13,.18,.19,.06,.07,.12,.14,.19,.2,.15,.12,.33,.08,.43-.09,.06-.11,.08-.22,.08-.34,0-.35-.02-.7-.04-1.05-.02-.32-.05-.63-.07-.95,0-.15-.04-.28-.15-.39-.22-.24-.41-.49-.62-.74-.1-.12-.17-.24-.13-.41,.02-.08,0-.16,0-.24,0-.03,.02-.09,.04-.09,.03,0,.07,.01,.11,.02,.02,0,.03,.02,.04,.04,.13,.12,.26,.24,.39,.36,.02,.02,.04,.04,.06,.06,.07,.07,.06,.11-.05,.17Z"/><path class="cls-1" d="M7.89,11.24c-.11,.13-.2,.24-.29,.36-.02,.02-.01,.07-.01,.1,.02,.33,.05,.66,.07,.99,.02,.2,.02,.39-.08,.57,0,.02-.02,.03-.03,.05,0,0-.02,0-.04,.02-.06-.16-.03-.34-.06-.5-.03-.17-.04-.35-.06-.53-.02-.17-.04-.34-.06-.52-.02,0-.04-.01-.05-.01-.38-.03-.51-.29-.56-.55-.04-.2-.02-.4,.01-.6,.01-.07,.03-.14-.02-.24-.03,.07-.06,.11-.07,.16-.05,.2-.09,.41-.14,.61-.03,.12-.07,.23-.11,.35-.02,.05-.06,.09-.09,.13-.09,.09-.2,.09-.28-.01-.03-.03-.05-.07-.07-.12-.18-.4-.24-.82-.16-1.25,.01-.06,.04-.12,.06-.18,.07,.04,.05,.1,.05,.14,.02,.21,.03,.42,.06,.64,.01,.09,.04,.18,.08,.26,.02,.05,.04,.09,.08,.13,.06,.07,.12,.06,.16-.01,.02-.04,.04-.09,.05-.14,.02-.11,.04-.22,.05-.34,.02-.28,.12-.53,.28-.76,.03-.05,.08-.09,.13-.12,.12-.08,.24-.02,.23,.13,0,.12-.03,.23-.06,.35-.05,.18-.08,.37-.02,.55,.03,.09,.06,.17,.11,.25,.05,.08,.12,.14,.23,.13,0-.07,0-.15,0-.22-.02-.21-.03-.43-.05-.64-.01-.12-.04-.23-.06-.35-.01-.07-.02-.13-.03-.2,0-.03-.02-.07-.03-.1-.05-.12,0-.28,.1-.35,.04-.03,.07-.02,.1,.01,.11,.16,.22,.32,.24,.52,0,.05-.03,.1-.05,.15-.01,.03-.04,.06-.04,.09,.03,.34,.07,.68,.1,1.02,.15-.08,.25-.26,.22-.41-.04-.18-.08-.36-.12-.55-.04-.17-.02-.34,.06-.52,.04,.02,.07,.04,.09,.06,.13,.13,.19,.29,.17,.47-.03,.23,.03,.45,.09,.67,.05,.18,.17,.27,.35,.27,.14,0,.19-.05,.17-.19-.04-.26-.12-.51-.22-.76-.02-.05-.04-.09-.06-.14-.02-.07-.02-.13,.03-.19,.03-.04,.06-.08,.1-.11,.06-.06,.1-.07,.16-.01,.07,.07,.14,.15,.19,.23,.09,.14,.08,.18-.05,.27,.04,.19,.09,.39,.13,.58,.01,.05,.01,.11,.02,.16,.01,.34-.17,.52-.49,.59-.19,.04-.36-.06-.44-.24-.02-.05-.04-.1-.06-.17Z"/><path class="cls-1" d="M13.63,9.25c.1,.09,.12,.18,.15,.27,.08,.24,.09,.5,.11,.75,.01,.21,.07,.4,.17,.58,.03,.06,.07,.12,.12,.16,.14,.13,.29,.08,.34-.11,.03-.14,.02-.27-.02-.4-.06-.24-.14-.47-.22-.7-.03-.09-.04-.15,.03-.22,.04-.04,.07-.11,.1-.16,.05-.08,.08-.09,.16-.03,.17,.12,.28,.28,.34,.48,.01,.04,0,.1-.01,.12-.04,.04-.08,0-.12-.02-.03-.02-.05-.04-.1-.07,.01,.06,.02,.09,.03,.12,.07,.21,.12,.43,.13,.65,0,.18-.03,.34-.11,.5-.14,.26-.38,.33-.63,.17-.11-.07-.2-.16-.31-.26-.02,.03-.04,.06-.07,.09-.14,.17-.31,.31-.53,.37-.29,.09-.53-.03-.63-.31-.06-.16-.07-.32-.06-.48,0-.11,0-.22,0-.34-.06,0-.07,.05-.08,.09-.05,.13-.09,.26-.14,.38-.04,.1-.07,.2-.11,.29-.02,.05-.05,.1-.08,.14-.08,.11-.19,.13-.3,.05-.04-.03-.09-.07-.12-.11-.31-.34-.36-.73-.26-1.16,.02-.08,.05-.16,.08-.24,0-.03,.03-.05,.05-.07,0,0,.02,0,.03,0,0,.04,0,.08-.02,.12-.05,.23-.05,.45,0,.68,.02,.12,.06,.24,.14,.33,.11,.13,.2,.12,.27-.04,.12-.26,.24-.53,.37-.79,.06-.12,.14-.22,.21-.33,.04-.06,.09-.13,.18-.1,.07,.02,.12,.14,.11,.23-.02,.16-.05,.32-.06,.49,0,.17,0,.34,0,.5,.01,.22,.16,.33,.37,.27,.31-.09,.48-.27,.5-.59,.01-.29-.04-.57-.12-.85-.03-.12-.03-.22,.03-.32,.03-.05,.06-.11,.1-.17Z"/><path class="cls-1" d="M16.34,14.47c-.07-.05-.06-.1-.04-.15,.14-.5,.06-1,0-1.5-.06-.51-.14-1.03-.21-1.54,0-.07-.04-.14-.08-.2-.25-.34-.51-.67-.77-1.01-.03-.04-.08-.07-.12-.1-.07-.04-.11-.1-.11-.18,0-.11,0-.23,0-.34,0-.04,.01-.1,.04-.12,.04-.04,.1,0,.14,.03,.21,.18,.41,.37,.62,.55,0,0,.01,.01,.02,.02,.01,.04,.04,.08,.03,.12,0,.02-.07,.03-.1,.04-.01,0-.03,0-.04,0,.02,.09,.2,.35,.33,.47,0-.04,0-.08,0-.11-.02-.14-.03-.27-.05-.41,0-.04-.01-.08-.03-.11-.05-.08-.05-.16-.02-.25,.02-.06,.04-.12,.07-.17,.05-.08,.12-.08,.18-.01,.01,.02,.03,.04,.03,.06,.09,.22,.18,.44,.27,.65,.01,.03,.02,.06,.03,.09,.03,.13,0,.16-.14,.16,.01,.23,.02,.45,.04,.68,0,.04,.04,.09,.07,.13,.29,.46,.58,.91,.86,1.37,.13,.23,.22,.47,.32,.72,.04,.09,.05,.19,.06,.29,0,.04,0,.08,0,.11-.01,0-.02,0-.03,0-.03-.04-.07-.08-.09-.13-.28-.64-.67-1.22-1.05-1.79-.02-.02-.03-.05-.05-.07,0,0-.02,0-.04-.02,.01,.17,.02,.34,.04,.5,.03,.42,.12,.84,.1,1.26-.01,.27-.05,.53-.16,.78-.02,.05-.06,.09-.09,.14Z"/><path class="cls-1" d="M22.73,9.33c.09,.08,.31,.5,.39,.73,.01,.04,.01,.09,.02,.16-.06,0-.1-.02-.14-.02,0,.01-.01,.02-.01,.03,.02,.32,.04,.64,.07,.96,.06,.61,.15,1.23,.14,1.85,0,.23-.03,.47-.08,.7-.15,.7-.55,1.07-1.26,1.19-.07,.01-.15,.05-.23,0,0-.06,.05-.09,.09-.12,.09-.07,.19-.12,.28-.19,.16-.12,.31-.23,.46-.37,.26-.25,.4-.57,.4-.93,0-.29-.01-.58-.04-.87-.04-.46-.09-.92-.15-1.38-.06-.45-.12-.91-.18-1.36,0-.04,0-.09,.02-.13,.04-.1,.12-.18,.2-.26Z"/><path class="cls-1" d="M18.12,10.31h-.14c-.02,.22,0,.44,.02,.65,.08,.76,.18,1.51,.18,2.28,0,.26-.01,.52-.08,.77-.05,.2-.14,.37-.28,.52-.07,.08-.15,.16-.22,.24-.14,.15-.3,.25-.5,.28-.17,.02-.33,.03-.5,.04-.04,0-.07-.02-.11-.03,0-.01,0-.02,0-.03,.05-.03,.1-.07,.15-.08,.42-.09,.71-.36,1-.65,.23-.23,.31-.51,.29-.83-.03-.38-.04-.75-.07-1.13-.05-.6-.12-1.19-.18-1.79-.02-.14-.04-.29-.06-.43-.01-.07-.03-.14-.05-.21-.03-.1-.02-.2,.07-.27,.06-.05,.11-.12,.17-.17,.04-.04,.08-.04,.11,.01,.03,.05,.04,.1,.06,.15,.05,.18,.11,.36,.15,.54,.01,.04,0,.09,.01,.15Z"/><path class="cls-1" d="M18.84,14.21s0-.06,0-.09c.08-.32,.04-.63,0-.95-.08-.56-.15-1.12-.24-1.68-.07-.49-.11-.99-.24-1.48-.06-.21-.01-.41,.14-.58,.02-.02,.04-.03,.08-.06,.03,.05,.06,.09,.08,.14,.04,.09,.06,.19,.1,.28,.07,.15,.14,.29,.21,.44,.02,.04,.04,.09,.05,.13-.11,.04-.18-.02-.28-.04,0,.06,0,.12,0,.17,.09,.74,.18,1.49,.27,2.23,.02,.18,.07,.36,.09,.54,.04,.29-.01,.57-.15,.83-.02,.05-.06,.09-.09,.13-.01,0-.02,0-.04-.01Z"/><path class="cls-1" d="M9.84,10.91c.02-.07,.08-.09,.13-.13,.23-.15,.46-.31,.65-.51,.06-.06,.11-.12,.16-.19-.14-.14-.15-.3-.08-.47,.04-.1,.11-.17,.22-.21,.14-.04,.26,.03,.28,.17,.02,.12-.02,.22-.06,.33-.02,.05-.04,.11-.02,.17,.02,.06-.01,.1-.08,.12-.04,.01-.08,.04-.11,.07-.25,.32-.59,.5-.96,.65-.04,.02-.09,.04-.15,0Zm1.14-1.24s-.03,0-.04-.01c-.05,.05-.07,.1-.01,.17,.02-.05,.03-.11,.05-.16Z"/><path class="cls-1" d="M6.18,13.43c.04,.16,.04,.28,0,.41-.05,.15-.09,.29-.08,.45,0,.06,.02,.12,.04,.17,.04,.09,.1,.09,.17,.02,.03-.04,.06-.08,.1-.11,0,0,.02,0,.03,0,0,.01,.03,.03,.03,.05,.01,.12,0,.23-.07,.33-.06,.09-.14,.14-.25,.13-.11-.02-.19-.09-.2-.2-.02-.17-.05-.36-.02-.53,.04-.22,.12-.43,.19-.65,0-.01,.02-.03,.05-.06Z"/><path class="cls-1" d="M19.86,11.38c0-.11-.01-.21-.02-.32-.01-.13,.02-.23,.13-.31,.08-.05,.12-.04,.16,.04q.07,.12,.03,.21s-.03,0-.05,0c-.13-.03-.14-.03-.15,.1,0,.12,0,.24,0,.37,0,.08,0,.16-.06,.23-.1-.04-.11-.15-.16-.22-.05-.07-.1-.15-.15-.24-.03,.02-.05,.03-.08,.04-.06,.02-.1,0-.1-.07,0-.07,0-.14,0-.2,0-.03,.04-.08,.07-.09,.03,0,.08,.01,.1,.04,.05,.06,.09,.14,.13,.21,.04,.07,.07,.14,.11,.22,.01,0,.03,0,.04,0Z"/><path class="cls-1" d="M5.88,12.83s.07-.08,.1-.12c.29-.3,.63-.51,1.03-.63,.05-.01,.1-.04,.13,.03,.03,.06,.01,.15-.04,.19-.02,.01-.04,.02-.06,.03-.39,.12-.76,.29-1.1,.52-.01,0-.02,0-.04,.01,0,0-.02-.01-.02-.02Z"/><path class="cls-1" d="M16.02,14.58c-.17,.14-.33,.27-.52,.34-.03,0-.06,0-.09,.01-.18,0-.25-.07-.21-.25,0-.04,.02-.09,.03-.13,0,0,0-.02-.01-.03-.06,0-.11,.02-.17,.03,0,0-.01,0-.04-.03,.11-.09,.22-.17,.36-.21,.06-.02,.09,.02,.08,.09,0,.04-.03,.09-.04,.13-.01,.06-.04,.12,.02,.2,.05-.01,.11-.02,.17-.04,.08-.03,.16-.08,.25-.11,.05-.02,.1-.05,.18,0Z"/><path class="cls-1" d="M20.97,14.67c.06,0,.09,0,.11,.01,.08,.02,.1,.08,.04,.13-.11,.1-.25,.16-.39,.16-.03,0-.08-.03-.09-.06,0-.03,.02-.08,.04-.1,.03-.04,.08-.06,.11-.1,.05-.05,.04-.1-.02-.15-.01-.01-.04-.01-.05-.03-.02-.03-.05-.07-.04-.09,0-.03,.04-.07,.07-.08,.05-.02,.11-.01,.16-.01,.14,.01,.16,.07,.1,.19-.02,.04-.03,.08-.06,.13Z"/><path class="cls-1" d="M13.96,11.69c.08,.13,.11,.24,.08,.37-.04,.15-.15,.19-.28,.1-.01,0-.02-.01-.04-.02-.02,.03-.03,.05-.05,.07-.07,.1-.17,.11-.24,0-.08-.12-.08-.25-.02-.4,.07,.09,.05,.23,.16,.29,.1-.08,.03-.21,.11-.3,.1,.06,.08,.21,.2,.25,.09-.1,0-.23,.09-.35Z"/><path class="cls-1" d="M19.55,12.62c-.03-.09,0-.13,.04-.17,.06-.05,.13-.1,.19-.15,.18-.14,.36-.28,.54-.42,.03-.03,.07-.04,.11-.07,.09,.17,.06,.24-.08,.32-.22,.12-.43,.26-.64,.39-.05,.03-.1,.06-.16,.09Z"/><path class="cls-1" d="M22.15,9.69c.16,.19,.2,.41,.21,.63,0,.25-.01,.32-.1,.41-.01-.03-.02-.06-.03-.09-.02-.24-.07-.46-.2-.67-.06-.09-.02-.18,.12-.29Z"/><path class="cls-1" d="M17,10.32c0-.07-.01-.12,0-.16,.05-.18-.02-.32-.15-.44-.09-.09-.1-.13-.04-.24,.06-.11,.13-.12,.2-.01,.12,.18,.18,.38,.14,.59-.01,.07-.05,.14-.09,.21,0,.02-.04,.02-.08,.04Z"/><path class="cls-1" d="M11.02,11.07c-.02,.19-.13,.32-.28,.36-.14,.03-.29-.08-.28-.23,0-.2,.12-.36,.28-.47,0,0,.02,0,.03,0,.02,.06-.03,.11-.05,.16-.03,.06-.07,.12-.09,.18-.02,.05-.02,.11,.03,.15,.05,.04,.11,.03,.16-.01,.05-.04,.09-.08,.13-.11,.01-.01,.03-.01,.06-.03Z"/><path class="cls-1" d="M16.89,10.68c.04,.06,.07,.11,.11,.19,.04-.09,.06-.16,.1-.26,.04,.09,.07,.15,.11,.22,.12-.06,.06-.21,.17-.27,.05,.12,.07,.24,.02,.36-.03,.08-.1,.1-.18,.05-.07-.05-.12-.05-.19,0-.08,.06-.13,.04-.16-.06-.03-.07-.02-.13,.02-.24Z"/><path class="cls-1" d="M10.26,13.72c.02-.15,.08-.27,.04-.4-.01,0-.02,0-.03,0-.15,0-.2-.08-.13-.22,.02-.05,.05-.1,.12-.1,.06,0,.14,.05,.17,.1,.07,.16,.02,.47-.1,.6,0,0-.02,.01-.06,.03Z"/><path class="cls-1" d="M8.21,9.42c.01,.05,.02,.11,.04,.16,0,.02,.04,.05,.07,.05,.02,0,.05-.03,.06-.06,.02-.02,.02-.05,.04-.09,.07,.1,.06,.19,0,.26-.06,.06-.12,.05-.21-.04-.08,.02-.15,.05-.22,.05-.03,0-.07-.03-.1-.06-.08-.09-.08-.23,.01-.33,.05,.04,.04,.1,.06,.16,0,.04,.04,.07,.05,.1,.03-.02,.07-.03,.1-.06,.04-.04,.06-.1,.08-.15,0,0,.02,0,.03,0Z"/><path class="cls-1" d="M20.33,13.1s0-.08,0-.11c.04-.12-.01-.21-.1-.29-.02-.02-.05-.03-.07-.05-.07-.05-.07-.09-.02-.16,.05-.07,.11-.09,.17-.05,.18,.12,.24,.44,.11,.61-.02,.02-.04,.03-.06,.05h-.03Z"/><path class="cls-1" d="M13.17,10.36s-.01-.08,0-.13c.02-.21-.02-.4-.15-.58-.01-.01-.02-.03-.03-.05-.02-.06,0-.13,.07-.16,.06-.03,.09,.01,.11,.05,.02,.04,.04,.08,.06,.12,.06,.2,.06,.4,.03,.6,0,.05-.03,.09-.05,.13-.01,0-.02,0-.03,0Z"/><path class="cls-1" d="M6.36,9.96c.03-.16,.08-.29,.04-.44-.04,.02-.08,.03-.12,.04-.02,0-.07,0-.07,0-.01-.02-.02-.07,0-.08,.04-.05,.09-.1,.14-.14,.06-.04,.12-.02,.16,.04,.02,.05,.04,.1,.04,.16,0,.13-.07,.29-.18,.43Z"/></g><path class="cls-3" d="M28.73,14.73c0,7.73-6.27,14-14,14S.73,22.46,.73,14.73,7,.73,14.73,.73s14,6.27,14,14Z"/></g></g></svg>