<?xml version="1.0" encoding="UTF-8"?><svg id="Capa_2" xmlns="http://www.w3.org/2000/svg" viewBox="0 0 29.46 29.46"><defs><style>.cls-1{fill:#fff;}.cls-2{fill:#ffd711;}.cls-3{fill:#0b9dda;}.cls-4{fill:none;stroke:#77113e;stroke-miterlimit:10;stroke-width:1.46px;}</style></defs><g id="Capa_1-2"><g><g><path class="cls-3" d="M14.73,.73C8.7,.73,3.58,4.55,1.61,9.89H27.85C25.88,4.55,20.76,.73,14.73,.73Z"/><path class="cls-3" d="M14.73,28.73c6.1,0,11.27-3.91,13.19-9.35H1.54c1.92,5.44,7.09,9.35,13.19,9.35Z"/><path class="cls-1" d="M.73,14.73c0,1.63,.29,3.2,.81,4.65H27.92c.52-1.46,.81-3.02,.81-4.65s-.32-3.33-.88-4.84H1.61c-.56,1.51-.88,3.13-.88,4.84Zm11.41-2.79l1.71,1.18-.41-2.04,1.13,1.75,.4-2.04,.38,2.05,1.15-1.73-.43,2.04,1.73-1.16-1.18,1.71,2.04-.41-1.75,1.13,2.04,.4-2.05,.38,1.73,1.15-2.03-.43,1.16,1.73-1.71-1.18,.41,2.04-1.13-1.74-.4,2.04-.38-2.05-1.15,1.73,.43-2.03-1.73,1.16,1.18-1.71-2.04,.41,1.74-1.13-2.04-.4,2.05-.38-1.73-1.15,2.03,.43-1.16-1.73Z"/><polygon class="cls-2" points="13 14.39 10.95 14.77 12.99 15.17 11.25 16.3 13.29 15.89 12.11 17.61 13.84 16.45 13.41 18.48 14.56 16.75 14.94 18.8 15.34 16.76 16.48 18.5 16.07 16.46 17.78 17.64 16.62 15.91 18.66 16.34 16.93 15.19 18.97 14.81 16.93 14.41 18.68 13.28 16.64 13.68 17.81 11.97 16.09 13.13 16.52 11.09 15.37 12.82 14.99 10.78 14.58 12.82 13.45 11.08 13.86 13.12 12.14 11.94 13.3 13.66 11.27 13.23 13 14.39"/></g><path class="cls-4" d="M28.73,14.73c0,7.73-6.27,14-14,14S.73,22.46,.73,14.73,7,.73,14.73,.73s14,6.27,14,14Z"/></g></g></svg>