<?xml version="1.0" encoding="UTF-8"?><svg id="Capa_2" xmlns="http://www.w3.org/2000/svg" viewBox="0 0 29.46 29.46"><defs><style>.cls-1{fill:#fbbc04;}.cls-2{fill:#fff;}.cls-3{fill:#096eb5;}.cls-4{fill:#4f9b34;}.cls-5{fill:none;stroke:#77113e;stroke-miterlimit:10;stroke-width:1.46px;}</style></defs><g id="Capa_1-2"><g><circle class="cls-4" cx="14.73" cy="14.73" r="14"/><g><polygon class="cls-1" points="14.82 5.89 3.02 14.97 14.82 24.05 26.62 14.97 14.82 5.89"/><path class="cls-3" d="M19.85,14.97c-.03,6.58-10.04,6.58-10.07,0,.03-6.58,10.04-6.58,10.07,0Z"/><path class="cls-2" d="M10.21,12.95c-.17,.38-.28,.78-.35,1.2,.74-.34,4.91-1.93,9.67,2.58,.13-.36,.23-.73,.28-1.13-4.11-3.62-7.9-3.16-9.6-2.66Z"/></g><path class="cls-5" d="M28.73,14.73c0,7.73-6.27,14-14,14S.73,22.46,.73,14.73,7,.73,14.73,.73s14,6.27,14,14Z"/></g></g></svg>