<?xml version="1.0" encoding="UTF-8"?><svg id="Capa_2" xmlns="http://www.w3.org/2000/svg" viewBox="0 0 29.46 29.46"><defs><style>.cls-1{fill:#fbbc04;}.cls-2{fill:#e8495b;}.cls-3{fill:#4f9b34;}.cls-4{fill:none;stroke:#77113e;stroke-miterlimit:10;stroke-width:1.46px;}</style></defs><g id="Capa_1-2"><g><g><path class="cls-1" d="M19.57,1.61V27.85c5.34-1.97,9.16-7.1,9.16-13.12S24.91,3.58,19.57,1.61Z"/><path class="cls-3" d="M.73,14.73c0,6.1,3.9,11.27,9.35,13.19V1.54C4.63,3.46,.73,8.63,.73,14.73Z"/><path class="cls-2" d="M14.73,.73c-1.63,0-3.2,.29-4.65,.81V27.92c1.46,.52,3.02,.81,4.65,.81s3.33-.32,4.84-.88V1.61c-1.51-.56-3.14-.88-4.84-.88Zm.09,15.57l-2.12,1.48,.74-2.47-2.06-1.56,2.58-.06,.84-2.44,.85,2.44,2.58,.05-2.05,1.57,.75,2.47-2.12-1.47Z"/><polygon class="cls-1" points="18.25 13.74 15.67 13.69 14.81 11.26 13.97 13.7 11.39 13.76 13.45 15.31 12.71 17.78 14.82 16.3 16.95 17.77 16.19 15.3 18.25 13.74"/></g><path class="cls-4" d="M14.73,28.73C7,28.73,.73,22.46,.73,14.73S7,.73,14.73,.73s14,6.27,14,14-6.27,14-14,14Z"/></g></g></svg>