<?xml version="1.0" encoding="UTF-8"?><svg id="Capa_2" xmlns="http://www.w3.org/2000/svg" viewBox="0 0 29.46 29.46"><defs><style>.cls-1{fill:#fff;}.cls-2{fill:#e8495b;}.cls-3{fill:none;stroke:#77113e;stroke-miterlimit:10;stroke-width:1.46px;}</style></defs><g id="Capa_1-2"><g><circle class="cls-2" cx="14.73" cy="14.73" r="14"/><path class="cls-1" d="M10.94,1.26c-1.37,.39-2.66,.97-3.83,1.73V12.78H.88c-.09,.64-.15,1.28-.15,1.95s.06,1.27,.14,1.88H7.11v9.85c1.17,.76,2.46,1.35,3.83,1.73v-11.58H28.59c.08-.62,.14-1.24,.14-1.88s-.06-1.31-.15-1.95H10.94V1.26Z"/><path class="cls-3" d="M28.73,14.73c0,7.73-6.27,14-14,14S.73,22.46,.73,14.73,7,.73,14.73,.73s14,6.27,14,14Z"/></g></g></svg>