<?xml version="1.0" encoding="UTF-8"?><svg id="Capa_2" xmlns="http://www.w3.org/2000/svg" viewBox="0 0 29.46 29.46"><defs><style>.cls-1{fill:#fff;}.cls-2{fill:#e8495b;}.cls-3{fill:#096eb5;}.cls-4{fill:none;stroke:#77113e;stroke-miterlimit:10;stroke-width:1.46px;}</style></defs><g id="Capa_1-2"><g><g><path class="cls-2" d="M19.57,1.61V27.85c5.34-1.97,9.16-7.09,9.16-13.12S24.91,3.58,19.57,1.61Z"/><path class="cls-3" d="M.73,14.73c0,6.1,3.91,11.27,9.35,13.19V1.54C4.64,3.46,.73,8.63,.73,14.73Z"/><path class="cls-1" d="M14.73,.73c-1.63,0-3.2,.29-4.65,.81V27.92c1.46,.52,3.02,.81,4.65,.81s3.33-.32,4.84-.88V1.61c-1.51-.56-3.13-.88-4.84-.88Z"/></g><path class="cls-4" d="M14.73,28.73C7,28.73,.73,22.46,.73,14.73S7,.73,14.73,.73s14,6.27,14,14-6.27,14-14,14Z"/></g></g></svg>