<?xml version="1.0" encoding="UTF-8"?><svg id="Capa_2" xmlns="http://www.w3.org/2000/svg" viewBox="0 0 29.46 29.46"><defs><style>.cls-1{fill:#fff;}.cls-2{fill:#e8495b;}.cls-3{fill:#4f9b34;}.cls-4{fill:none;stroke:#77113e;stroke-miterlimit:10;stroke-width:1.46px;}</style></defs><g id="Capa_1-2"><g><g><path class="cls-1" d="M19.76,12.84c-.09,.04-.13,.13-.12,.25,0,.08,.07,.14,.16,.16,.08,.01,.15-.02,.2-.07,.07-.07,.1-.16,.13-.27-.06-.02-.12-.05-.18-.07-.06-.02-.13-.02-.19,0Z"/><path class="cls-1" d="M12.67,13.47c-.05,.02-.09,.05-.12,.11,.03,.06,.09,.1,.16,.13,.03-.03,.05-.06,.07-.08,.03-.03,.02-.09-.01-.13-.03-.04-.06-.04-.1-.03Z"/><path class="cls-1" d="M9.64,10.92c.18,.12,.47,.15,.59,.06-.19-.08-.38-.09-.59-.06Z"/><path class="cls-1" d="M14.73,.73C7.04,.73,.8,6.94,.74,14.62H7.97c.03-.06,.06-.12,.11-.17,.08-.09,.1-.2,.13-.31,0-.02-.01-.04-.02-.07-.03-.06-.06-.11-.09-.17-.04-.09-.08-.19-.13-.3,0,0,0,0-.02-.01-.1-.06-.2-.06-.31,0-.14,.07-.29,.06-.4-.06-.03-.03-.06-.04-.1-.02-.03,.02-.04,.05-.03,.09,0,.02,0,.03,0,.06-.02,0-.04-.01-.05-.02-.08-.07-.1-.17-.09-.27,.01-.1,.08-.16,.17-.2,.02,0,.05-.01,.06-.03,.1-.08,.21-.11,.33-.05,.11,.05,.22,.09,.35,.08,.02,0,.04,0,.07,.01,0-.05-.02-.09-.04-.13-.05-.07-.12-.11-.19-.12-.15-.02-.22-.12-.27-.25-.02-.05-.04-.07-.09-.08-.08-.02-.12,0-.14,.09,0,.01,0,.02-.02,.04-.02-.02-.04-.03-.04-.05-.01-.07-.03-.14-.02-.2,0-.08,.05-.14,.13-.16s.15-.04,.23-.04c.07,0,.14,0,.21,.02,.16,.02,.28,.09,.31,.26,0-.04,0-.08,0-.11,0-.05,0-.1,.02-.15,.02-.08,0-.12-.07-.15-.04-.02-.09-.03-.14-.04,.01-.05,.05-.07,.09-.09,.18-.1,.38-.05,.5,.11,.03,.04,.06,.08,.11,.1,.07,.03,.09,.09,.09,.16,0,.06-.01,.12-.03,.18-.02,.08-.02,.16,0,.24,.05,.23,.14,.44,.28,.63,.1,.13,.16,.27,.19,.43,.05,.26,.14,.51,.25,.76h.32s0-.1,.03-.14c-.1-.23-.06-.44,.11-.62-.03-.21,.05-.39,.23-.53-.04-.09,0-.16,.04-.24,.06-.11,.14-.21,.25-.28,0-.16,.06-.26,.26-.39,0-.16,.12-.22,.22-.32-.05-.09-.02-.19,.02-.28,.02-.04,.02-.08,0-.12-.05-.07-.11-.14-.2-.18-.04-.02-.08-.01-.11,.02-.13,.12-.29,.22-.46,.26-.03,0-.06,.01-.1,.02,.02-.08,.11-.09,.11-.17-.16,.08-.32,.12-.51,.13,.05-.06,.08-.1,.14-.16-.24,.02-.47,.02-.69,0,0,0,0-.01,0-.02,.01,0,.02-.02,.04-.03,.05-.02,.11-.03,.14-.07,.17-.15,.25-.34,.27-.57-.03,0-.05,0-.06,0-.15,.02-.29,.05-.44,.03-.19-.01-.35-.08-.5-.19-.02-.01-.03-.02-.06-.04-.02,.14,.02,.28,.04,.41-.33-.15-.77-1.16-.7-1.56,.06,.07,.11,.13,.17,.19,.06,.06,.11,.12,.17,.17,.06,.06,.13,.11,.19,.16,.06,.05,.13,.1,.2,.14,.07,.05,.14,.09,.21,.13,.07,.04,.14,.07,.22,.12-.11,.07-.21,.09-.32,.08,.1,.1,.48,.14,.68,.08,0-.19,.01-.38,.09-.56-.07-.04-.14-.09-.21-.13-.1-.05-.2-.07-.3,0,0,0-.02,.01-.03,.01,0,0-.01,0-.03,0,.01-.02,.02-.04,.03-.05,.14-.14,.32-.2,.5-.24,.34-.07,.67-.01,1,.1,.05,.02,.09,.03,.15,.05,0-.02-.01-.03-.02-.03-.1-.1-.04-.21,.05-.27,.1-.07,.21-.09,.33-.11,.22-.03,.44-.01,.65,.03,.07,.01,.13,.01,.2-.02,.1-.05,.22-.06,.33-.1,.12-.04,.24-.08,.37-.12,.12-.04,.22-.11,.31-.2,.04,.09,0,.16-.02,.23-.03,.07-.06,.14-.09,.21,.22-.03,.42-.07,.57-.24,0,.03,.02,.05,.02,.07,0,.17-.04,.33-.13,.47-.06,.1-.13,.18-.2,.27-.03,.04-.05,.07-.09,.11,.19,.07,.32,.19,.39,.37,.06,.15,.08,.3,.06,.46,0,0-.02,0-.02,0-.01-.03-.02-.05-.04-.07-.06-.12-.17-.15-.29-.1-.05,.02-.06,.05-.02,.09,.03,.04,.07,.07,.11,.11,.07,.07,.14,.13,.2,.2,.16,.19,.19,.4,.1,.63-.02,.06-.06,.12-.09,.18,0,.01-.02,.02-.04,.05,0-.04,0-.06,0-.08,0-.09-.03-.17-.08-.24-.03-.04-.07-.07-.12-.06-.08,.01-.13,.07-.1,.15,.02,.05,.04,.09,.08,.13,.04,.05,.09,.1,.14,.15,.03,.04,.07,.08,.1,.13,.09,.13,.1,.28,.04,.43-.05,.12-.13,.22-.24,.32,0-.04,0-.06,0-.08,0-.06,0-.13-.02-.19-.05-.13-.17-.16-.3-.09,0,.08,.05,.14,.11,.2,.04,.04,.09,.07,.13,.1,.15,.1,.18,.24,.14,.41,0,.04-.02,.07-.02,.12,.02-.02,.03-.05,.05-.07,.13-.2,.2-.43,.23-.67,.02-.24,.04-.48,.05-.72,.02-.25,.06-.5,.15-.74,.14-.37,.39-.65,.72-.85,.29-.18,.61-.29,.93-.36,.45-.1,.92-.14,1.38-.16,.31-.01,.62-.02,.93-.06,.51-.05,.99-.22,1.39-.55,.11-.09,.22-.17,.34-.25,.04-.03,.09-.06,.14-.08,.11-.06,.23-.06,.34,0,.04,.03,.09,.03,.14,.05,.09,.02,.16,.08,.25,.11,.02,0,.03,.05,.04,.08,.01,.1-.08,.22-.2,.24,0-.03,.01-.06,.02-.1-.05-.02-.09,.01-.13,.03-.05,.01-.09,.02-.14,.04-.03,.01-.07,.02-.1,.04-.08,.07-.16,.14-.23,.22-.25,.31-.41,.65-.46,1.04-.05,.38,.05,.72,.31,1.01,.02,.02,.03,.03,.05,.05,.07,.06,.08,.14,.03,.24-.05,.1-.1,.12-.21,.08,0-.05,.07-.09,.03-.14-.1-.01-.19-.03-.29-.04-.04,0-.09,0-.13,.01-.09,.02-.18,.04-.26,.07-.34,.13-.48,.41-.47,.74,0,.06,.01,.12,.03,.19,.02,.08,.06,.15,.13,.2,.11,.07,.12,.15,.07,.27-.02,.05-.04,.11-.08,.15-.06,.08-.12,.08-.19,0,.02-.02,.06-.03,.07-.05,.01-.02,0-.05,0-.07-.31-.17-.63-.22-.98-.13-.25,.07-.47,.2-.59,.36,.02,0,.04,0,.05-.01,.13-.05,.27-.07,.4-.08,.63-.01,1.24,.11,1.82,.35,.17,.07,.35,.14,.52,.21,.31,.12,.62,.1,.93-.03,.27-.11,.43-.31,.46-.6,0-.03,0-.07,0-.11,0,.01-.02,.02-.02,.03-.13,.27-.36,.4-.65,.45-.45,.08-.8-.27-.89-.64-.11-.44,.08-.86,.5-1.05,.3-.14,.61-.15,.92-.03,.02,0,.03,.01,.05,.02,.02,0,.03,.01,.06,.02,.14-.14,.22-.32,.32-.5-.26,.11-.52,.17-.8,.18,.01-.02,.02-.04,.03-.05,.27-.24,.54-.49,.82-.73,.37-.32,.79-.57,1.22-.8,.09-.05,.19-.09,.28-.14,.01,0,.02,0,.05-.01-.03,.08-.09,.12-.12,.18-.04,.06-.09,.12-.13,.18-.04,.06-.08,.12-.12,.18-.04,.06-.08,.13-.11,.19-.03,.06-.07,.13-.1,.19-.03,.07-.06,.14-.09,.21-.03,.07-.05,.13-.08,.2-.02,.07-.05,.14-.07,.21-.02,.07-.04,.14-.06,.22-.02,.07-.03,.14-.04,.21-.01,.07-.02,.15-.03,.22-.01,.07-.02,.14-.03,.21-.1-.06-.13-.11-.34-.55-.07,.1-.1,.21-.13,.32,0,.02,0,.04-.01,.06-.02,.09,0,.16,.06,.23,.32,.38,.42,.82,.32,1.3-.05,.25-.15,.47-.27,.67h7.77c-.06-7.68-6.3-13.89-13.99-13.89Z"/><path class="cls-3" d="M9.58,15.15s.05-.04,.09-.13c-.08-.04-.09-.12-.09-.2,0-.07,.03-.13,.05-.2h-.32c.07,.16,.14,.31,.22,.46,.01,.02,.03,.05,.05,.07Z"/><path class="cls-3" d="M20.05,15.47c-.1,.06-.21,.1-.32,.14-.02,.01-.05,.02-.07,.03,.12,.32,.29,.59,.57,.79,.15,.11,.31,.18,.5,.19,.28,.02,.51,.32,.47,.61-.03,.22-.14,.39-.3,.54,0,0-.02,0-.02,0,0,0,0,0-.02-.01,.02-.03,.03-.05,.05-.08,.04-.08,.05-.16,0-.24-.04-.09-.11-.11-.2-.08-.03,.01-.05,.03-.08,.04,0,.12,.01,.23,.02,.35,.03,.31,.05,.61,.09,.92,.01,.1,.04,.2,.07,.29,.06,.16,.17,.21,.34,.16,.05-.01,.1-.03,.15-.05,.15-.04,.35,.04,.43,.18,.02,.03,.04,.06,.07,.07,.22,.13,.23,.31,.04,.48-.05,.05-.07,.06-.13,.07,0-.04,.02-.08,.02-.11,0-.04,0-.08-.05-.1-.04-.02-.08,0-.1,.03-.08,.08-.17,.08-.27,.04-.04-.02-.09-.04-.13-.06-.11-.05-.22-.06-.33-.01-.07,.03-.14,.06-.21,.09-.18,.08-.36,.12-.56,.12-.11,0-.22-.03-.31-.1-.02-.02-.06-.03-.08-.02-.08,0-.15,.01-.23,.02-.08,0-.16,.04-.23,.09-.06,.04-.13,.08-.2,.1-.14,.06-.28,.01-.36-.11-.1,0-.12,.05-.08,.21-.09,0-.22-.12-.25-.23-.05-.19,.09-.27,.21-.34-.05-.04-.11-.09-.16-.14-.04-.04-.09-.04-.13,0-.02,.03-.04,.07-.05,.1,0,.02-.01,.04-.02,.08-.02-.02-.04-.04-.05-.05-.04-.07-.07-.15-.07-.24,0-.13,.06-.23,.18-.25,.07-.02,.13-.05,.19-.09,.04-.04,.11-.05,.16-.08,.02-.08-.01-.12-.09-.12-.05,0-.1,.02-.14,.06-.01,.01-.03,.03-.04,.05-.04-.02-.03-.06-.03-.09,.03-.19,.2-.39,.45-.34,.02,0,.05,0,.07,0,.13-.03,.23,0,.31,.1,.04,.04,.06,.09,.09,.14,.09,.15,.22,.27,.38,.34,.01,0,.02,0,.03,.01,.07,.02,.09,.01,.11-.06,.06-.16,.09-.33,.08-.5-.01-.34-.1-.66-.23-.96-.03-.07-.08-.14-.12-.21-.19,.08-.37,.05-.53-.06-.18,.03-.35,.03-.49-.13-.19,.04-.39,.06-.51-.14-.23,0-.39-.12-.54-.28-.08,.02-.15-.02-.22-.07-.08-.05-.13-.03-.14,.07,0,.05,0,.1,.02,.14,.04,.09,.1,.18,.2,.22,.1,.04,.19,.1,.28,.18,.19,.18,.24,.58-.08,.76-.1,.06-.21,.09-.32,.14-.01,0-.02,0-.03,0-.02,0-.03-.02-.04-.03,0,0,0-.03,.02-.04,.01-.01,.03-.02,.05-.03,.03-.02,.06-.04,.08-.07,.03-.04,.04-.09,.02-.13-.02-.05-.06-.07-.12-.07-.1,0-.19,.03-.26,.1-.32,.28-.63,.57-.89,.91-.05,.07-.1,.15-.14,.23-.01,.03-.02,.08-.01,.1,.02,.04,.07,0,.1,0,.05-.02,.1-.04,.16-.06,.14-.03,.27-.03,.38,.06,.02,.02,.04,.02,.06,.03,.04,.02,.07,.03,.1,.05,.1,.07,.13,.16,.08,.27-.03,.08-.09,.14-.16,.19-.04,.03-.05,.03-.11,.02,.01-.03,.03-.05,.04-.08,0-.01,0-.04-.01-.05-.01,0-.03,0-.05,0,0,0-.02,.01-.03,.02-.04,.04-.1,.06-.15,.06-.09,0-.19-.02-.28-.03-.07-.01-.13-.03-.2-.05-.18-.05-.36-.03-.54,.03-.07,.03-.14,.06-.21,.09-.12,.05-.24,.08-.36,.08-.06,0-.12-.01-.17-.03-.13-.03-.26-.03-.38,.04-.09,.05-.17,.1-.26,.15-.04,.02-.08,.05-.13,.06-.08,.03-.15,.02-.22-.03-.05-.04-.1-.04-.15-.01-.05,.03-.06,.07-.05,.12,0,.01,0,.03,.01,.06-.03-.01-.05-.01-.06-.02-.09-.07-.15-.16-.15-.27,0-.13,.07-.22,.18-.27,.05-.02,.08-.05,.1-.1-.02-.01-.03-.03-.05-.04-.05-.04-.09-.08-.1-.15,0-.06-.04-.08-.08-.08-.04,0-.09,.04-.09,.09,0,.03,0,.05,0,.08-.05,0-.07-.04-.09-.08-.09-.2,.03-.4,.25-.4,.09,0,.15-.06,.23-.07,0,0,.02-.03,.02-.04,0-.03,0-.06-.02-.08-.02-.02-.05-.05-.07-.06-.04,0-.06,.03-.07,.06,0,.03-.01,.06-.02,.1-.01-.02-.03-.03-.03-.04,0-.06-.02-.13,0-.2,0-.08,.06-.14,.14-.16,.07-.02,.14-.02,.2-.02,.04,0,.08,0,.11-.02,.04-.03,.09-.02,.14,0,.08,.03,.15,.09,.2,.16,.14,.22,.35,.32,.59,.38,.03,0,.07,0,.09-.02,.11-.08,.22-.15,.31-.24,.25-.24,.42-.53,.57-.84,.04-.09,.07-.17,.11-.27-.14-.04-.27-.07-.35-.19-.25-.01-.4-.12-.47-.36-.16-.04-.26-.13-.33-.29-.03,0-.07,0-.11,0-.1,.24-.31,.27-.53,.3-.06,.15-.19,.19-.34,.21-.06,0-.13,0-.19,0-.06,.06-.12,.12-.18,.19,0,0,0,.03,.01,.04,.1,.21,.05,.41-.08,.59-.11,.15-.27,.23-.44,.28,0,0-.02,0-.03,0,0,0,0,0-.01,0,.01-.02,.02-.03,.03-.05,.03-.06,.08-.11,.1-.17,.03-.07,0-.12-.06-.16-.1-.06-.21-.06-.32-.05-.01,0-.03,.02-.04,.03-.32,.35-.65,.7-.89,1.12-.04,.08-.08,.16-.12,.24-.03,.07-.03,.13-.01,.2,.01,.06,.04,.09,.11,.08,.08,0,.15-.03,.23-.04,.03,0,.05-.01,.08-.02,.11-.04,.22-.01,.31,.05,.05,.03,.1,.06,.15,.09,.02,0,.03,.02,.05,.03,.15,.1,.18,.24,.07,.39-.05,.08-.12,.14-.21,.18-.03-.03,0-.05,0-.08,0-.04,.03-.08,0-.11-.03-.02-.08-.02-.12,.02-.06,.05-.12,.06-.18,.03-.04-.01-.07-.03-.11-.04-.23-.1-.46-.1-.69-.03-.14,.04-.27,.09-.41,.12-.15,.03-.31,.06-.47,.03-.05,0-.1-.02-.12-.07-.03-.05-.11-.07-.17-.04-.03,.01-.05,.03-.07,.05-.04,.04-.09,.08-.13,.12-.11,.11-.24,.12-.38,.08-.04-.01-.07-.04-.11,0-.03,.03-.01,.08,0,.12,0,.01,.01,.03,.02,.04-.03,.04-.06,.02-.08,0-.11-.07-.18-.17-.19-.3,0-.09,.03-.16,.1-.21,.07-.04,.09-.1,.1-.18-.07-.05-.16-.09-.21-.18-.02-.04-.09-.04-.13-.02-.04,.02-.05,.06-.03,.11,0,.02,.02,.04,.03,.08-.06-.02-.07-.06-.09-.1-.07-.17-.02-.4,.21-.45,.02,0,.05-.01,.06-.03,.06-.06,.13-.1,.2-.11-.02-.07-.03-.14-.04-.21-.01-.06-.08-.09-.13-.06-.02,0-.03,.02-.05,.04-.04-.16,.08-.35,.23-.37,.03,0,.06,0,.09,.01,.05,.03,.11,.04,.16,.04,.15,.01,.25,.1,.29,.24,.05,.15,.15,.26,.26,.36,.05,.04,.1,.08,.16,.11,.1,.05,.17,.03,.25-.06,.35-.42,.57-.9,.66-1.43,.02-.12,.04-.24,.05-.36,0-.05,0-.1-.04-.13-.02-.02-.04-.05-.06-.07-.16,.03-.27-.07-.38-.17-.05,.03-.1,.05-.15,.08-.18,.11-.37,.21-.58,.26-.03,0-.04,.02-.06,.05-.14,.36-.74,.48-1.02,.21-.05-.05-.11-.08-.15-.16,.03,.01,.04,.01,.05,.02,.13,.1,.36,.08,.48-.1,.02-.03,.03-.06,.05-.08,.02-.04,.02-.07,0-.11-.31-.7-.53-1.42-.66-2.17,0,0,0-.02-.01-.04-.02,.02-.03,.03-.04,.05-.05,.08-.11,.15-.2,.18-.02,0-.04,.02-.05,.04-.13,.13-.31,.13-.43-.01-.06-.07-.11-.16-.07-.27,0,.02,.01,.03,.02,.05,.02,.05,.04,.08,.08,.07,.04,0,.08-.05,.09-.09,0-.02,0-.04,0-.05,0-.09,.01-.18,.05-.26H.74s0,.07,0,.11c0,7.73,6.27,14,14,14s14-6.27,14-14c0-.04,0-.07,0-.11h-7.77c-.21,.35-.51,.64-.9,.85Z"/><path class="cls-2" d="M9.06,13.86c-.03-.16-.1-.3-.19-.43-.14-.19-.23-.4-.28-.63-.02-.08-.02-.16,0-.24,.02-.06,.03-.12,.03-.18,0-.07-.02-.13-.09-.16-.05-.02-.08-.06-.11-.1-.12-.16-.33-.21-.5-.11-.04,.02-.08,.04-.09,.09,.05,.01,.1,.02,.14,.04,.07,.03,.09,.07,.07,.15-.01,.05-.01,.1-.02,.15,0,.04,0,.08,0,.11-.04-.17-.15-.24-.31-.26-.07,0-.14-.02-.21-.02-.08,0-.15,.02-.23,.04s-.12,.08-.13,.16c0,.07,.01,.14,.02,.2,0,.01,.02,.03,.04,.05,0-.02,.01-.03,.02-.04,.02-.09,.05-.11,.14-.09,.04,.01,.07,.03,.09,.08,.04,.13,.12,.22,.27,.25,.08,.01,.15,.06,.19,.12,.02,.03,.05,.07,.04,.13-.03,0-.05-.02-.07-.01-.13,0-.24-.03-.35-.08-.12-.05-.23-.03-.33,.05-.02,.01-.04,.02-.06,.03-.09,.04-.16,.1-.17,.2-.01,.1,.01,.2,.09,.27,0,0,.03,.01,.05,.02,0-.03,0-.04,0-.06,0-.04,0-.07,.03-.09,.03-.02,.07-.01,.1,.02,.12,.12,.26,.13,.4,.06,.11-.06,.21-.05,.31,0,.01,0,.03,.01,.02,.01,.05,.11,.08,.21,.13,.3,.03,.06,.06,.11,.09,.17,.01,.02,.03,.05,.02,.07-.03,.11-.05,.22-.13,.31-.05,.05-.08,.11-.11,.17h1.34c-.11-.24-.2-.49-.25-.76Z"/><path class="cls-2" d="M21.22,13.95c.1-.48,0-.92-.32-1.3-.06-.07-.08-.14-.06-.23,0-.02,0-.04,.01-.06,.03-.11,.06-.22,.13-.32,.21,.44,.24,.49,.34,.55,.01-.07,.02-.14,.03-.21,.01-.07,.02-.15,.03-.22,.01-.07,.03-.14,.04-.21,.02-.07,.04-.15,.06-.22,.02-.07,.04-.14,.07-.21,.02-.07,.05-.13,.08-.2,.03-.07,.06-.14,.09-.21,.03-.06,.06-.13,.1-.19,.04-.07,.07-.13,.11-.19,.04-.06,.08-.12,.12-.18,.04-.06,.09-.12,.13-.18,.04-.06,.09-.1,.12-.18-.02,0-.04,0-.05,.01-.09,.05-.19,.09-.28,.14-.43,.23-.85,.48-1.22,.8-.27,.24-.55,.48-.82,.73,0,0-.01,.02-.03,.05,.29,0,.55-.07,.8-.18-.1,.17-.19,.35-.32,.5-.03,0-.04-.02-.06-.02-.02,0-.03-.01-.05-.02-.31-.12-.62-.11-.92,.03-.41,.19-.61,.61-.5,1.05,.1,.37,.44,.71,.89,.64,.29-.05,.52-.18,.65-.45,0-.01,.01-.02,.02-.03,.01,.04,.01,.07,0,.11-.03,.29-.19,.49-.46,.6-.3,.12-.61,.15-.93,.03-.18-.07-.35-.14-.52-.21-.58-.24-1.19-.37-1.82-.35-.14,0-.27,.03-.4,.08-.01,0-.03,0-.05,.01,.13-.17,.34-.3,.59-.36,.34-.09,.66-.04,.98,.13,0,.02,0,.05,0,.07-.02,.02-.05,.04-.07,.05,.07,.08,.13,.09,.19,0,.03-.04,.05-.1,.08-.15,.06-.12,.04-.19-.07-.27-.08-.05-.12-.12-.13-.2-.01-.06-.02-.12-.03-.19-.01-.33,.13-.61,.47-.74,.08-.03,.17-.05,.26-.07,.04,0,.09-.02,.13-.01,.1,0,.19,.02,.29,.04,.05,.05-.02,.09-.03,.14,.11,.03,.16,.01,.21-.08,.05-.1,.04-.18-.03-.24-.02-.01-.04-.03-.05-.05-.26-.29-.36-.63-.31-1.01,.05-.39,.21-.74,.46-1.04,.07-.08,.15-.15,.23-.22,.03-.02,.06-.03,.1-.04,.04-.01,.09-.03,.14-.04,.04-.01,.08-.05,.13-.03,0,.03-.01,.06-.02,.1,.12-.02,.21-.14,.2-.24,0-.03-.02-.07-.04-.08-.09-.03-.16-.08-.25-.11-.05-.01-.1-.02-.14-.05-.11-.06-.23-.06-.34,0-.05,.03-.09,.05-.14,.08-.11,.08-.23,.17-.34,.25-.41,.33-.88,.5-1.39,.55-.31,.03-.62,.04-.93,.06-.46,.02-.93,.06-1.38,.16-.33,.08-.64,.18-.93,.36-.34,.2-.58,.49-.72,.85-.09,.24-.13,.48-.15,.74-.02,.24-.03,.48-.05,.72-.02,.24-.09,.46-.23,.67-.02,.02-.03,.05-.05,.07,0-.04,0-.08,.02-.12,.04-.17,0-.31-.14-.41-.05-.03-.09-.07-.13-.1-.06-.05-.1-.12-.11-.2,.12-.07,.25-.03,.3,.09,.02,.06,.02,.13,.02,.19,0,.02,0,.04,0,.08,.11-.1,.19-.21,.24-.32,.07-.15,.05-.29-.04-.43-.03-.04-.07-.09-.1-.13-.04-.05-.1-.1-.14-.15-.03-.04-.06-.08-.08-.13-.03-.08,.01-.14,.1-.15,.05,0,.09,.02,.12,.06,.05,.07,.07,.16,.08,.24,0,.02,0,.04,0,.08,.02-.02,.04-.03,.04-.05,.03-.06,.07-.11,.09-.18,.09-.23,.06-.44-.1-.63-.06-.07-.13-.13-.2-.2-.04-.04-.07-.07-.11-.11-.04-.04-.03-.07,.02-.09,.11-.06,.23-.02,.29,.1,.01,.02,.02,.05,.04,.07,0,0,.02,0,.02,0,.01-.16,0-.31-.06-.46-.07-.18-.2-.3-.39-.37,.03-.04,.06-.08,.09-.11,.07-.09,.14-.18,.2-.27,.09-.14,.14-.3,.13-.47,0-.02,0-.04-.02-.07-.16,.18-.36,.22-.57,.24,.03-.08,.06-.14,.09-.21,.03-.07,.06-.14,.02-.23-.1,.09-.2,.16-.31,.2-.12,.04-.24,.08-.37,.12-.11,.03-.22,.05-.33,.1-.07,.03-.13,.03-.2,.02-.22-.04-.43-.06-.65-.03-.12,.02-.23,.04-.33,.11-.08,.06-.14,.16-.05,.27,0,0,0,.01,.02,.03-.06-.02-.1-.04-.15-.05-.32-.11-.66-.17-1-.1-.19,.04-.36,.1-.5,.24-.01,.01-.02,.03-.03,.05,.02,0,.02,0,.03,0,.01,0,.02,0,.03-.01,.1-.07,.2-.05,.3,0,.07,.04,.14,.08,.21,.13-.08,.18-.08,.37-.09,.56-.19,.06-.58,.01-.68-.08,.11,0,.22-.01,.32-.08-.08-.04-.15-.08-.22-.12-.07-.04-.14-.08-.21-.13-.07-.04-.13-.09-.2-.14-.07-.05-.13-.11-.19-.16-.06-.05-.12-.11-.17-.17-.06-.06-.11-.12-.17-.19-.08,.4,.37,1.4,.7,1.56-.01-.14-.05-.27-.04-.41,.02,.02,.04,.03,.06,.04,.15,.11,.32,.18,.5,.19,.15,.01,.29-.01,.44-.03,.02,0,.04,0,.06,0-.02,.23-.1,.42-.27,.57-.04,.03-.1,.04-.14,.07-.01,0-.02,.02-.04,.03,0,0,0,.01,0,.02,.22,0,.45,0,.69,0-.05,.06-.09,.1-.14,.16,.19-.01,.35-.04,.51-.13,0,.08-.1,.09-.11,.17,.04,0,.07,0,.1-.02,.18-.05,.33-.14,.46-.26,.04-.03,.07-.04,.11-.02,.09,.03,.14,.1,.2,.18,.02,.03,.03,.07,0,.12-.05,.09-.08,.18-.02,.28-.1,.09-.22,.16-.22,.32-.2,.13-.27,.23-.26,.39-.11,.07-.19,.16-.25,.28-.04,.08-.08,.16-.04,.24-.19,.14-.27,.32-.23,.53-.17,.18-.21,.39-.11,.62-.03,.04-.02,.09-.03,.14h11.33c.12-.2,.22-.42,.27-.67Zm-1.23-.78c-.06,.06-.12,.09-.2,.07-.09-.01-.15-.08-.16-.16-.01-.12,.03-.21,.12-.25,.06-.03,.13-.03,.19,0,.06,.02,.12,.04,.18,.07-.03,.11-.06,.2-.13,.27Zm-10.36-2.25c.21-.03,.4-.03,.59,.06-.12,.1-.41,.07-.59-.06Zm3.08,2.79c-.07-.03-.13-.07-.16-.13,.03-.05,.07-.09,.12-.11,.04-.02,.08,0,.1,.03,.03,.04,.04,.1,.01,.13-.02,.03-.05,.05-.07,.08Z"/><path class="cls-2" d="M7.92,14.93s-.05,.09-.09,.09c-.04,0-.06-.02-.08-.07,0-.02-.01-.03-.02-.05-.04,.11,0,.19,.07,.27,.12,.14,.3,.15,.43,.01,.01-.01,.03-.03,.05-.04,.1-.03,.15-.1,.2-.18,0-.02,.02-.03,.04-.05,0,.02,.01,.03,.01,.04,.14,.75,.35,1.48,.66,2.17,.02,.04,.02,.07,0,.11-.02,.03-.03,.06-.05,.08-.12,.18-.35,.2-.48,.1,0,0-.02,0-.05-.02,.04,.08,.1,.11,.15,.16,.28,.27,.88,.15,1.02-.21,.01-.03,.02-.04,.06-.05,.21-.05,.4-.15,.58-.26,.05-.03,.1-.06,.15-.08,.12,.1,.22,.2,.38,.17,.02,.03,.04,.06,.06,.07,.05,.04,.05,.08,.04,.13-.02,.12-.03,.24-.05,.36-.1,.53-.31,1.02-.66,1.43-.07,.08-.15,.1-.25,.06-.06-.03-.11-.07-.16-.11-.11-.1-.21-.21-.26-.36-.05-.14-.14-.23-.29-.24-.06,0-.11-.01-.16-.04-.02-.01-.06-.01-.09-.01-.15,.02-.27,.21-.23,.37,.02-.01,.03-.03,.05-.04,.05-.03,.12,0,.13,.06,.01,.07,.03,.14,.04,.21-.08,.01-.14,.05-.2,.11-.02,.02-.04,.03-.06,.03-.23,.05-.28,.28-.21,.45,.02,.04,.03,.07,.09,.1-.01-.03-.02-.05-.03-.08-.02-.05,0-.09,.03-.11,.04-.02,.11-.02,.13,.02,.05,.08,.13,.13,.21,.18,0,.08-.03,.14-.1,.18-.07,.05-.11,.12-.1,.21,0,.13,.08,.23,.19,.3,.02,.02,.05,.03,.08,0,0-.02-.01-.03-.02-.04-.02-.04-.03-.08,0-.12,.03-.04,.07,0,.11,0,.14,.05,.27,.04,.38-.08,.04-.04,.08-.08,.13-.12,.02-.02,.05-.04,.07-.05,.06-.03,.14-.01,.17,.04,.03,.05,.07,.06,.12,.07,.16,.03,.32,0,.47-.03,.14-.03,.28-.08,.41-.12,.23-.07,.47-.07,.69,.03,.04,.02,.07,.03,.11,.04,.07,.02,.13,.02,.18-.03,.04-.04,.09-.04,.12-.02,.04,.03,.02,.07,0,.11,0,.02-.04,.04,0,.08,.09-.04,.15-.1,.21-.18,.1-.15,.08-.29-.07-.39-.02,0-.03-.02-.05-.03-.05-.03-.1-.06-.15-.09-.1-.07-.2-.09-.31-.05-.03,0-.05,.02-.08,.02-.08,.01-.15,.03-.23,.04-.07,0-.09-.02-.11-.08-.02-.07-.02-.14,.01-.2,.04-.08,.07-.16,.12-.24,.23-.42,.56-.77,.89-1.12,.01-.01,.03-.03,.04-.03,.11,0,.22,0,.32,.05,.06,.04,.09,.09,.06,.16-.02,.06-.06,.11-.1,.17-.01,.02-.02,.03-.03,.05,0,0,.01,0,.01,0,0,0,.02,0,.03,0,.17-.05,.33-.13,.44-.28,.13-.18,.18-.38,.08-.59,0-.02-.01-.03-.01-.04,.06-.07,.12-.13,.18-.19,.06,0,.13,0,.19,0,.14-.02,.28-.06,.34-.21,.22-.03,.43-.06,.53-.3,.04,0,.07,0,.11,0,.07,.17,.17,.25,.33,.29,.08,.24,.22,.35,.47,.36,.09,.11,.22,.15,.35,.19-.04,.1-.07,.18-.11,.27-.14,.31-.32,.61-.57,.84-.09,.09-.21,.16-.31,.24-.02,.02-.06,.02-.09,.02-.24-.06-.45-.16-.59-.38-.05-.08-.11-.13-.2-.16-.05-.02-.09-.03-.14,0-.04,.02-.07,.02-.11,.02-.07,0-.14,0-.2,.02-.08,.02-.13,.08-.14,.16,0,.06,0,.13,0,.2,0,.01,.02,.02,.03,.04,0-.04,.02-.07,.02-.1,0-.03,.03-.07,.07-.06,.03,0,.06,.03,.07,.06,.01,.02,.02,.05,.02,.08,0,.02-.01,.04-.02,.04-.08,0-.14,.07-.23,.07-.21,0-.34,.2-.25,.4,.02,.04,.04,.07,.09,.08,0-.03,0-.06,0-.08,0-.05,.05-.09,.09-.09,.04,0,.07,.03,.08,.08,0,.07,.05,.11,.1,.15,.02,.01,.04,.03,.05,.04-.02,.05-.06,.08-.1,.1-.11,.05-.19,.13-.18,.27,0,.11,.06,.2,.15,.27,.01,.01,.03,.01,.06,.02,0-.03,0-.04-.01-.06,0-.05,0-.09,.05-.12,.05-.03,.1-.02,.15,.01,.07,.05,.14,.06,.22,.03,.04-.01,.09-.04,.13-.06,.09-.05,.17-.1,.26-.15,.12-.07,.25-.07,.38-.04,.06,.02,.11,.03,.17,.03,.13,0,.25-.03,.36-.08,.07-.03,.14-.07,.21-.09,.17-.06,.35-.09,.54-.03,.07,.02,.13,.04,.2,.05,.09,.02,.19,.02,.28,.03,.06,0,.11-.02,.15-.06,0,0,.02-.02,.03-.02,.02,0,.04,0,.05,0,.01,0,.02,.03,.01,.05,0,.03-.02,.05-.04,.08,.07,0,.07,0,.11-.02,.07-.05,.13-.11,.16-.19,.05-.11,.02-.21-.08-.27-.03-.02-.07-.04-.1-.05-.02-.01-.05-.02-.06-.03-.12-.1-.25-.1-.38-.06-.05,.01-.11,.04-.16,.06-.03,.01-.08,.04-.1,0-.01-.02,0-.07,.01-.1,.04-.08,.09-.16,.14-.23,.26-.34,.57-.63,.89-.91,.07-.06,.16-.11,.26-.1,.05,0,.1,.02,.12,.07,.02,.05,0,.1-.02,.13-.02,.03-.05,.05-.08,.07-.01,.01-.03,.01-.05,.03-.01,0-.02,.03-.02,.04,0,.01,.02,.02,.04,.03,0,0,.02,0,.03,0,.11-.05,.22-.08,.32-.14,.32-.18,.27-.59,.08-.76-.08-.08-.17-.14-.28-.18-.1-.04-.16-.12-.2-.22-.02-.04-.02-.09-.02-.14,0-.1,.06-.12,.14-.07,.07,.04,.14,.09,.22,.07,.15,.16,.31,.28,.54,.28,.13,.19,.32,.18,.51,.14,.14,.16,.31,.16,.49,.13,.16,.12,.33,.14,.53,.06,.04,.07,.09,.13,.12,.21,.13,.31,.22,.63,.23,.96,0,.17-.02,.34-.08,.5-.02,.07-.05,.08-.11,.06-.01,0-.02,0-.03-.01-.16-.07-.29-.19-.38-.34-.03-.05-.05-.1-.09-.14-.08-.09-.19-.13-.31-.1-.02,0-.05,0-.07,0-.25-.05-.42,.15-.45,.34,0,.03,0,.06,.03,.09,.02-.02,.03-.03,.04-.05,.04-.04,.08-.06,.14-.06,.08,0,.11,.04,.09,.12-.06,.03-.12,.04-.16,.08-.06,.05-.12,.08-.19,.09-.12,.03-.19,.13-.18,.25,0,.08,.03,.17,.07,.24,.01,.02,.03,.03,.05,.05,0-.03,0-.06,.02-.08,.02-.04,.03-.07,.05-.1,.04-.04,.08-.04,.13,0,.05,.05,.11,.09,.16,.14-.12,.08-.26,.15-.21,.34,.03,.12,.16,.23,.25,.23-.04-.16-.02-.2,.08-.21,.09,.12,.22,.16,.36,.11,.07-.03,.13-.07,.2-.1,.07-.04,.15-.08,.23-.09,.08,0,.15-.02,.23-.02,.03,0,.06,0,.08,.02,.09,.06,.2,.09,.31,.1,.2,0,.38-.04,.56-.12,.07-.03,.14-.06,.21-.09,.11-.05,.22-.04,.33,.01,.04,.02,.09,.04,.13,.06,.1,.04,.19,.04,.27-.04,.03-.03,.06-.05,.1-.03,.04,.02,.05,.06,.05,.1,0,.04-.01,.07-.02,.11,.06-.01,.08-.02,.13-.07,.19-.17,.17-.35-.04-.48-.03-.02-.05-.04-.07-.07-.07-.14-.27-.22-.43-.18-.05,.01-.1,.03-.15,.05-.17,.05-.27,0-.34-.16-.04-.09-.06-.19-.07-.29-.03-.31-.06-.61-.09-.92-.01-.12-.02-.23-.02-.35,.03-.02,.06-.03,.08-.04,.09-.03,.16,0,.2,.08,.04,.08,.04,.16,0,.24-.01,.03-.03,.05-.05,.08,.01,0,.02,.01,.02,.01,0,0,.02,0,.02,0,.15-.15,.26-.33,.3-.54,.04-.29-.19-.59-.47-.61-.19-.01-.35-.08-.5-.19-.28-.2-.45-.47-.57-.79,.02-.01,.05-.02,.07-.03,.11-.05,.22-.09,.32-.14,.4-.21,.69-.5,.9-.85H9.63c-.02,.07-.05,.13-.05,.2,0,.08,.02,.16,.09,.2q-.04,.1-.09,.13s-.04-.04-.05-.07c-.08-.15-.15-.31-.22-.46h-1.34c-.03,.08-.05,.16-.05,.26,0,.02,0,.04,0,.05Z"/></g><path class="cls-4" d="M28.73,14.73c0,7.73-6.27,14-14,14S.73,22.46,.73,14.73,7,.73,14.73,.73s14,6.27,14,14Z"/></g></g></svg>