<?xml version="1.0" encoding="UTF-8"?><svg id="Capa_2" xmlns="http://www.w3.org/2000/svg" viewBox="0 0 29.46 29.46"><defs><style>.cls-1{fill:#fbbc04;}.cls-2{fill:#e8495b;}.cls-3{fill:#201e35;}.cls-4{fill:#4f9b34;}.cls-5{fill:none;stroke:#77113e;stroke-miterlimit:10;stroke-width:1.46px;}</style></defs><g id="Capa_1-2"><g><g><path class="cls-4" d="M14.73,28.73c6.03,0,11.15-3.82,13.12-9.16H1.61c1.97,5.34,7.09,9.16,13.12,9.16Z"/><path class="cls-2" d="M14.73,.73C8.63,.73,3.46,4.64,1.54,10.08H27.92C26,4.64,20.83,.73,14.73,.73Z"/><path class="cls-1" d="M.73,14.73c0,1.7,.32,3.33,.88,4.84H27.85c.56-1.51,.88-3.14,.88-4.84s-.29-3.2-.81-4.65H1.54c-.51,1.46-.81,3.02-.81,4.65Zm13.79-3.23l.85,2.44,2.58,.05-2.05,1.57,.75,2.47-2.12-1.47-2.12,1.48,.74-2.47-2.06-1.56,2.58-.06,.84-2.44Z"/><polygon class="cls-3" points="13.16 15.55 12.42 18.03 14.53 16.55 16.66 18.02 15.9 15.55 17.96 13.98 15.37 13.94 14.52 11.5 13.68 13.94 11.1 14 13.16 15.55"/></g><path class="cls-5" d="M.73,14.73C.73,7,7,.73,14.73,.73s14,6.27,14,14-6.27,14-14,14S.73,22.46,.73,14.73Z"/></g></g></svg>