<?xml version="1.0" encoding="UTF-8"?><svg id="Capa_2" xmlns="http://www.w3.org/2000/svg" viewBox="0 0 154.57 108.4"><defs><style>.cls-1{fill:#87124a;}</style></defs><g id="Capa_1-2"><g><path class="cls-1" d="M107.87,89.1c-19.12,0-34.81-15.57-34.82-34.57,0-19.76,15.42-35.19,35.18-35.19,18.99,0,34.58,15.69,34.57,34.81,0,19.4-15.54,34.94-34.93,34.95Zm-.24-4.41c2.25-.29,4.23-.57,6.22-.78,1.78-.19,3.07-.77,3.08-2.9,0-1.01,.18-2.08,.53-3.03,1.41-3.82,.71-7.14-2.14-10.04-.37-.38-.55-.98-.96-1.3-.54-.42-1.21-.9-1.84-.92-3.09-.09-6.19-.1-9.28,0-.62,.02-1.41,.47-1.8,.97-1.23,1.58-2.37,3.24-3.43,4.94-.34,.54-.56,1.33-.46,1.94,.46,2.88,.99,5.76,1.63,8.61,.12,.53,.78,1.22,1.3,1.33,2.43,.5,4.9,.83,7.14,1.18Zm-24.04-13.43c3.3-.42,6.15-.76,8.98-1.19,.52-.08,1.11-.47,1.43-.9,1.3-1.74,2.54-3.51,3.7-5.34,.3-.47,.41-1.25,.25-1.77-.94-3.1-1.96-6.18-3.01-9.25-.15-.44-.56-.99-.97-1.13-1.95-.64-3.94-1.18-5.93-1.67-.42-.11-.99-.02-1.38,.19-2.77,1.47-5.53,2.96-8.26,4.52-.36,.2-.69,.84-.66,1.25,.31,5.18,1.79,10,4.62,14.36,.32,.49,.98,.75,1.23,.93Zm48.78-.01c.24-.2,.85-.51,1.17-1,2.78-4.33,4.25-9.1,4.56-14.21,.03-.45-.35-1.15-.74-1.37-2.68-1.54-5.4-2.98-8.12-4.44-.32-.17-.75-.36-1.06-.28-2.29,.62-4.78,.94-6.75,2.11-1.04,.62-1.17,2.77-1.71,4.23-.13,.36-.18,.75-.36,1.07-2.18,3.95-1.57,7.45,1.59,10.6,.34,.34,.5,.86,.85,1.18,.41,.38,.91,.84,1.42,.92,2.89,.44,5.79,.77,9.15,1.19Zm-26.91-34.44c.96-2.81-.47-4.61-2.5-6.25-1.51-1.22-2.9-2.61-4.26-4.01-.69-.71-1.27-.75-2.14-.38-3.65,1.52-6.88,3.64-9.73,6.36q-3.05,2.92-1.22,6.76c.96,2,1.5,4.53,3.06,5.8,1.61,1.32,4.22,1.46,6.41,2,.53,.13,1.29,.02,1.74-.28,1.98-1.33,3.8-2.9,5.83-4.14,2.28-1.39,3.84-2.97,2.81-5.86Zm4.9-.02c-.99,2.84,.42,4.58,2.8,5.84,.52,.28,.96,.7,1.45,1.04,1.77,1.23,3.43,3.17,5.36,3.49,1.93,.33,4.13-.96,6.21-1.54,.1-.03,.22-.06,.3-.12,.44-.35,1.04-.62,1.27-1.07,1.29-2.56,2.52-5.15,3.68-7.77,.19-.43,.14-1.21-.14-1.56-3.3-4.09-7.39-7.13-12.32-8.98-.46-.17-1.27,.01-1.65,.34-1.56,1.34-2.95,2.89-4.54,4.18-1.99,1.61-3.27,3.42-2.41,6.14Zm-7.81,24.29c3.37,0,6.62,.03,9.87-.04,.4,0,.99-.55,1.14-.98,.96-2.7,1.87-5.42,2.66-8.18,.14-.48-.19-1.38-.6-1.7-2.22-1.74-4.5-3.4-6.84-4.97-.42-.28-1.36-.25-1.79,.04-2.29,1.54-4.49,3.23-6.75,4.83-.71,.5-.99,.98-.68,1.89,1.02,2.96,1.96,5.96,2.99,9.11Zm-21.46-20.45c-.14-.02-.28-.04-.42-.07-.93,2.87-1.87,5.74-2.8,8.61,.15,.08,.31,.17,.46,.25,1.82-1,3.64-1.99,5.52-3.02-.97-2.02-1.86-3.9-2.76-5.78Zm26.87-11.67c1.46-1.72,2.8-3.29,4.05-4.75h-9.05c1.88,1.78,3.35,3.19,5,4.75Zm29.45,20.4c.18-.09,.35-.18,.53-.27-.93-2.84-1.86-5.67-2.78-8.51-.14,.02-.28,.04-.43,.05-.9,1.91-1.8,3.82-2.73,5.78,1.92,1.04,3.66,1.99,5.41,2.94Zm-15.77,31.52c.14,.11,.28,.22,.42,.34,2.38-1.75,4.76-3.51,7.15-5.26-.09-.15-.17-.31-.26-.46-2.01-.26-4.02-.51-6.15-.78-.41,2.16-.78,4.16-1.16,6.16Zm-27.78,.38c.11-.11,.22-.21,.33-.32-.38-2.03-.77-4.07-1.17-6.22-2.17,.29-4.19,.56-6.22,.83-.05,.16-.11,.32-.16,.48,2.41,1.74,4.81,3.49,7.22,5.23Z"/><path class="cls-1" d="M154.53,54.25c.08,5.16,.11,10.29-1.54,15.29-2.01,6.08-5.33,11.27-10.23,15.37-9.07,7.59-18.23,15.09-27.36,22.62-1.39,1.15-2.84,1.14-3.73,.03-.89-1.11-.62-2.43,.83-3.63,8.99-7.44,18.01-14.85,26.97-22.32,6.57-5.47,10.11-12.59,10.39-21.08,.19-5.67,.1-11.42-.62-17.04-.84-6.63-4.34-12.1-9.46-16.39-8.74-7.32-17.56-14.54-26.35-21.8-.54-.45-1.11-.88-1.6-1.39-.92-.97-.95-2.08-.11-3.08,.8-.96,1.88-1.05,2.94-.45,.65,.37,1.22,.9,1.8,1.39,8.75,7.22,17.57,14.36,26.21,21.71,7.73,6.57,11.67,15.06,11.84,25.24,.03,1.85,0,3.69,0,5.54Z"/><path class="cls-1" d="M67.46,65.92c-.18,1.41-1.14,2.02-2.49,2.29-6.21,1.24-12.41,2.5-18.62,3.75-14.37,2.9-28.74,5.8-43.12,8.69-1.75,.35-2.91-.28-3.18-1.62-.3-1.49,.55-2.57,2.32-2.92,20.37-4.13,40.73-8.25,61.1-12.37,.48-.1,.96-.21,1.44-.25,1.37-.1,2.59,1.05,2.55,2.44Z"/><path class="cls-1" d="M65.12,45c-2.84-.57-5.65-1.12-8.46-1.69-16.45-3.33-32.89-6.66-49.34-9.98-1.64-.33-3.29-.66-4.93-.99-1.65-.34-2.55-1.44-2.3-2.8,.25-1.38,1.43-2.09,3.11-1.75,11.68,2.33,23.35,4.68,35.02,7.03,8.91,1.8,17.82,3.62,26.73,5.41,1.35,.27,2.41,.85,2.49,2.34,.06,1.14-.57,1.95-1.7,2.29-.21,.06-.42,.1-.62,.15Z"/><path class="cls-1" d="M21.17,10.99c.99,.29,1.56,.42,2.12,.62,15.44,5.52,30.87,11.05,46.3,16.57,.51,.18,1.02,.36,1.51,.6,1.27,.61,1.77,1.66,1.25,2.95-.5,1.27-1.56,1.79-2.91,1.32-3.88-1.36-7.75-2.75-11.63-4.13-11.98-4.29-23.95-8.58-35.92-12.87-.56-.2-1.33-.31-1.59-.72-.48-.75-1.02-1.77-.86-2.53,.16-.73,1.18-1.28,1.72-1.81Z"/><path class="cls-1" d="M21.15,97.46c-.55-.58-1.48-1.16-1.77-1.96-.46-1.29,.27-2.3,1.58-2.77,2.85-1.03,5.71-2.03,8.56-3.06,12.99-4.65,25.98-9.31,38.97-13.96,.65-.23,1.5-.64,1.99-.41,.78,.37,1.64,1.1,1.91,1.87,.43,1.24-.39,2.16-1.6,2.61-3.35,1.22-6.71,2.44-10.07,3.64-12.47,4.47-24.95,8.94-37.43,13.41-.56,.2-1.13,.34-2.15,.64Z"/><path class="cls-1" d="M30.03,51.94c6.95,0,13.9,.01,20.85-.01,1.18,0,2.17,.44,2.35,1.55,.13,.77-.25,1.73-.68,2.44-.23,.37-1.04,.55-1.59,.55-13.9,.03-27.8,.03-41.7,.01-1.54,0-2.42-.87-2.44-2.23-.02-1.43,.9-2.31,2.53-2.31,6.9-.02,13.79,0,20.69,0Z"/><path class="cls-1" d="M83.5,20.13c-.89-.37-1.45-.56-1.97-.83-7.64-3.97-15.27-7.94-22.9-11.92-1.7-.88-2.2-2.06-1.51-3.37,.69-1.32,1.95-1.59,3.62-.72,7.69,3.98,15.36,7.98,23.06,11.96,1.26,.65,2.07,1.62,1.54,2.99-.3,.78-1.23,1.31-1.83,1.9Z"/><path class="cls-1" d="M56.78,102.85c.3-.33,.77-1.2,1.49-1.58,7.81-4.13,15.66-8.19,23.51-12.24,1.44-.74,2.7-.37,3.35,.85,.65,1.22,.25,2.46-1.21,3.23-7.87,4.12-15.76,8.23-23.66,12.29-1.71,.88-3.5-.22-3.48-2.55Z"/></g></g></svg>