<?xml version="1.0" encoding="UTF-8"?><svg id="Capa_2" xmlns="http://www.w3.org/2000/svg" viewBox="0 0 29.46 29.46"><defs><style>.cls-1{fill:#fff;}.cls-2{fill:#e8495b;}.cls-3{fill:#096eb5;}.cls-4{fill:none;stroke:#77113e;stroke-miterlimit:10;stroke-width:1.46px;}</style></defs><g id="Capa_1-2"><g><g><path class="cls-2" d="M14.73,.73C8.7,.73,3.58,4.55,1.61,9.89H27.85C25.88,4.55,20.76,.73,14.73,.73Z"/><path class="cls-3" d="M14.73,28.73c6.1,0,11.27-3.91,13.19-9.35H1.54c1.92,5.44,7.09,9.35,13.19,9.35Z"/><path class="cls-1" d="M.73,14.73c0,1.63,.29,3.2,.81,4.65H27.92c.51-1.46,.81-3.02,.81-4.65s-.32-3.33-.88-4.84H1.61c-.56,1.51-.88,3.13-.88,4.84Z"/></g><path class="cls-4" d="M28.73,14.73c0,7.73-6.27,14-14,14S.73,22.46,.73,14.73,7,.73,14.73,.73s14,6.27,14,14Z"/></g></g></svg>