<?xml version="1.0" encoding="UTF-8"?><svg id="Capa_2" xmlns="http://www.w3.org/2000/svg" viewBox="0 0 29.46 29.46"><defs><style>.cls-1{fill:#e8495b;}.cls-2{fill:#4f9b34;}.cls-3{fill:none;stroke:#77113e;stroke-miterlimit:10;stroke-width:1.46px;}</style></defs><g id="Capa_1-2"><g><g><path class="cls-2" d="M.73,14.73c0,6.33,4.2,11.67,9.96,13.4V1.33C4.93,3.06,.73,8.4,.73,14.73Z"/><path class="cls-1" d="M28.73,14.73c0-3.62-1.39-6.91-3.64-9.4V24.13c2.26-2.49,3.64-5.77,3.64-9.4Z"/><path class="cls-1" d="M25.09,5.33C22.53,2.51,18.84,.73,14.73,.73c-1.4,0-2.76,.21-4.04,.6V28.13c1.28,.38,2.63,.6,4.04,.6,4.11,0,7.8-1.78,10.36-4.6V5.33Z"/></g><path class="cls-3" d="M14.73,.73c7.73,0,14,6.27,14,14s-6.27,14-14,14S.73,22.46,.73,14.73,7,.73,14.73,.73Z"/></g></g></svg>