<?xml version="1.0" encoding="UTF-8"?><svg id="Capa_2" xmlns="http://www.w3.org/2000/svg" viewBox="0 0 29.46 29.46"><defs><style>.cls-1{fill:#fff;}.cls-2{fill:#77113e;}.cls-3{fill:none;stroke:#77113e;stroke-miterlimit:10;stroke-width:1.46px;}</style></defs><g id="Capa_1-2"><g><g><path class="cls-1" d="M14.62,26.68l-5.1-2.13,5.1-2.13h0s-5.1-2.13-5.1-2.13l5.1-2.13h0s-5.1-2.13-5.1-2.13l5.1-2.12h0s-5.1-2.13-5.1-2.13l5.1-2.12h0s-5.1-2.13-5.1-2.13l5.1-2.12h0s-5.1-2.13-5.1-2.13L14.62,1.15v-.42C6.94,.8,.73,7.04,.73,14.73c0,6.43,4.35,11.84,10.26,13.48l3.63-1.52h0Z"/><polygon class="cls-2" points="14.62 18.16 14.62 13.91 9.52 16.03 14.62 18.16"/><polygon class="cls-2" points="14.62 26.68 14.62 22.42 9.52 24.55 14.62 26.68"/><polygon class="cls-2" points="14.62 13.9 14.62 9.66 9.52 11.78 14.62 13.9"/><polygon class="cls-2" points="14.62 22.42 14.62 18.16 9.52 20.29 14.62 22.42"/><polygon class="cls-2" points="14.62 5.4 14.62 1.15 9.52 3.28 14.62 5.4"/><path class="cls-2" d="M10.99,28.21c1.16,.32,2.37,.5,3.63,.51v-2.03l-3.63,1.52Z"/><polygon class="cls-2" points="14.62 9.65 14.62 5.41 9.52 7.53 14.62 9.65"/><polygon class="cls-2" points="14.63 5.4 14.62 5.4 14.62 5.41 14.63 5.4"/><polygon class="cls-2" points="14.63 13.91 14.62 13.9 14.62 13.91 14.63 13.91"/><polygon class="cls-2" points="14.63 18.16 14.62 18.16 14.62 18.16 14.63 18.16"/><polygon class="cls-2" points="14.63 9.65 14.62 9.65 14.62 9.66 14.63 9.65"/><polygon class="cls-2" points="14.63 22.42 14.62 22.42 14.62 22.42 14.63 22.42"/><path class="cls-2" d="M14.73,.73s-.07,0-.11,0v.42h0s1.14,.56,1.14,.56l3,26.42c5.77-1.73,9.97-7.07,9.97-13.4C28.73,7,22.46,.73,14.73,.73Z"/><polygon class="cls-2" points="14.63 26.69 14.62 26.68 14.62 26.69 14.63 26.69"/><path class="cls-2" d="M14.63,1.15h0V5.4h0s0,0,0,0v4.24h0s0,0,0,0v4.24h0s0,0,0,0v4.25h0s0,0,0,0v4.25h0s0,0,0,0v4.26h0s0,0,0,0v2.03s.07,0,.11,0c1.4,0,2.75-.21,4.03-.6L15.76,1.72l-1.14-.57Z"/></g><path class="cls-3" d="M14.73,.73c7.73,0,14,6.27,14,14s-6.27,14-14,14S.73,22.46,.73,14.73,7,.73,14.73,.73Z"/></g></g></svg>