<?xml version="1.0" encoding="UTF-8"?><svg id="Capa_2" xmlns="http://www.w3.org/2000/svg" viewBox="0 0 29.37 29.37"><defs><style>.cls-1{fill:#fff;}.cls-2{fill:#e8495b;}.cls-3{fill:#201e35;}.cls-4{fill:#096eb5;}.cls-5{fill:none;stroke:#77113e;stroke-miterlimit:10;stroke-width:1.46px;}</style></defs><g id="Capa_1-2"><g><g><g><path class="cls-2" d="M14.69,.73C8.67,.73,3.57,4.53,1.6,9.86H27.77C25.8,4.53,20.7,.73,14.69,.73Z"/><path class="cls-1" d="M14.69,28.64c6.08,0,11.24-3.89,13.15-9.32H1.53c1.91,5.42,7.07,9.32,13.15,9.32Z"/><path class="cls-4" d="M.73,14.69c0,1.63,.29,3.19,.81,4.64H27.84c.51-1.45,.81-3.01,.81-4.64s-.32-3.32-.87-4.82H1.6c-.56,1.51-.87,3.12-.87,4.82Z"/></g><path class="cls-5" d="M28.64,14.69c0,7.71-6.25,13.96-13.96,13.96S.73,22.39,.73,14.69,6.98,.73,14.69,.73s13.96,6.25,13.96,13.96Z"/></g><g><g><path class="cls-3" d="M5.71,10.99v7.03c0,1.71,1.39,3.1,3.1,3.1s3.1-1.39,3.1-3.1v-7.03H5.71Z"/><path class="cls-1" d="M8.81,20.08c-1.13,0-2.05-.92-2.05-2.05v-5.98h4.1v5.98c0,1.13-.92,2.05-2.05,2.05Z"/><rect class="cls-3" x="8.19" y="11.56" width="1.16" height="8.89"/><rect class="cls-3" x="6.23" y="15.27" width="5.14" height="1.16"/></g><rect class="cls-3" x="6.48" y="9.77" width="4.5" height=".89"/><path class="cls-3" d="M10.98,9.42H6.48l-.42-.64c-.72-1.11,.07-2.58,1.4-2.58h2.54c1.32,0,2.12,1.47,1.4,2.58l-.42,.64Z"/></g></g></g></svg>