<?xml version="1.0" encoding="UTF-8"?><svg id="Capa_2" xmlns="http://www.w3.org/2000/svg" viewBox="0 0 29.46 29.46"><defs><style>.cls-1{fill:#fff;}.cls-2{fill:#e8495b;}.cls-3{fill:none;stroke:#77113e;stroke-miterlimit:10;stroke-width:1.46px;}</style></defs><g id="Capa_1-2"><g><circle class="cls-2" cx="14.73" cy="14.73" r="14"/><path class="cls-3" d="M28.73,14.73c0,7.73-6.27,14-14,14S.73,22.46,.73,14.73,7,.73,14.73,.73s14,6.27,14,14Z"/><g><path class="cls-1" d="M22.62,14.73c0,4.34-3.52,7.85-7.85,7.85s-7.85-3.52-7.85-7.85,3.52-7.85,7.85-7.85,7.85,3.52,7.85,7.85Z"/><g><path class="cls-2" d="M13.16,17.11c-1.17-1.44-1.09-3.52,.2-4.82,.67-.68,1.48-1.05,2.43-1.09,1.19-.05,2.17,.4,2.96,1.28-.85-1.59-2.83-2.66-4.95-2.17-2.18,.51-3.66,2.52-3.49,4.76,.17,2.2,1.87,3.91,3.99,4.16,.78,.09,1.54,0,2.26-.31,.7-.29,1.71-1.07,1.8-1.38-1.64,1.44-4.01,1.03-5.19-.43Z"/><path class="cls-2" d="M18.94,14.11s.05-.06,.1-.12c-.07,.01-.11,.02-.15,.03-.45,.11-.89,.21-1.34,.33-.08,.02-.12,0-.16-.07-.24-.4-.48-.79-.73-1.19-.02-.03-.04-.06-.06-.1,0,0-.02,0-.03,0,0,.04,0,.08,0,.12-.04,.46-.07,.91-.1,1.37,0,.09-.03,.14-.12,.15-.12,.02-.23,.05-.35,.08-.37,.09-.73,.18-1.1,.27,0,0,0,.02,0,.03,.03,.01,.07,.03,.1,.04,.42,.17,.84,.35,1.27,.52,.1,.04,.12,.09,.11,.18-.04,.46-.07,.91-.11,1.37,0,.04,0,.08,0,.14,.05-.05,.07-.08,.1-.11,.3-.35,.6-.71,.9-1.06,.05-.06,.1-.07,.17-.04,.37,.16,.74,.31,1.12,.46,.09,.04,.18,.07,.27,.11,0-.05-.02-.09-.04-.12-.24-.4-.49-.79-.73-1.18-.04-.06-.04-.1,.01-.16,.3-.35,.6-.71,.9-1.06Z"/></g></g></g></g></svg>