<?xml version="1.0" encoding="UTF-8"?><svg id="Capa_2" xmlns="http://www.w3.org/2000/svg" viewBox="0 0 29.46 29.46"><defs><style>.cls-1,.cls-2{fill:none;}.cls-3{fill:#fff;}.cls-4{fill:#ffd711;}.cls-5{fill:#096eb5;}.cls-2{stroke:#77113e;stroke-miterlimit:10;stroke-width:1.46px;}</style></defs><g id="Capa_1-2"><g><g><path class="cls-1" d="M11.31,28.29c1.1,.28,2.24,.44,3.42,.44s2.32-.16,3.42-.44h-6.84Z"/><path class="cls-1" d="M14.73,.73c-1.22,0-2.41,.17-3.54,.47h7.08c-1.13-.3-2.31-.47-3.54-.47Z"/><path class="cls-3" d="M27.97,19.26H1.49c.37,1.07,.85,2.08,1.45,3.01H26.51c.6-.93,1.09-1.94,1.45-3.01Z"/><path class="cls-3" d="M28.73,14.73c0-.5-.03-1-.08-1.49H14.29v-3.01h13.69c-.36-1.07-.85-2.08-1.45-3.01H14.29v-3.01h9.66c-1.61-1.41-3.54-2.45-5.68-3.01h-7.08C5.18,2.77,.73,8.22,.73,14.73c0,.51,.03,1.02,.09,1.52H28.64c.05-.5,.09-1.01,.09-1.52Zm-16.82-3.66l-2.46-.52,1.4,2.09-2.07-1.42,.49,2.46-1.37-2.11-.49,2.46-.46-2.47-1.39,2.09,.52-2.46-2.09,1.4,1.42-2.07-2.46,.49,2.1-1.37-2.46-.49,2.47-.46-2.09-1.39,2.46,.52-1.4-2.09,2.07,1.42-.49-2.46,1.37,2.11,.49-2.46,.46,2.47,1.39-2.09-.52,2.46,2.09-1.4-1.42,2.07,2.46-.49-2.11,1.37,2.46,.49-2.47,.46,2.09,1.39Z"/><path class="cls-3" d="M23.91,25.28H5.55c1.63,1.42,3.6,2.47,5.76,3.01h6.84c2.17-.54,4.13-1.59,5.76-3.01Z"/><path class="cls-5" d="M26.51,22.27H2.95c.72,1.12,1.6,2.14,2.6,3.01H23.91c1-.87,1.88-1.88,2.6-3.01Z"/><path class="cls-5" d="M28.64,16.25H.82c.11,1.04,.35,2.05,.68,3.01H27.97c.33-.96,.56-1.97,.68-3.01Z"/><path class="cls-5" d="M14.29,13.24h14.36c-.11-1.04-.34-2.05-.67-3.01H14.29v3.01Z"/><path class="cls-5" d="M14.29,7.22h12.24c-.72-1.12-1.59-2.13-2.58-3.01H14.29v3.01Z"/><polygon class="cls-4" points="9.83 8.74 11.93 7.37 9.47 7.86 10.89 5.8 8.81 7.19 9.33 4.74 7.94 6.83 7.48 4.36 6.99 6.82 5.63 4.72 6.12 7.18 4.05 5.76 5.45 7.84 2.99 7.32 5.08 8.71 2.61 9.17 5.08 9.65 2.97 11.02 5.43 10.53 4.01 12.6 6.1 11.2 5.57 13.66 6.96 11.57 7.42 14.03 7.91 11.57 9.28 13.68 8.78 11.22 10.85 12.64 9.45 10.55 11.91 11.07 9.82 9.68 12.29 9.23 9.83 8.74"/></g><path class="cls-2" d="M28.73,14.73c0,7.73-6.27,14-14,14S.73,22.46,.73,14.73,7,.73,14.73,.73s14,6.27,14,14Z"/></g></g></svg>