<?xml version="1.0" encoding="UTF-8"?><svg id="Capa_2" xmlns="http://www.w3.org/2000/svg" viewBox="0 0 29.46 29.46"><defs><style>.cls-1,.cls-2{fill:none;}.cls-3{fill:#fff;}.cls-4{fill:#e8495b;}.cls-5{fill:#096eb5;}.cls-2{stroke:#77113e;stroke-miterlimit:10;stroke-width:1.46px;}</style></defs><g id="Capa_1-2"><g><path class="cls-4" d="M28.73,14.73c0,7.73-6.27,14-14,14S.73,22.46,.73,14.73,7,.73,14.73,.73s14,6.27,14,14Z"/><g><path class="cls-1" d="M28.25,18.3H1.21c.19,.72,.43,1.42,.73,2.09H27.53c.3-.67,.54-1.37,.73-2.09Z"/><path class="cls-1" d="M14.41,7.84h12.5c-.42-.74-.9-1.44-1.45-2.09H14.41v2.09Z"/><path class="cls-1" d="M14.41,16.2h14.24c.05-.48,.08-.98,.08-1.47,0-.21-.02-.41-.03-.62H14.41v2.09Z"/><path class="cls-1" d="M23.27,3.65c-2.36-1.82-5.32-2.92-8.54-2.92-.11,0-.21,.01-.32,.02V3.65h8.86Z"/><path class="cls-1" d="M14.41,12.02h14.05c-.14-.72-.35-1.42-.6-2.09H14.41v2.09Z"/><path class="cls-1" d="M26.39,22.48H3.07c.5,.75,1.07,1.45,1.71,2.09H24.68c.63-.64,1.2-1.34,1.71-2.09Z"/><path class="cls-1" d="M7.44,26.67c2.13,1.3,4.62,2.06,7.29,2.06s5.16-.76,7.29-2.06H7.44Z"/><path class="cls-3" d="M14.41,5.74h11.05c-.65-.78-1.39-1.47-2.19-2.09H14.41v2.09Z"/><path class="cls-3" d="M14.41,9.93h13.46c-.27-.73-.58-1.43-.96-2.09H14.41v2.09Z"/><path class="cls-3" d="M14.41,14.11h14.29c-.03-.71-.1-1.41-.24-2.09H14.41v2.09Z"/><path class="cls-3" d="M28.65,16.2H.81c.07,.72,.22,1.41,.4,2.09H28.25c.18-.68,.32-1.38,.4-2.09Z"/><path class="cls-3" d="M27.53,20.39H1.93c.32,.73,.7,1.43,1.14,2.09H26.39c.44-.66,.82-1.36,1.14-2.09Z"/><path class="cls-3" d="M24.68,24.57H4.78c.79,.8,1.69,1.5,2.66,2.09h14.58c.97-.59,1.87-1.29,2.66-2.09Z"/><polygon class="cls-5" points="9.51 12.02 10.47 12.02 9.99 11.77 9.51 12.02"/><polygon class="cls-5" points="1.01 12.02 1.97 12.02 1.49 11.77 1.01 12.02"/><polygon class="cls-5" points="3.84 12.02 4.81 12.02 4.33 11.77 3.84 12.02"/><polygon class="cls-5" points="12.34 12.02 13.31 12.02 12.82 11.77 12.34 12.02"/><path class="cls-5" d="M14.41,.75c-1.55,.04-3.03,.32-4.41,.82l.32,.66,.74,.11-.53,.52,.13,.73-.66-.35-.66,.35,.13-.73-.53-.52,.74-.11,.32-.65c-.61,.22-1.2,.47-1.77,.77l-.53,.51,.13,.73-.66-.35-.66,.35,.03-.19c-.11,.08-.23,.17-.34,.25H14.41V.75Zm-1.59,2.5l-.66,.35,.13-.73-.53-.52,.74-.11,.33-.67,.33,.67,.74,.11-.53,.52,.13,.73-.66-.35Z"/><polygon class="cls-5" points="6.68 12.02 7.64 12.02 7.16 11.77 6.68 12.02"/><path class="cls-5" d="M4.33,7.24l.29,.59h2.25l.29-.59,.29,.59h2.25l.29-.59,.29,.59h2.25l.29-.59,.29,.59h1.29v-2.09h-1.04l.12,.69-.66-.35-.66,.35,.12-.69h-1.75l.12,.69-.66-.35-.66,.35,.12-.69h-1.75l.12,.69-.66-.35-.66,.35,.12-.69h-1.75l.12,.69-.66-.35-.66,.35,.06-.33c-.43,.55-.82,1.13-1.17,1.74h1.48l.29-.59Z"/><path class="cls-5" d="M14.41,14.11h-.94l-.11,.11,.13,.73-.66-.35-.66,.35,.13-.73-.11-.11h-1.54l-.11,.11,.13,.73-.66-.35-.66,.35,.13-.73-.11-.11h-1.54l-.11,.11,.13,.73-.66-.35-.66,.35,.13-.73-.11-.11h-1.54l-.11,.11,.13,.73-.66-.35-.66,.35,.13-.73-.11-.11h-1.54l-.11,.11,.13,.73-.66-.35-.66,.35,.13-.73-.11-.11h-.09c0,.21-.03,.41-.03,.62,0,.5,.03,.99,.08,1.47H14.41v-2.09Z"/><path class="cls-5" d="M2.56,10.86l-.53,.52,.11,.64h1.55l.11-.64-.53-.52,.74-.11,.33-.67,.33,.67,.74,.11-.53,.52,.11,.64h1.55l.11-.64-.53-.52,.74-.11,.33-.67,.33,.67,.74,.11-.53,.52,.11,.64h1.55l.11-.64-.53-.52,.74-.11,.33-.67,.33,.67,.74,.11-.53,.52,.11,.64h1.55l.11-.64-.53-.52,.74-.11,.33-.67,.33,.67,.74,.11-.53,.52,.11,.64h.94v-2.09H1.59c-.03,.07-.05,.14-.08,.21l.3,.62,.74,.11Z"/><path class="cls-5" d="M5.39,5.18l-.53,.52v.05h1.76v-.05s-.53-.52-.53-.52l.74-.11,.33-.67,.33,.67,.74,.11-.53,.52v.05h1.76v-.05s-.53-.52-.53-.52l.74-.11,.33-.67,.33,.67,.74,.11-.53,.52v.05h1.76v-.05s-.53-.52-.53-.52l.74-.11,.33-.67,.33,.67,.74,.11-.53,.52v.05h1.05V3.65H6.19c-.55,.43-1.07,.89-1.55,1.39v.03s.75,.11,.75,.11Z"/><path class="cls-5" d="M14.41,7.84h-1.29l.04,.07,.74,.11-.53,.52,.13,.73-.66-.35-.66,.35,.13-.73-.53-.52,.74-.11,.04-.07h-2.25l.04,.07,.74,.11-.53,.52,.13,.73-.66-.35-.66,.35,.13-.73-.53-.52,.74-.11,.04-.07h-2.25l.04,.07,.74,.11-.53,.52,.13,.73-.66-.35-.66,.35,.13-.73-.53-.52,.74-.11,.04-.07h-2.25l.04,.07,.74,.11-.53,.52,.13,.73-.66-.35-.66,.35,.13-.73-.53-.52,.74-.11,.04-.07h-1.48c-.03,.06-.07,.11-.1,.17l.11,.02-.23,.22c-.09,.18-.18,.36-.26,.55l.08,.49-.25-.13c-.11,.26-.21,.52-.31,.79H14.41v-2.09Z"/><path class="cls-5" d="M1.49,12.92l.33,.67,.74,.11-.42,.41h1.54l-.42-.41,.74-.11,.33-.67,.33,.67,.74,.11-.42,.41h1.54l-.42-.41,.74-.11,.33-.67,.33,.67,.74,.11-.42,.41h1.54l-.42-.41,.74-.11,.33-.67,.33,.67,.74,.11-.42,.41h1.54l-.42-.41,.74-.11,.33-.67,.33,.67,.74,.11-.42,.41h.94v-2.09h-.94l.02,.09-.18-.09h-.96l-.18,.09,.02-.09h-1.55l.02,.09-.18-.09h-.96l-.18,.09,.02-.09h-1.55l.02,.09-.18-.09h-.96l-.18,.09,.02-.09h-1.55l.02,.09-.18-.09h-.96l-.18,.09,.02-.09h-1.55l.02,.09-.18-.09H1c-.1,.54-.17,1.08-.21,1.63l.38-.05,.33-.67Z"/><path class="cls-5" d="M.77,14.03s0,.05,0,.08h.09l-.08-.08Z"/><path class="cls-3" d="M7.16,3.24l.66,.35-.13-.73,.53-.51c-.59,.31-1.15,.67-1.69,1.06l-.03,.19,.66-.35Z"/><polygon class="cls-3" points="8.92 2.33 9.46 2.85 9.33 3.59 9.99 3.24 10.65 3.59 10.53 2.85 11.06 2.33 10.32 2.23 10 1.57 9.98 1.57 9.66 2.23 8.92 2.33"/><polygon class="cls-3" points="13.89 2.33 13.15 2.23 12.82 1.56 12.49 2.23 11.76 2.33 12.29 2.85 12.16 3.59 12.82 3.24 13.48 3.59 13.36 2.85 13.89 2.33"/><path class="cls-3" d="M4.33,6.08l.66,.35-.12-.69h-.87c-.1,.12-.19,.24-.28,.35l-.06,.33,.66-.35Z"/><path class="cls-3" d="M4.86,5.7l.53-.52-.74-.11v-.03c-.23,.23-.45,.46-.65,.7h.87v-.05Z"/><polygon class="cls-3" points="6.5 6.43 7.16 6.08 7.82 6.43 7.7 5.74 6.62 5.74 6.5 6.43"/><polygon class="cls-3" points="8.23 5.18 7.49 5.07 7.16 4.4 6.83 5.07 6.09 5.18 6.62 5.7 6.62 5.74 7.7 5.74 7.69 5.7 8.23 5.18"/><polygon class="cls-3" points="9.33 6.43 9.99 6.08 10.65 6.43 10.53 5.74 9.45 5.74 9.33 6.43"/><polygon class="cls-3" points="11.06 5.18 10.32 5.07 9.99 4.4 9.66 5.07 8.92 5.18 9.46 5.7 9.45 5.74 10.53 5.74 10.53 5.7 11.06 5.18"/><polygon class="cls-3" points="12.16 6.43 12.82 6.08 13.48 6.43 13.37 5.74 12.28 5.74 12.16 6.43"/><polygon class="cls-3" points="13.89 5.18 13.15 5.07 12.82 4.4 12.49 5.07 11.76 5.18 12.29 5.7 12.28 5.74 13.37 5.74 13.36 5.7 13.89 5.18"/><path class="cls-3" d="M2.45,8c-.04,.08-.08,.16-.12,.24l.23-.22-.11-.02Z"/><path class="cls-3" d="M2.07,8.79c-.06,.12-.12,.23-.17,.35l.25,.13-.08-.49Z"/><polygon class="cls-3" points="4.03 7.84 4.62 7.84 4.33 7.24 4.03 7.84"/><polygon class="cls-3" points="4 7.91 3.26 8.02 3.79 8.54 3.67 9.27 4.33 8.93 4.98 9.27 4.86 8.54 5.39 8.02 4.65 7.91 4.62 7.84 4.03 7.84 4 7.91"/><polygon class="cls-3" points="6.87 7.84 7.45 7.84 7.16 7.24 6.87 7.84"/><polygon class="cls-3" points="6.83 7.91 6.09 8.02 6.62 8.54 6.5 9.27 7.16 8.93 7.82 9.27 7.69 8.54 8.23 8.02 7.49 7.91 7.45 7.84 6.87 7.84 6.83 7.91"/><polygon class="cls-3" points="9.7 7.84 10.28 7.84 9.99 7.24 9.7 7.84"/><polygon class="cls-3" points="9.66 7.91 8.92 8.02 9.46 8.54 9.33 9.27 9.99 8.93 10.65 9.27 10.53 8.54 11.06 8.02 10.32 7.91 10.28 7.84 9.7 7.84 9.66 7.91"/><polygon class="cls-3" points="12.53 7.84 13.12 7.84 12.82 7.24 12.53 7.84"/><polygon class="cls-3" points="12.49 7.91 11.76 8.02 12.29 8.54 12.16 9.27 12.82 8.93 13.48 9.27 13.36 8.54 13.89 8.02 13.15 7.91 13.12 7.84 12.53 7.84 12.49 7.91"/><path class="cls-3" d="M1.49,11.77l.48,.25h.16l-.11-.64,.53-.52-.74-.11-.3-.62c-.21,.61-.39,1.24-.52,1.89h.01l.48-.25Z"/><polygon class="cls-3" points="1 12.02 1 12.03 1.01 12.02 1 12.02"/><polygon class="cls-3" points="2.15 12.11 2.14 12.02 1.97 12.02 2.15 12.11"/><polygon class="cls-3" points="5.39 10.86 4.65 10.75 4.33 10.08 4 10.75 3.26 10.86 3.79 11.38 3.68 12.02 3.84 12.02 4.33 11.77 4.81 12.02 4.97 12.02 4.86 11.38 5.39 10.86"/><polygon class="cls-3" points="4.98 12.11 4.97 12.02 4.81 12.02 4.98 12.11"/><polygon class="cls-3" points="3.67 12.11 3.84 12.02 3.68 12.02 3.67 12.11"/><polygon class="cls-3" points="8.23 10.86 7.49 10.75 7.16 10.08 6.83 10.75 6.09 10.86 6.62 11.38 6.51 12.02 6.68 12.02 7.16 11.77 7.64 12.02 7.8 12.02 7.69 11.38 8.23 10.86"/><polygon class="cls-3" points="6.5 12.11 6.68 12.02 6.51 12.02 6.5 12.11"/><polygon class="cls-3" points="7.82 12.11 7.8 12.02 7.64 12.02 7.82 12.11"/><polygon class="cls-3" points="11.06 10.86 10.32 10.75 9.99 10.08 9.66 10.75 8.92 10.86 9.46 11.38 9.35 12.02 9.51 12.02 9.99 11.77 10.47 12.02 10.64 12.02 10.53 11.38 11.06 10.86"/><polygon class="cls-3" points="10.65 12.11 10.64 12.02 10.47 12.02 10.65 12.11"/><polygon class="cls-3" points="9.33 12.11 9.51 12.02 9.35 12.02 9.33 12.11"/><polygon class="cls-3" points="13.89 10.86 13.15 10.75 12.82 10.08 12.49 10.75 11.76 10.86 12.29 11.38 12.18 12.02 12.34 12.02 12.82 11.77 13.31 12.02 13.47 12.02 13.36 11.38 13.89 10.86"/><polygon class="cls-3" points="13.48 12.11 13.47 12.02 13.31 12.02 13.48 12.11"/><polygon class="cls-3" points="12.16 12.11 12.34 12.02 12.18 12.02 12.16 12.11"/><polygon class="cls-3" points=".96 14.22 .83 14.96 1.49 14.61 2.15 14.96 2.03 14.22 2.14 14.11 .85 14.11 .96 14.22"/><path class="cls-3" d="M2.14,14.11l.42-.41-.74-.11-.33-.67-.33,.67-.38,.05c0,.13-.01,.26-.02,.38l.08,.08h1.29Z"/><polygon class="cls-3" points="3.79 14.22 3.67 14.96 4.33 14.61 4.98 14.96 4.86 14.22 4.97 14.11 3.68 14.11 3.79 14.22"/><polygon class="cls-3" points="4.65 13.59 4.33 12.92 4 13.59 3.26 13.7 3.68 14.11 4.97 14.11 5.39 13.7 4.65 13.59"/><polygon class="cls-3" points="6.62 14.22 6.5 14.96 7.16 14.61 7.82 14.96 7.69 14.22 7.8 14.11 6.51 14.11 6.62 14.22"/><polygon class="cls-3" points="7.49 13.59 7.16 12.92 6.83 13.59 6.09 13.7 6.51 14.11 7.8 14.11 8.23 13.7 7.49 13.59"/><polygon class="cls-3" points="9.46 14.22 9.33 14.96 9.99 14.61 10.65 14.96 10.53 14.22 10.64 14.11 9.35 14.11 9.46 14.22"/><polygon class="cls-3" points="10.32 13.59 9.99 12.92 9.66 13.59 8.92 13.7 9.35 14.11 10.64 14.11 11.06 13.7 10.32 13.59"/><polygon class="cls-3" points="12.29 14.22 12.16 14.96 12.82 14.61 13.48 14.96 13.36 14.22 13.47 14.11 12.18 14.11 12.29 14.22"/><polygon class="cls-3" points="13.15 13.59 12.82 12.92 12.49 13.59 11.76 13.7 12.18 14.11 13.47 14.11 13.89 13.7 13.15 13.59"/></g><path class="cls-2" d="M28.73,14.73c0,7.73-6.27,14-14,14S.73,22.46,.73,14.73,7,.73,14.73,.73s14,6.27,14,14Z"/></g></g></svg>