<?xml version="1.0" encoding="UTF-8"?><svg id="Capa_2" xmlns="http://www.w3.org/2000/svg" viewBox="0 0 184.94 184.94"><defs><style>.cls-1{fill:#fff;}.cls-2{fill:#4f9b34;}.cls-3{fill:none;stroke:#77103d;stroke-miterlimit:10;stroke-width:9.17px;}</style></defs><g id="Capa_1-2"><g><path class="cls-2" d="M180.36,92.47c0,48.54-39.35,87.89-87.89,87.89S4.58,141.01,4.58,92.47,43.93,4.58,92.47,4.58s87.89,39.35,87.89,87.89Z"/><g><path class="cls-1" d="M93.42,80.2c-.47,.06-.92,.04-1.33,.18-1.37,.48-2.72,1.02-4.07,1.55-.25,.1-.48,.24-.69,.53,.3,.02,.6,.05,.9,.05,3.7-.09,7.41-.19,11.12-.28,.31,0,.63-.02,.94,.01,.34,.04,.52,.27,.41,.61-.19,.56-.4,1.13-.66,1.66-.28,.58-.88,.67-1.44,.79-1.45,.3-2.91,.54-4.34,.93-1.56,.43-3.09,.98-4.63,1.5-.37,.13-.74,.32-1.05,.56-.63,.48-.68,1.09-.18,1.71,.52,.65,1.25,.98,2,1.26,.32,.12,.66,.19,.98,.3,.7,.26,.83,.48,.63,1.16-.41,1.39-.37,1.66-2.04,1.53-1.95-.16-3.81-.65-5.54-1.59-1.76-.95-3.09-2.32-3.97-4.12-.1-.2-.2-.41-.35-.69-.19,.21-.35,.38-.5,.57-1.18,1.51-2.41,2.98-3.94,4.14-.81,.61-1.7,1.14-2.61,1.61-.93,.48-1.96,.56-3,.44-1.49-.16-2.46-.96-2.92-2.38-.12-.38-.2-.76-.31-1.22-.26,.09-.49,.15-.72,.24-2.51,1.03-5.09,1.83-7.7,2.55-.46,.13-.45,.14-.98-.09,.1-.43,.51-.49,.81-.66,2.4-1.31,4.8-2.63,7.22-3.9,1.01-.53,1.68-1.23,1.93-2.4,.19-.88,.66-1.69,1.02-2.53,.11-.25,.27-.47,.47-.8,.52,.51,.31,1.03,.3,1.5,0,.51-.06,1.02-.1,1.64,.27-.13,.45-.18,.59-.29,1.05-.83,2.13-1.63,3.12-2.53,1.3-1.17,1.44-2.19,.64-3.75-.34-.66-.69-1.31-1.04-1.97-.21-.4-.38-.81-.84-1.03-.37-.18-.52-.57-.36-.95,.27-.66,.56-1.31,.91-1.92,.22-.38,.52-.41,.87-.11,.85,.72,1.59,1.55,2.09,2.56,.23,.46,.17,.53-.49,.89,.07,.23,.16,.46,.22,.7,.21,.74,.44,1.47,.61,2.22,.46,2.08-.13,3.89-1.55,5.44-1.31,1.44-2.77,2.71-4.47,3.69-.36,.21-.78,.34-.7,.93,.08,.59,.31,1.07,.87,1.26,.42,.14,.89,.18,1.34,.17,.99-.04,1.89-.38,2.73-.9,2.34-1.45,4.04-3.48,5.41-5.83,.24-.41,.12-.77,0-1.14-.86-2.62-1.66-5.27-2.64-7.85-.57-1.51-.02-2.64,.76-3.8,.03-.04,.1-.04,.26-.1,.13,.2,.3,.42,.42,.65,1.83,3.59,3.05,7.36,3.54,11.36,.07,.56,.2,1.12,.33,1.68,.6,2.52,1.88,3.79,4.51,4.45-.53-2.71,1.2-3.91,3.35-4.9-.75-.71-1.62-.91-2.51-.98-1.19-.1-2.39-.14-3.59-.18-1.63-.07-1.73-.24-1.29-1.76,.36-1.26,1.09-2.08,2.34-2.49,1.7-.56,3.39-1.18,5.08-1.77,.24-.08,.49-.16,.75-.24-.01-.1,0-.19-.04-.25-.76-1.66-.09-3.84,1.47-4.77,.69-.41,1.43-.38,2.15-.17,1.03,.3,1.96,.8,2.78,1.47,1.08,.89,1.23,2.09,.45,3.28-.66,1-1.65,1.53-2.72,1.97-.36,.15-.69,.41-1.04,.62Zm1.34-3.29c0-.07,.01-.13,.01-.2-.74-.41-1.42-.94-2.34-1.09-.15,.68-.13,1.24,.21,1.81,.73-.17,1.42-.34,2.12-.51Z"/><path class="cls-1" d="M118.15,127.92h-1.09c-18.65,0-37.31,0-55.96-.02-2.1,0-4.21-.16-6.31-.33-1.34-.11-2.64-.49-3.79-1.23-.37-.23-.7-.54-1.02-.78,.05-.13,.06-.16,.08-.18,.02-.02,.05-.03,.08-.03,.08-.01,.17-.03,.25-.03,22.56,0,45.12-.02,67.68-.03,.03,0,.05-.02,.12-.05,.18-.31,.12-.61-.15-.88-.12-.12-.24-.24-.35-.38-.36-.46-.35-.68,0-1.14,.8-1.06,1.79-.93,2.34,.29,.19,.43-.05,.71-.31,.98-.3,.32-.62,.61-.36,1.21,.26,0,.57,0,.87,0,2.91,0,5.82,0,8.73,.01,.54,0,1.08,.06,1.61,.16,.74,.14,1.21,.59,1.38,1.34,.22,.97,.17,1.93-.11,2.87-.3,1-1.41,1.42-2.44,.88-.49-.26-.96-.31-1.47-.31-.54,0-1.09,0-1.63,0-.48,0-.93,0-1.38,.3-.47,.32-1.06,.32-1.55,0-.42-.27-.84-.31-1.3-.3-.43,0-.86,.02-1.28,0-.54-.03-.97,.1-1.36,.53-.52,.56-.8,.52-1.37,0-.06-.06-.12-.12-.18-.18-.59-.63-.6-.89-.03-1.53,.27-.3,.59-.56,.32-1.16Zm10.19,1.49v-1.44h-9.03c-.06,.9,.37,1.42,1.15,1.44,.63,.01,1.25,.03,1.88,0,.29-.02,.6-.12,.86-.26,.64-.33,1.24-.34,1.87,.01,.19,.11,.4,.23,.61,.24,.88,.03,1.76,0,2.66,0Z"/><path class="cls-1" d="M42.82,81.65c.37,.6,.3,1.26,.14,1.88-.36,1.43-.23,2.83,.08,4.23,.51,2.26,1.91,3.44,4.23,3.47,.87,.01,1.77-.12,2.62-.32,2.08-.47,3.98-1.35,5.7-2.64,1.37-1.02,2.16-2.35,2.24-4.04,.07-1.53,.01-3.07,.01-4.61-.96,.16-1.1,.32-1,1.17,.22,1.78-.25,3.35-1.46,4.65-1.79,1.94-3.98,3.23-6.59,3.69-2.41,.43-4.64-1.29-4.93-3.73-.19-1.58-.03-3.13,.44-4.64,.1-.33,.3-.62,.46-.93,.08,.02,.15,.04,.23,.06,0,.23,0,.47,0,.71-.02,.74-.07,1.48-.06,2.22,0,.39,.09,.79,.2,1.17,.63,2.21,2.14,3.03,4.31,2.3,2.11-.71,3.79-2.08,5.25-3.71,.46-.52,.54-1.16,.39-1.92-.74,.22-1.42,.41-2.09,.62-.68,.21-1.35,.15-2.01-.08-.55-.19-.83-.55-.83-1.15,0-.54-.05-1.08-.07-1.62-.03-1.47,.71-2.55,1.79-3.43,.64-.52,1.39-.41,1.97,.09,.74,.62,1.37,1.35,2.04,2.05,.15,.16,.26,.37,.42,.61,.46-.26,.9-.51,1.4-.79-.07-.96-.1-1.93-.21-2.88-.38-3.28-.8-6.56-1.2-9.84-.05-.45-.05-.91-.1-1.36-.03-.36-.05-.74-.16-1.08-.17-.55-.09-1.01,.29-1.42,.25-.27,.5-.55,.78-.79,.53-.46,.73-.41,1.01,.21,.13,.29,.22,.58,.33,.88,.41,1.09,.82,2.18,1.23,3.28,.07,.19,.15,.37,.18,.57,.15,.95-.21,1.31-1.2,1.16,.26,3.37,.52,6.73,.79,10.28,.46-.39,.76-.7,1.11-.93,.19-.12,.49-.2,.68-.13,.13,.04,.2,.37,.22,.59,.05,.48,0,.97,.09,1.44,.22,1.14,1.08,1.47,2.03,.8,.75-.53,1.16-1.31,1.48-2.15,.12-.3,.25-.6,.37-.9,.07,0,.14,.01,.22,.02,.06,.28,.12,.57,.2,.85,.11,.44,.19,.89,.36,1.31,.11,.27,.34,.54,.58,.72,.48,.38,1,.23,1.25-.34,.23-.54,.21-1.1,.02-1.66-.19-.58,.17-1.15,.75-1.24,.35-.06,.44,.19,.5,.45,.22,.96,.22,1.92,.04,2.88-.14,.78-.37,1.51-1.28,1.74-.96,.24-1.8,.04-2.52-.64-.14-.13-.27-.28-.45-.49-.23,.21-.43,.4-.63,.58-.73,.68-1.62,.94-2.59,.92-.85-.01-1.54-.37-2.12-1.13-.02,.19-.07,.39-.07,.58,.05,1.4,.16,2.79,.13,4.19-.02,1.07-.12,2.16-.34,3.22-.43,2.08-1.56,3.76-3.41,4.8-3,1.69-6.22,2.68-9.72,2.46-2.07-.14-3.54-1.09-4.22-3.15-.96-2.95-.76-5.83,.34-8.69,.04-.1,.1-.2,.17-.29,.03-.04,.1-.05,.19-.1Zm11.36-3.11c-.54-.75-.98-1.37-1.99-1.31-.05,.28-.14,.55-.15,.82-.02,.58,.24,.85,.82,.79,.4-.04,.8-.18,1.32-.3Z"/><path class="cls-1" d="M128.12,63.22c.41,.58,.78,1.09,1.15,1.59,.04,.06,.12,.1,.35,.26-.25-1.08-.1-2.04-.47-2.96-.47-1.15,.05-2.54,1.23-3.3,.14,.19,.34,.36,.42,.58,.63,1.57,1.34,3.12,1.73,4.85-.31,.02-.49,.04-.7,.05-.02,.07-.06,.16-.05,.23,.09,1.19,.17,2.39,.27,3.58,.02,.22,.04,.48,.16,.64,.89,1.21,1.81,2.4,2.86,3.56,0-.14,.02-.29,0-.43-.61-3.31-.96-6.65-1.23-10-.09-1.13,.14-2,.8-2.83,.49-.63,.84-.58,1.18,.15,.13,.28,.24,.58,.33,.88,.35,1.18,.69,2.35,1.02,3.53,.22,.82,.11,1.03-.71,1.33,.05,.92,.07,1.88,.15,2.84,.2,2.3,.43,4.59,.62,6.89,.05,.56,.21,1.04,.54,1.49,1.05,1.42,2.09,2.85,3.09,4.31,.53,.77,1.02,1.58,1.43,2.42,.5,1.04,.58,2.17,.23,3.39-.2-.25-.4-.49-.59-.75-1.29-1.81-2.57-3.62-3.86-5.43-.06-.09-.15-.16-.32-.34-.01,.32-.03,.53-.03,.74,0,1.2,.06,2.39,.01,3.59-.03,.64-.22,1.28-.38,1.92-.05,.19-.22,.36-.37,.6-.37-.45-.33-.88-.29-1.29,.16-1.72,.01-3.42-.21-5.11-.1-.76-.22-1.52-.36-2.28-.04-.22-.14-.44-.27-.61-1.05-1.42-2.12-2.83-3.18-4.24-.03-.04-.1-.04-.2-.09,0,.46-.02,.9,0,1.33,.17,3.13,.38,6.26,.52,9.39,.04,.87-.11,1.76-.24,2.63-.06,.41-.26,.81-.46,1.19-.85,1.62-2.3,2.26-4.08,1.86-1.26-.29-2.22-1-3-1.98-.17-.22-.34-.44-.59-.77-.35,.37-.68,.64-.9,.99-.38,.6-.68,1.25-1.04,1.86-.68,1.18-1.36,2.37-2.06,3.54-.14,.24-.34,.45-.54,.66-.4,.42-.89,.53-1.4,.25-1.01-.55-1.92-1.24-2.63-2.15-.44-.56-.58-1.24-.59-1.93-.03-1.81,.39-3.56,.92-5.28,.03-.1,.12-.18,.19-.27,.37,.11,.29,.42,.31,.65,.05,.85,.01,1.72,.14,2.56,.14,.89,.43,1.76,.67,2.63,.06,.21,.19,.41,.32,.6,.52,.76,1.15,.79,1.73,.07,.27-.33,.45-.72,.67-1.09,.96-1.65,1.9-3.31,2.88-4.94,.2-.34,.47-.65,.76-.92,.43-.4,.87-.42,1.31-.05,.41,.35,.74,.79,1.1,1.19,.38,.42,.73,.89,1.17,1.23,.95,.74,2.09,.47,2.69-.58,.38-.66,.51-1.4,.49-2.14-.05-2.19-.1-4.39-.22-6.58-.11-1.99-.32-3.98-.45-5.97-.06-.93-.28-1.73-.94-2.47-1.35-1.5-2.59-3.11-3.91-4.65-.64-.75-1.09-1.5-.84-2.55,.11-.49,0-1.02,.03-1.53,.01-.21,.11-.54,.23-.57,.2-.06,.47,.07,.69,.14,.1,.03,.17,.14,.26,.22,.81,.76,1.62,1.52,2.43,2.28,.12,.12,.26,.22,.38,.35,.41,.47,.36,.67-.33,1.04Z"/><path class="cls-1" d="M49.53,70.56c-.68,.83-1.27,1.52-1.81,2.24-.12,.15-.09,.44-.07,.66,.14,2.08,.3,4.15,.46,6.23,.1,1.23,.15,2.45-.5,3.58-.05,.1-.11,.2-.18,.29-.03,.04-.1,.04-.25,.11-.38-1.03-.18-2.13-.36-3.16-.19-1.09-.27-2.21-.4-3.31-.13-1.07-.27-2.14-.4-3.24-.13-.03-.24-.07-.34-.08-2.39-.22-3.2-1.8-3.52-3.47-.23-1.25-.14-2.5,.08-3.74,.07-.44,.16-.87-.1-1.51-.2,.45-.36,.7-.43,.99-.3,1.27-.55,2.56-.87,3.83-.19,.74-.43,1.47-.7,2.18-.12,.31-.35,.59-.59,.83-.58,.59-1.24,.56-1.77-.06-.18-.21-.33-.47-.45-.72-1.13-2.51-1.5-5.12-.98-7.84,.07-.37,.25-.73,.39-1.14,.45,.26,.31,.6,.34,.89,.12,1.33,.2,2.67,.36,3.99,.07,.56,.28,1.1,.47,1.64,.1,.29,.28,.56,.48,.8,.37,.44,.74,.4,1.02-.09,.15-.27,.27-.57,.33-.87,.14-.7,.28-1.4,.34-2.11,.15-1.76,.77-3.32,1.78-4.74,.21-.3,.49-.57,.8-.76,.76-.47,1.49-.1,1.47,.79-.02,.73-.17,1.47-.38,2.17-.34,1.15-.47,2.3-.13,3.45,.16,.54,.39,1.07,.68,1.56,.3,.5,.75,.85,1.43,.79,0-.47,.03-.92,0-1.36-.1-1.34-.19-2.67-.34-4-.08-.73-.26-1.45-.38-2.18-.07-.42-.11-.84-.19-1.26-.04-.22-.11-.43-.19-.64-.31-.74-.02-1.75,.63-2.2,.24-.17,.46-.11,.6,.09,.72,1,1.4,2.03,1.52,3.29,.03,.3-.2,.62-.32,.92-.08,.2-.27,.39-.25,.58,.19,2.12,.41,4.24,.62,6.4,.95-.47,1.56-1.65,1.37-2.55-.23-1.14-.48-2.28-.73-3.43-.24-1.09-.16-2.14,.39-3.24,.23,.16,.43,.25,.58,.4,.82,.81,1.19,1.8,1.05,2.95-.17,1.46,.16,2.84,.57,4.2,.34,1.14,1.08,1.7,2.18,1.71,.89,0,1.18-.33,1.06-1.22-.23-1.65-.74-3.22-1.37-4.75-.12-.29-.25-.57-.36-.87-.16-.43-.14-.83,.2-1.19,.22-.23,.4-.49,.61-.71,.37-.41,.63-.45,1.01-.06,.43,.45,.86,.92,1.2,1.44,.58,.89,.5,1.15-.34,1.71,.27,1.22,.56,2.44,.82,3.66,.07,.33,.08,.68,.1,1.02,.08,2.11-1.1,3.25-3.05,3.72-1.16,.28-2.26-.36-2.75-1.52-.13-.31-.23-.63-.38-1.04Z"/><path class="cls-1" d="M85.58,58.06c.61,.54,.77,1.13,.95,1.69,.48,1.54,.58,3.13,.67,4.73,.07,1.3,.43,2.52,1.04,3.67,.2,.37,.45,.74,.76,1.02,.85,.81,1.84,.48,2.12-.66,.21-.86,.11-1.72-.11-2.54-.39-1.48-.87-2.95-1.38-4.39-.19-.54-.25-.94,.2-1.38,.28-.27,.43-.67,.65-1,.33-.49,.52-.54,.97-.21,1.05,.76,1.75,1.78,2.11,3.03,.07,.24,.05,.61-.09,.78-.22,.27-.52,.02-.76-.12-.17-.1-.32-.22-.62-.43,.08,.35,.11,.55,.17,.74,.46,1.33,.75,2.69,.81,4.09,.05,1.1-.18,2.16-.71,3.13-.9,1.63-2.39,2.06-3.96,1.06-.69-.44-1.27-1.04-1.96-1.61-.13,.16-.27,.36-.43,.55-.87,1.1-1.94,1.92-3.3,2.34-1.82,.56-3.31-.17-3.98-1.95-.37-.98-.41-2-.39-3.03,.01-.71,0-1.41,0-2.16-.37,.02-.43,.34-.53,.58-.31,.79-.59,1.6-.89,2.4-.23,.61-.46,1.23-.72,1.83-.13,.31-.3,.62-.5,.89-.51,.68-1.17,.79-1.88,.33-.28-.19-.54-.42-.77-.67-1.92-2.11-2.29-4.58-1.6-7.26,.13-.52,.32-1.03,.52-1.54,.06-.16,.22-.29,.33-.43,.05,.02,.11,.04,.16,.06-.04,.26-.06,.53-.11,.78-.29,1.41-.3,2.83-.05,4.25,.14,.77,.38,1.49,.89,2.1,.71,.83,1.25,.74,1.7-.26,.74-1.66,1.48-3.33,2.3-4.96,.36-.74,.87-1.41,1.35-2.08,.26-.36,.54-.79,1.11-.61,.44,.14,.74,.86,.66,1.45-.13,1.02-.31,2.03-.36,3.05-.06,1.05-.04,2.11,.03,3.16,.09,1.39,1.02,2.09,2.35,1.7,1.97-.58,3.01-1.71,3.11-3.7,.09-1.81-.25-3.58-.73-5.31-.21-.75-.19-1.37,.21-2.02,.21-.33,.39-.67,.64-1.09Z"/><path class="cls-1" d="M102.6,90.85c-.44-.29-.36-.62-.28-.91,.85-3.14,.35-6.29-.02-9.42-.39-3.22-.85-6.44-1.31-9.65-.06-.43-.22-.9-.48-1.25-1.58-2.13-3.2-4.23-4.82-6.33-.2-.26-.5-.45-.78-.63-.43-.26-.66-.61-.67-1.11-.01-.71-.06-1.42-.04-2.13,0-.26,.08-.6,.26-.75,.27-.24,.61-.05,.85,.16,1.31,1.15,2.6,2.31,3.9,3.47,.04,.04,.09,.08,.11,.13,.08,.26,.24,.53,.21,.77-.01,.11-.42,.16-.65,.23-.08,.02-.17,.02-.25,.02,.15,.58,1.26,2.18,2.05,2.93-.01-.27-.01-.49-.04-.69-.1-.85-.19-1.7-.3-2.54-.03-.25-.08-.51-.21-.72-.31-.51-.34-1.02-.12-1.55,.15-.37,.26-.76,.47-1.1,.29-.48,.77-.49,1.13-.06,.09,.11,.16,.23,.22,.36,.57,1.37,1.14,2.73,1.71,4.1,.08,.18,.12,.38,.16,.57,.18,.82,.03,1-.89,1.01,.08,1.42,.13,2.84,.24,4.25,.02,.28,.27,.55,.44,.82,1.8,2.87,3.67,5.71,5.38,8.63,.83,1.42,1.41,2.98,2.03,4.51,.23,.57,.29,1.21,.39,1.83,.04,.23-.03,.47-.06,.71-.07,.02-.14,.04-.21,.06-.18-.26-.41-.5-.54-.79-1.74-4.03-4.21-7.63-6.61-11.27-.1-.14-.19-.29-.3-.42-.03-.03-.1-.04-.23-.1,.08,1.07,.15,2.11,.23,3.14,.21,2.64,.73,5.25,.62,7.92-.07,1.7-.33,3.35-1.02,4.91-.14,.32-.37,.6-.57,.9Z"/><path class="cls-1" d="M142.72,58.55c.56,.5,1.96,3.12,2.46,4.57,.09,.28,.09,.59,.14,.98-.36-.06-.6-.1-.86-.14-.02,.07-.07,.15-.07,.22,.14,2.02,.23,4.04,.44,6.05,.39,3.86,.96,7.7,.89,11.58-.03,1.47-.17,2.97-.47,4.41-.92,4.38-3.47,6.74-7.91,7.49-.45,.08-.93,.32-1.41,.01,.01-.4,.31-.55,.55-.72,.58-.41,1.2-.77,1.77-1.2,.97-.74,1.98-1.46,2.86-2.3,1.65-1.56,2.49-3.55,2.51-5.81,.02-1.82-.07-3.65-.23-5.46-.26-2.89-.59-5.78-.94-8.67-.35-2.86-.75-5.7-1.12-8.56-.03-.27,0-.58,.11-.82,.27-.63,.72-1.14,1.28-1.62Z"/><path class="cls-1" d="M113.75,64.72h-.88c-.1,1.37-.03,2.73,.12,4.09,.53,4.75,1.12,9.5,1.1,14.3,0,1.63-.08,3.24-.48,4.83-.31,1.24-.89,2.33-1.76,3.27-.47,.5-.93,1-1.39,1.51-.86,.93-1.9,1.57-3.15,1.75-1.04,.15-2.09,.19-3.14,.25-.23,.01-.46-.1-.69-.16-.01-.07-.02-.14-.03-.21,.31-.17,.6-.41,.92-.49,2.61-.59,4.47-2.29,6.26-4.11,1.44-1.46,1.95-3.22,1.81-5.23-.17-2.36-.25-4.72-.45-7.08-.34-3.74-.74-7.48-1.13-11.21-.1-.91-.24-1.81-.39-2.7-.07-.45-.18-.89-.31-1.32-.19-.66-.12-1.23,.41-1.72,.38-.34,.71-.74,1.08-1.09,.28-.26,.51-.24,.69,.09,.16,.3,.27,.63,.37,.95,.34,1.12,.67,2.24,.97,3.36,.08,.28,.05,.59,.08,.93Z"/><path class="cls-1" d="M118.28,89.21c0-.18-.04-.38,0-.55,.51-1.98,.25-3.96-.03-5.94-.5-3.53-.96-7.05-1.48-10.57-.46-3.1-.69-6.23-1.48-9.27-.35-1.35-.09-2.6,.88-3.66,.11-.12,.26-.2,.49-.37,.19,.32,.4,.58,.52,.87,.23,.58,.38,1.2,.63,1.77,.41,.94,.88,1.85,1.32,2.77,.12,.26,.22,.54,.34,.83-.68,.27-1.14-.13-1.77-.25,.01,.38,0,.74,.05,1.08,.55,4.67,1.11,9.33,1.68,13.99,.14,1.13,.41,2.24,.56,3.37,.25,1.83-.06,3.57-.93,5.21-.15,.29-.38,.54-.57,.81-.07-.03-.15-.06-.22-.09Z"/><path class="cls-1" d="M61.74,68.49c.13-.44,.52-.59,.84-.8,1.47-.94,2.86-1.97,4.08-3.23,.35-.36,.67-.76,1.03-1.17-.89-.9-.94-1.91-.52-2.97,.25-.64,.71-1.1,1.38-1.32,.87-.28,1.62,.17,1.77,1.07,.12,.73-.1,1.41-.36,2.08-.13,.34-.28,.66-.14,1.06,.13,.38-.08,.63-.48,.76-.25,.09-.51,.24-.67,.44-1.59,1.98-3.71,3.16-6.01,4.08-.27,.11-.58,.24-.91-.01Zm7.18-7.79c-.08-.02-.16-.05-.24-.07-.33,.29-.42,.64-.07,1.09,.1-.34,.21-.68,.31-1.02Z"/><path class="cls-1" d="M38.79,84.3c.23,.98,.23,1.78-.04,2.58-.31,.92-.58,1.85-.48,2.83,.03,.36,.11,.74,.27,1.06,.27,.56,.65,.57,1.06,.1,.2-.23,.4-.47,.61-.7,.03-.03,.1-.03,.22-.06,.06,.09,.18,.19,.2,.31,.09,.73-.03,1.42-.43,2.04-.36,.57-.87,.91-1.57,.8-.7-.1-1.17-.58-1.25-1.23-.13-1.09-.29-2.23-.11-3.3,.23-1.39,.77-2.72,1.19-4.07,.03-.09,.14-.16,.34-.36Z"/><path class="cls-1" d="M124.7,71.44c-.05-.67-.09-1.34-.15-2.01-.07-.8,.15-1.47,.83-1.93,.49-.34,.74-.27,1.02,.24q.42,.76,.19,1.33c-.1,0-.22,0-.32-.02-.8-.2-.9-.17-.95,.65-.05,.76,.02,1.53,.01,2.3,0,.5,.03,1.03-.38,1.47-.65-.25-.69-.93-1.01-1.4-.32-.47-.6-.96-.92-1.49-.21,.11-.34,.21-.49,.25-.39,.12-.62,0-.65-.41-.03-.43-.05-.86,.01-1.28,.03-.21,.24-.49,.42-.55,.18-.05,.52,.07,.65,.23,.32,.4,.57,.85,.81,1.3,.24,.44,.45,.91,.67,1.36,.08-.02,.16-.04,.24-.06Z"/><path class="cls-1" d="M36.92,80.53c.21-.25,.41-.52,.63-.76,1.81-1.9,3.97-3.21,6.48-3.97,.3-.09,.61-.25,.8,.16,.18,.4,.08,.96-.23,1.16-.11,.08-.25,.13-.39,.17-2.47,.75-4.79,1.82-6.93,3.26-.07,.04-.15,.06-.23,.09-.05-.04-.1-.08-.14-.12Z"/><path class="cls-1" d="M100.57,91.53c-1.09,.89-2.05,1.71-3.28,2.13-.18,.06-.39,.06-.59,.07-1.15,.05-1.57-.45-1.32-1.57,.06-.27,.11-.55,.16-.83,0-.04-.05-.1-.08-.17-.35,.06-.71,.13-1.06,.19-.04,0-.09-.06-.23-.16,.69-.57,1.39-1.06,2.23-1.31,.38-.11,.58,.12,.51,.54-.05,.28-.17,.54-.22,.82-.07,.38-.25,.77,.1,1.26,.32-.08,.71-.13,1.06-.27,.53-.2,1.03-.47,1.56-.69,.3-.12,.6-.32,1.16-.02Z"/><path class="cls-1" d="M131.62,92.08c.36,.04,.54,.04,.7,.08,.47,.12,.62,.49,.27,.8-.69,.62-1.54,.98-2.47,1.02-.2,0-.53-.19-.6-.36-.06-.17,.1-.47,.24-.65,.19-.24,.49-.4,.7-.62,.32-.34,.28-.63-.1-.93-.09-.07-.23-.09-.29-.18-.11-.18-.29-.42-.24-.58,.05-.21,.27-.46,.47-.52,.31-.1,.68-.09,1.01-.07,.85,.06,1.04,.42,.66,1.17-.12,.24-.21,.5-.35,.83Z"/><path class="cls-1" d="M87.62,73.36c.48,.79,.7,1.51,.5,2.29-.23,.93-.92,1.17-1.73,.64-.07-.05-.15-.08-.28-.15-.1,.16-.21,.31-.31,.46-.43,.65-1.08,.67-1.5,0-.48-.76-.52-1.58-.16-2.52,.46,.59,.29,1.44,1.01,1.8,.62-.49,.2-1.34,.67-1.89,.62,.38,.49,1.31,1.25,1.58,.55-.62,.05-1.47,.54-2.21Z"/><path class="cls-1" d="M122.73,79.23c-.22-.56,.01-.82,.27-1.04,.39-.33,.8-.64,1.2-.95,1.12-.87,2.24-1.75,3.37-2.61,.21-.16,.45-.27,.69-.41,.54,1.09,.4,1.5-.51,2.03-1.35,.78-2.67,1.62-4.01,2.43-.31,.18-.63,.35-1.01,.56Z"/><path class="cls-1" d="M139.02,60.84c.99,1.19,1.24,2.56,1.29,3.99,.06,1.56-.06,2.03-.63,2.56-.06-.21-.16-.37-.17-.55-.1-1.49-.41-2.91-1.23-4.2-.37-.59-.14-1.11,.74-1.8Z"/><path class="cls-1" d="M106.71,64.79c0-.41-.06-.74,.01-1.02,.3-1.13-.13-1.99-.93-2.74-.58-.54-.62-.84-.25-1.48,.41-.69,.84-.74,1.29-.08,.75,1.12,1.12,2.37,.89,3.72-.08,.46-.33,.9-.54,1.33-.05,.11-.25,.15-.47,.27Z"/><path class="cls-1" d="M69.19,69.51c-.12,1.17-.83,2.04-1.76,2.26-.89,.22-1.8-.47-1.76-1.45,.06-1.26,.73-2.23,1.75-2.96,.03-.02,.1,.02,.19,.03,.13,.41-.18,.67-.33,.99-.19,.38-.42,.74-.56,1.14-.11,.32-.1,.7,.22,.93,.34,.25,.71,.16,1.02-.08,.3-.22,.56-.48,.84-.71,.08-.06,.2-.08,.38-.16Z"/><path class="cls-1" d="M106.05,67.06c.24,.4,.42,.7,.69,1.17,.23-.58,.39-1,.63-1.63,.27,.56,.46,.96,.67,1.4,.75-.36,.39-1.29,1.08-1.67,.32,.76,.41,1.5,.13,2.24-.18,.49-.65,.64-1.11,.3-.44-.32-.76-.32-1.2,.02-.49,.38-.81,.24-1.02-.35-.17-.47-.15-.83,.14-1.48Z"/><path class="cls-1" d="M64.41,86.11c.1-.91,.51-1.69,.24-2.5-.06-.03-.11-.06-.17-.06-.96-.06-1.24-.52-.84-1.39,.15-.32,.33-.6,.73-.63,.37-.02,.89,.3,1.04,.63,.46,.99,.13,2.97-.64,3.78-.05,.05-.15,.06-.37,.16Z"/><path class="cls-1" d="M51.52,59.11c.07,.33,.11,.67,.23,.98,.06,.15,.27,.34,.41,.34,.13,0,.28-.22,.39-.37,.1-.15,.15-.34,.24-.54,.43,.63,.39,1.21-.05,1.62-.41,.38-.73,.31-1.3-.23-.48,.13-.92,.31-1.37,.34-.2,.02-.46-.2-.62-.38-.52-.59-.48-1.42,.08-2.09,.33,.26,.27,.65,.35,.98,.05,.22,.23,.41,.34,.62,.21-.13,.46-.21,.6-.39,.22-.27,.36-.61,.53-.92,.05,.01,.1,.03,.16,.05Z"/><path class="cls-1" d="M127.64,82.26c0-.23-.06-.48,0-.7,.24-.78-.08-1.33-.65-1.79-.13-.11-.28-.19-.42-.29-.44-.34-.46-.55-.13-1,.34-.45,.69-.55,1.09-.28,1.16,.76,1.52,2.76,.69,3.81-.1,.12-.25,.21-.38,.31l-.2-.06Z"/><path class="cls-1" d="M82.69,65.04c-.02-.26-.08-.53-.05-.79,.13-1.32-.14-2.54-.92-3.63-.07-.09-.13-.19-.18-.29-.14-.36,.06-.82,.45-.99,.35-.16,.54,.09,.68,.33,.15,.24,.27,.5,.35,.77,.38,1.25,.38,2.52,.17,3.79-.05,.28-.19,.55-.29,.83-.07,0-.14-.02-.21-.03Z"/><path class="cls-1" d="M39.94,62.53c.18-1,.51-1.81,.23-2.75-.28,.1-.51,.2-.74,.25-.15,.03-.41,.02-.46-.06-.08-.14-.11-.42-.03-.53,.26-.32,.55-.65,.9-.87,.41-.27,.78-.15,.99,.28,.14,.3,.22,.65,.23,.97,.01,.79-.42,1.83-1.13,2.71Z"/></g><path class="cls-3" d="M180.36,92.47c0,48.54-39.35,87.89-87.89,87.89S4.58,141.01,4.58,92.47,43.93,4.58,92.47,4.58s87.89,39.35,87.89,87.89Z"/></g></g></svg>