<?xml version="1.0" encoding="UTF-8"?><svg id="Capa_2" xmlns="http://www.w3.org/2000/svg" xmlns:xlink="http://www.w3.org/1999/xlink" viewBox="0 0 214.39 184.94"><defs><style>.cls-1,.cls-2{fill:none;}.cls-3{clip-path:url(#clippath);}.cls-4{fill:#fff;}.cls-5{fill:#ffd713;}.cls-6{fill:#009edb;}.cls-2{stroke:#77103d;stroke-miterlimit:10;stroke-width:9.17px;}</style><clipPath id="clippath"><path class="cls-1" d="M194.03,92.47c0,48.54-39.35,87.89-87.89,87.89S18.25,141.01,18.25,92.47,57.6,4.58,106.14,4.58s87.89,39.35,87.89,87.89Z"/></clipPath></defs><g id="Capa_1-2"><g><g class="cls-3"><g><rect class="cls-6" x="17.81" y="-15.3" width="178.77" height="214.39" transform="translate(199.09 -15.3) rotate(90)"/><rect class="cls-6" x="77.4" y="44.29" width="59.59" height="214.39" transform="translate(258.68 44.29) rotate(90)"/><rect class="cls-4" x="77.4" y="-15.3" width="59.59" height="214.39" transform="translate(199.09 -15.3) rotate(90)"/><polygon class="cls-5" points="119.93 95.37 132.77 92.99 119.96 90.45 130.91 83.34 118.11 85.91 125.51 75.15 114.66 82.41 117.37 69.64 110.13 80.51 107.75 67.67 105.22 80.48 98.11 69.53 100.67 82.33 89.91 74.93 97.18 85.78 84.41 83.07 95.27 90.31 82.43 92.69 95.25 95.22 84.29 102.33 97.1 99.77 89.7 110.53 100.55 103.26 97.83 116.03 105.08 105.17 107.45 118.01 109.98 105.19 117.1 116.15 114.53 103.34 125.29 110.74 118.02 99.89 130.8 102.61 119.93 95.37"/></g></g><path class="cls-2" d="M194.03,92.47c0,48.54-39.35,87.89-87.89,87.89S18.25,141.01,18.25,92.47,57.6,4.58,106.14,4.58s87.89,39.35,87.89,87.89Z"/></g></g></svg>