<?xml version="1.0" encoding="UTF-8"?><svg id="Capa_2" xmlns="http://www.w3.org/2000/svg" viewBox="0 0 29.46 29.46"><defs><style>.cls-1,.cls-2{fill:none;}.cls-3{fill:#fff;}.cls-4{fill:#e8475f;}.cls-5{fill:#096eb5;}.cls-2{stroke:#77113e;stroke-miterlimit:10;stroke-width:1.46px;}</style></defs><g id="Capa_1-2"><g><g><path class="cls-1" d="M17.1,.95c-.77-.13-1.56-.22-2.37-.22s-1.59,.08-2.35,.21h4.73Z"/><path class="cls-5" d="M24.75,6.91v5.84s-6.89,0-6.89,0l7.07,3.88v2.3s-3.87,0-3.87,0l-.04-.02-9.82-5.37v5.17s-1.02,0-1.02,0v.14h-3.31v-.15h-1.02s0-5.17,0-5.17L.82,16.27c.77,7.01,6.7,12.46,13.91,12.46,6.04,0,11.17-3.83,13.13-9.19l-.09-.09-.5,.51,.04-.75-.68-.11,.56-.43-.35-.64,.66,.21,.25-.7,.26,.69,.28-.1c.28-1.1,.44-2.24,.44-3.42,0-4.38-2.02-8.3-5.17-10.86l-5.57,3.04h6.76Zm-8.05,19.22l-1.09-1.08-1.07,1.1,.09-1.6-1.45-.23,1.2-.92-.74-1.38,1.41,.46,.53-1.5,.55,1.48,1.4-.48-.72,1.4,1.22,.89-1.45,.26,.12,1.6Z"/><path class="cls-5" d="M11.21,1.19V6.16S19.54,1.6,19.54,1.6c-.78-.29-1.6-.51-2.44-.65h-4.73c-.4,.06-.79,.15-1.17,.25Z"/><path class="cls-5" d="M5.86,3.9c-.54,.44-1.03,.93-1.49,1.44l1.49,.82V3.9Z"/><path class="cls-3" d="M17.99,6.91l5.57-3.04c-.06-.05-.12-.09-.18-.14l-5.82,3.18h.43Z"/><path class="cls-3" d="M5.85,13.29L.8,16.05c0,.08,.01,.15,.02,.22l5.03-2.74v-.24Z"/><path class="cls-3" d="M11.2,6.4L19.8,1.69c-.09-.03-.17-.06-.26-.1L11.2,6.16v.24Z"/><path class="cls-3" d="M11.2,6.9h5.92s6.07-3.31,6.07-3.31c-.1-.08-.2-.15-.3-.23l-6.5,3.53h-2.4s7.77-4.26,7.77-4.26c-.54-.32-1.11-.6-1.69-.85L11.2,6.63v.27Z"/><path class="cls-3" d="M5.85,12.73H.89s0,0,0,0H3.1s-2.34,1.29-2.34,1.29c-.01,.23-.04,.47-.04,.7,0,.37,.03,.73,.05,1.09l5.07-2.76v-.32Z"/><path class="cls-3" d="M11.2,6.63L20.06,1.79c-.08-.04-.17-.06-.26-.09L11.2,6.4v.24Z"/><path class="cls-3" d="M5.85,13.05L.78,15.82c0,.08,0,.15,.01,.23l5.05-2.76v-.24Z"/><path class="cls-3" d="M17.55,6.91l5.82-3.18c-.06-.05-.12-.09-.18-.14l-6.07,3.31h.43Z"/><path class="cls-4" d="M16.38,6.9l6.5-3.53c-.36-.26-.74-.5-1.13-.73l-7.77,4.26h2.4Z"/><path class="cls-4" d="M.89,12.73c-.06,.42-.1,.85-.12,1.29l2.34-1.29H.89Z"/><polygon class="cls-3" points="24.75 8.09 24.75 11.7 15.94 11.69 17.86 12.75 24.74 12.75 24.75 6.91 17.99 6.91 15.84 8.08 24.75 8.09"/><path class="cls-3" d="M1.07,11.68s0,.02,0,.03l.05-.03h-.05Z"/><polygon class="cls-3" points="15.84 8.08 17.99 6.91 17.55 6.91 15.41 8.08 15.84 8.08"/><path class="cls-3" d="M1.12,11.68l-.05,.03c-.02,.09-.04,.18-.06,.27l.55-.3h-.43Z"/><polygon class="cls-3" points="14.98 8.08 17.12 6.91 11.2 6.9 11.2 8.07 14.98 8.08"/><path class="cls-3" d="M5.85,11.68H1.98s-1.02,.55-1.02,.55c-.03,.16-.05,.33-.08,.49H5.85s0-1.05,0-1.05Z"/><path class="cls-3" d="M1.55,11.68l-.55,.3c-.02,.08-.02,.17-.04,.26l1.02-.56h-.43Z"/><polygon class="cls-3" points="15.41 8.08 17.55 6.91 17.12 6.91 14.98 8.08 15.41 8.08"/><path class="cls-3" d="M11.2,6.16V1.19c-.34,.09-.68,.19-1.01,.3V6.72s1.01-.56,1.01-.56Z"/><path class="cls-3" d="M6.87,6.72V3.14c-.35,.24-.69,.49-1.02,.76v2.26s1.02,.56,1.02,.56Z"/><polygon class="cls-3" points="10.17 18.7 11.19 18.7 11.2 13.53 10.18 12.97 10.17 18.7"/><polygon class="cls-3" points="5.85 13.53 5.85 18.7 6.86 18.7 6.87 12.97 5.85 13.53"/><polygon class="cls-3" points="6.87 12.73 5.85 13.29 5.85 13.53 6.87 12.97 6.87 12.73"/><polygon class="cls-3" points="10.19 6.9 10.29 6.9 11.2 6.4 11.2 6.16 10.19 6.72 10.19 6.9"/><polygon class="cls-3" points="5.85 12.73 5.85 13.05 6.44 12.73 5.85 12.73"/><polygon class="cls-3" points="11.2 6.9 11.2 6.63 10.72 6.9 11.2 6.9"/><polygon class="cls-3" points="6.87 12.73 6.44 12.73 5.85 13.05 5.85 13.29 6.87 12.73 6.87 12.73"/><polygon class="cls-3" points="10.72 6.9 11.2 6.63 11.2 6.4 10.29 6.9 10.72 6.9"/><polygon class="cls-3" points="10.29 6.9 10.19 6.9 10.19 6.95 10.29 6.9"/><polygon class="cls-3" points="10.19 7.19 10.18 8.07 11.2 8.07 11.2 6.9 10.72 6.9 10.19 7.19"/><polygon class="cls-3" points="6.87 12.5 6.87 11.68 5.85 11.68 5.85 12.73 6.44 12.73 6.87 12.5"/><polygon class="cls-3" points="10.19 7.19 10.72 6.9 10.29 6.9 10.19 6.95 10.19 7.19"/><polygon class="cls-3" points="6.44 12.73 6.87 12.73 6.87 12.5 6.44 12.73"/><path class="cls-3" d="M5.86,6.16l-1.49-.82c-.05,.05-.1,.1-.14,.16l1.63,.9v-.24Z"/><polygon class="cls-3" points="24.74 16.76 24.74 18.72 21.11 18.71 11.2 13.29 11.2 13.53 21.02 18.9 21.06 18.93 24.93 18.93 24.93 16.63 17.86 12.75 17.43 12.75 24.74 16.76"/><polygon class="cls-3" points="15.51 11.69 17.43 12.75 17.86 12.75 15.94 11.69 15.51 11.69"/><polygon class="cls-3" points="10.18 12.74 10.18 12.74 10.18 12.97 11.2 13.53 11.2 13.29 10.18 12.74"/><polygon class="cls-3" points="6.87 6.9 6.87 6.72 5.86 6.16 5.86 6.4 6.77 6.9 6.87 6.9"/><polygon class="cls-3" points="6.87 6.9 6.77 6.9 6.87 6.95 6.87 6.9"/><polygon class="cls-3" points="10.18 12.74 10.18 12.74 10.18 12.74 10.18 12.74"/><polygon class="cls-3" points="11.2 12.74 11.2 13.06 21.15 18.5 24.36 18.51 13.95 12.74 11.2 12.74"/><polygon class="cls-3" points="24.55 17.31 24.55 16.89 17 12.74 16.31 12.74 24.55 17.31"/><path class="cls-3" d="M5.86,6.63l-1.78-.98c-.34,.4-.66,.8-.95,1.23h2.73s0-.26,0-.26Z"/><polygon class="cls-3" points="11.2 12.74 13.95 12.74 13.95 12.74 16.31 12.74 16.31 12.74 17 12.74 15.08 11.69 11.2 11.69 11.2 12.74"/><path class="cls-3" d="M5.86,6.89H3.13c-.26,.37-.49,.76-.71,1.17h3.44s0-1.17,0-1.17Z"/><polygon class="cls-3" points="5.86 6.63 5.86 6.89 6.34 6.89 5.86 6.63"/><polygon class="cls-3" points="10.62 12.74 11.2 13.06 11.2 12.74 10.62 12.74"/><polygon class="cls-3" points="6.87 7.19 6.34 6.89 5.86 6.89 5.86 8.07 6.87 8.07 6.87 7.19"/><polygon class="cls-3" points="11.2 11.69 10.18 11.69 10.18 12.5 10.62 12.74 11.2 12.74 11.2 11.69"/><polygon class="cls-3" points="21.15 18.5 11.2 13.06 11.2 13.29 21.11 18.71 24.74 18.72 24.36 18.51 21.15 18.5"/><polygon class="cls-3" points="24.55 16.89 24.55 17.31 24.74 17.42 24.74 18.72 24.74 16.76 17.43 12.75 17 12.74 24.55 16.89"/><path class="cls-3" d="M5.86,6.4l-1.63-.9c-.05,.05-.1,.1-.14,.16l1.78,.98v-.24Z"/><polygon class="cls-3" points="17 12.74 17.43 12.75 15.51 11.69 15.08 11.69 17 12.74"/><polygon class="cls-3" points="6.77 6.9 5.86 6.4 5.86 6.63 6.34 6.89 6.77 6.9"/><polygon class="cls-3" points="10.62 12.74 10.18 12.74 11.2 13.29 11.2 13.06 10.62 12.74"/><polygon class="cls-3" points="10.18 12.5 10.18 12.74 10.18 12.74 10.62 12.74 10.18 12.5"/><polygon class="cls-3" points="6.77 6.9 6.34 6.89 6.87 7.19 6.87 6.95 6.77 6.9"/><path class="cls-4" d="M4.47,9.85l-2.3-1.26c-.48,.97-.85,2.01-1.09,3.09h.05l3.35-1.83Z"/><polygon class="cls-4" points="15.94 11.69 24.75 11.7 24.75 8.09 15.84 8.08 12.59 9.85 15.94 11.69"/><polygon class="cls-4" points="12.59 9.85 15.84 8.08 15.41 8.08 12.37 9.73 12.59 9.85"/><polygon class="cls-4" points="4.47 9.85 1.12 11.68 1.55 11.68 4.68 9.96 4.47 9.85"/><polygon class="cls-4" points="4.9 10.08 1.98 11.68 5.85 11.68 5.85 10.6 4.9 10.08"/><polygon class="cls-4" points="12.16 9.61 14.98 8.08 11.2 8.07 11.2 9.09 12.16 9.61"/><polygon class="cls-4" points="12.37 9.73 15.41 8.08 14.98 8.08 12.16 9.61 12.37 9.73"/><polygon class="cls-4" points="4.68 9.96 1.55 11.68 1.98 11.68 4.9 10.08 4.68 9.96"/><polygon class="cls-4" points="11.2 9.09 11.2 8.07 10.18 8.07 10.18 8.53 11.2 9.09"/><polygon class="cls-4" points="6.87 11.16 5.85 10.6 5.85 11.68 6.87 11.68 6.87 11.16"/><path class="cls-4" d="M4.68,9.73l-2.43-1.33c-.03,.06-.06,.12-.09,.19l2.3,1.26,.22-.12Z"/><polygon class="cls-4" points="12.37 9.97 15.51 11.69 15.94 11.69 12.59 9.85 12.37 9.97"/><polygon class="cls-4" points="12.37 9.97 12.59 9.85 12.37 9.73 12.15 9.85 12.37 9.97"/><polygon class="cls-4" points="4.9 9.85 4.68 9.73 4.47 9.85 4.68 9.96 4.9 9.85"/><polygon class="cls-4" points="11.94 9.73 12.16 9.61 11.2 9.09 11.2 9.33 11.94 9.73"/><polygon class="cls-4" points="5.12 9.96 4.9 10.08 5.85 10.6 5.85 10.37 5.12 9.96"/><polygon class="cls-4" points="12.15 9.85 12.37 9.73 12.16 9.61 11.94 9.73 12.15 9.85"/><polygon class="cls-4" points="4.9 9.85 4.68 9.96 4.9 10.08 5.12 9.96 4.9 9.85"/><polygon class="cls-4" points="11.2 9.33 11.2 9.09 10.18 8.53 10.18 8.77 11.2 9.33"/><polygon class="cls-4" points="5.85 10.37 5.85 10.6 6.87 11.16 6.87 10.92 5.85 10.37"/><polygon class="cls-4" points="11.2 11.69 15.08 11.69 12.15 10.09 11.2 10.61 11.2 11.69"/><path class="cls-4" d="M5.85,9.09v-1.02s-3.44,0-3.44,0c-.03,.05-.05,.1-.07,.15l2.55,1.4,.96-.52Z"/><polygon class="cls-4" points="5.85 9.32 5.85 9.09 4.9 9.61 5.12 9.73 5.85 9.32"/><polygon class="cls-4" points="11.2 10.37 11.2 10.61 12.15 10.09 11.94 9.97 11.2 10.37"/><polygon class="cls-4" points="5.85 9.56 5.33 9.85 5.85 10.13 5.85 9.56"/><polygon class="cls-4" points="11.72 9.85 11.2 9.56 11.2 10.13 11.72 9.85"/><polygon class="cls-4" points="11.2 10.13 11.2 10.37 11.94 9.97 11.72 9.85 11.2 10.13"/><polygon class="cls-4" points="5.85 9.56 5.85 9.32 5.12 9.73 5.33 9.85 5.85 9.56"/><polygon class="cls-4" points="6.87 8.07 5.86 8.07 5.85 9.09 6.87 8.53 6.87 8.07"/><polygon class="cls-4" points="10.18 11.69 11.2 11.69 11.2 10.61 10.18 11.16 10.18 11.69"/><polygon class="cls-4" points="6.87 8.77 6.87 8.53 5.85 9.09 5.85 9.32 6.87 8.77"/><polygon class="cls-4" points="10.18 11.16 11.2 10.61 11.2 10.37 10.18 10.93 10.18 11.16"/><polygon class="cls-4" points="11.2 9.56 10.18 9.01 10.18 10.69 11.2 10.13 11.2 9.56"/><polygon class="cls-4" points="6.87 10.69 6.87 9 5.85 9.56 5.85 10.13 6.87 10.69"/><polygon class="cls-4" points="6.87 9 6.87 8.77 5.85 9.32 5.85 9.56 6.87 9"/><polygon class="cls-4" points="10.18 10.69 10.18 10.93 11.2 10.37 11.2 10.13 10.18 10.69"/><path class="cls-4" d="M4.9,9.61l-2.55-1.4c-.03,.06-.06,.13-.09,.19l2.43,1.33,.22-.12Z"/><polygon class="cls-4" points="12.15 10.09 15.08 11.69 15.51 11.69 12.37 9.97 12.15 10.09"/><polygon class="cls-4" points="11.94 9.97 12.15 10.09 12.37 9.97 12.15 9.85 11.94 9.97"/><polygon class="cls-4" points="5.12 9.73 4.9 9.61 4.68 9.73 4.9 9.85 5.12 9.73"/><polygon class="cls-4" points="5.33 9.85 5.12 9.96 5.85 10.37 5.85 10.13 5.33 9.85"/><polygon class="cls-4" points="11.72 9.85 11.94 9.73 11.2 9.33 11.2 9.56 11.72 9.85"/><polygon class="cls-4" points="5.33 9.85 5.12 9.73 4.9 9.85 5.12 9.96 5.33 9.85"/><polygon class="cls-4" points="11.94 9.97 12.15 9.85 11.94 9.73 11.72 9.85 11.94 9.97"/><polygon class="cls-4" points="11.2 9.56 11.2 9.33 10.18 8.77 10.18 9.01 11.2 9.56"/><polygon class="cls-4" points="5.85 10.13 5.85 10.37 6.87 10.92 6.87 10.69 5.85 10.13"/><polygon class="cls-4" points="6.86 18.84 10.17 18.84 10.17 18.7 6.86 18.7 6.86 18.84"/><path class="cls-4" d="M7.2,6.9h2.65s.33-.18,.33-.18V1.5c-1.18,.41-2.29,.95-3.31,1.64v3.58s.32,.18,.32,.18Z"/><polygon class="cls-4" points="9.75 12.74 7.3 12.73 6.87 12.97 6.86 18.7 10.17 18.7 10.18 12.97 9.75 12.74"/><polygon class="cls-4" points="10.19 6.72 9.86 6.9 10.19 6.9 10.19 6.72"/><polygon class="cls-4" points="6.87 12.73 6.87 12.97 7.3 12.73 6.87 12.73 6.87 12.73"/><polygon class="cls-4" points="6.87 12.73 6.87 12.73 6.87 12.73 6.87 12.73"/><polygon class="cls-4" points="9.86 6.9 7.2 6.9 8.53 7.62 9.86 6.9"/><polygon class="cls-4" points="7.3 12.73 9.75 12.74 8.53 12.07 7.3 12.73"/><polygon class="cls-4" points="8.31 11.95 6.87 12.73 7.3 12.73 8.53 12.07 8.31 11.95"/><polygon class="cls-4" points="8.74 7.74 10.19 6.95 10.19 6.9 9.86 6.9 8.53 7.62 8.74 7.74"/><polygon class="cls-4" points="7.83 11.68 6.87 11.68 6.87 12.5 8.09 11.83 7.83 11.68"/><polygon class="cls-4" points="9.34 8.07 10.18 8.07 10.19 7.19 8.96 7.86 9.34 8.07"/><polygon class="cls-4" points="8.31 11.95 8.09 11.83 6.87 12.5 6.87 12.73 6.87 12.73 8.31 11.95"/><polygon class="cls-4" points="8.74 7.74 8.96 7.86 10.19 7.19 10.19 6.95 8.74 7.74"/><polygon class="cls-4" points="7.2 6.9 6.87 6.72 6.87 6.9 7.2 6.9"/><polygon class="cls-4" points="10.18 12.97 10.18 12.74 9.75 12.74 10.18 12.97"/><polygon class="cls-4" points="6.87 6.95 8.31 7.74 8.53 7.62 7.2 6.9 6.87 6.9 6.87 6.95"/><polygon class="cls-4" points="8.74 11.95 8.53 12.07 9.75 12.74 10.18 12.74 10.18 12.74 8.74 11.95"/><polygon class="cls-4" points="8.31 11.95 8.53 12.07 8.74 11.95 8.53 11.83 8.31 11.95"/><polygon class="cls-4" points="8.74 7.74 8.53 7.62 8.31 7.74 8.53 7.86 8.74 7.74"/><polygon class="cls-4" points="8.91 8.07 9.34 8.07 8.96 7.86 8.74 7.98 8.91 8.07"/><polygon class="cls-4" points="8.26 11.68 7.83 11.68 8.09 11.83 8.31 11.71 8.26 11.68"/><polygon class="cls-4" points="8.74 7.98 8.96 7.86 8.74 7.74 8.53 7.86 8.74 7.98"/><polygon class="cls-4" points="8.31 11.71 8.09 11.83 8.31 11.95 8.53 11.83 8.31 11.71"/><polygon class="cls-4" points="8.1 7.86 6.87 7.19 6.87 8.07 7.72 8.07 8.1 7.86"/><polygon class="cls-4" points="9.23 11.69 8.96 11.83 10.18 12.5 10.18 11.69 9.23 11.69"/><polygon class="cls-4" points="8.1 7.86 7.72 8.07 8.15 8.07 8.31 7.98 8.1 7.86"/><polygon class="cls-4" points="8.74 11.71 8.96 11.83 9.23 11.69 8.79 11.68 8.74 11.71"/><polygon class="cls-4" points="8.69 11.68 8.74 11.71 8.79 11.68 8.69 11.68"/><polygon class="cls-4" points="8.15 8.07 8.47 8.07 8.31 7.98 8.15 8.07"/><polygon class="cls-4" points="8.31 7.74 6.87 6.95 6.87 7.19 8.1 7.86 8.31 7.74"/><polygon class="cls-4" points="8.74 11.95 10.18 12.74 10.18 12.5 8.96 11.83 8.74 11.95"/><polygon class="cls-4" points="8.74 11.71 8.53 11.83 8.74 11.95 8.96 11.83 8.74 11.71"/><polygon class="cls-4" points="8.31 7.98 8.53 7.86 8.31 7.74 8.1 7.86 8.31 7.98"/><polygon class="cls-4" points="8.91 8.07 8.74 7.98 8.58 8.07 8.91 8.07"/><polygon class="cls-4" points="8.36 11.68 8.26 11.68 8.31 11.71 8.36 11.68"/><polygon class="cls-4" points="8.74 7.98 8.53 7.86 8.31 7.98 8.47 8.07 8.58 8.07 8.74 7.98"/><polygon class="cls-4" points="8.36 11.68 8.31 11.71 8.53 11.83 8.74 11.71 8.69 11.68 8.36 11.68"/><polygon class="cls-4" points="6.87 11.16 6.87 11.68 7.83 11.68 6.87 11.16"/><polygon class="cls-4" points="10.18 8.53 10.18 8.07 9.34 8.07 10.18 8.53"/><polygon class="cls-4" points="10.18 8.77 10.18 8.53 9.34 8.07 8.91 8.07 10.18 8.77"/><polygon class="cls-4" points="8.26 11.68 6.87 10.92 6.87 11.16 7.83 11.68 8.26 11.68"/><polygon class="cls-4" points="9.23 11.69 10.18 11.69 10.18 11.16 9.23 11.69"/><polygon class="cls-4" points="6.87 8.07 6.87 8.53 7.72 8.07 6.87 8.07"/><polygon class="cls-4" points="10.18 10.93 8.79 11.68 9.23 11.69 10.18 11.16 10.18 10.93"/><polygon class="cls-4" points="7.72 8.07 6.87 8.53 6.87 8.77 8.15 8.07 7.72 8.07"/><polygon class="cls-4" points="8.53 11.59 10.18 10.69 10.18 9.01 8.53 8.1 6.87 9 6.87 10.69 8.53 11.59"/><polygon class="cls-4" points="8.53 8.1 8.47 8.07 8.15 8.07 6.87 8.77 6.87 9 8.53 8.1"/><polygon class="cls-4" points="8.79 11.68 10.18 10.93 10.18 10.69 8.53 11.59 8.69 11.68 8.79 11.68"/><polygon class="cls-4" points="8.53 11.59 6.87 10.69 6.87 10.92 8.26 11.68 8.36 11.68 8.53 11.59"/><polygon class="cls-4" points="10.18 8.77 8.91 8.07 8.58 8.07 8.53 8.1 10.18 9.01 10.18 8.77"/><polygon class="cls-4" points="8.47 8.07 8.53 8.1 8.58 8.07 8.47 8.07"/><polygon class="cls-4" points="8.53 11.59 8.36 11.68 8.69 11.68 8.53 11.59"/><polygon class="cls-4" points="13.95 12.74 24.36 18.51 24.55 18.51 24.55 17.31 16.31 12.74 13.95 12.74"/><rect class="cls-4" x="15.13" y="11.56" width="0" height="2.37" transform="translate(2.37 27.86) rotate(-89.93)"/><polygon class="cls-4" points="24.55 17.31 24.55 18.51 24.36 18.51 24.74 18.72 24.74 17.42 24.55 17.31"/><polygon class="cls-3" points="16.81 23.38 17.53 21.98 16.13 22.46 15.58 20.98 15.05 22.48 13.64 22.02 14.39 23.4 13.18 24.32 14.64 24.55 14.54 26.15 15.61 25.05 16.7 26.13 16.58 24.53 18.03 24.27 16.81 23.38"/><path class="cls-3" d="M27.76,17.56l-.25,.7-.66-.21,.35,.64-.56,.43,.68,.11-.04,.75,.5-.51,.09,.09c.17-.45,.31-.92,.43-1.39l-.28,.1-.26-.69Z"/></g><path class="cls-2" d="M28.73,14.73c0,7.73-6.27,14-14,14S.73,22.46,.73,14.73,7,.73,14.73,.73s14,6.27,14,14Z"/></g></g></svg>