<?xml version="1.0" encoding="UTF-8"?><svg id="Capa_2" xmlns="http://www.w3.org/2000/svg" viewBox="0 0 184.94 184.94"><defs><style>.cls-1{fill:#006db5;}.cls-2{fill:#fbbc00;}.cls-3{fill:#fff;}.cls-4{fill:#4f9b34;}.cls-5{fill:none;stroke:#77103d;stroke-miterlimit:10;stroke-width:9.17px;}</style></defs><g id="Capa_1-2"><g><path class="cls-4" d="M180.36,92.47c0,48.54-39.35,87.89-87.89,87.89S4.58,141.01,4.58,92.47,43.93,4.58,92.47,4.58s87.89,39.35,87.89,87.89Z"/><g><polygon class="cls-2" points="93.04 36.95 18.99 93.96 93.04 150.96 167.1 93.96 93.04 36.95"/><path class="cls-1" d="M124.64,93.96c-.19,41.32-63.01,41.32-63.19,0,.19-41.32,63.01-41.32,63.19,0Z"/><path class="cls-3" d="M64.1,81.31c-1.04,2.37-1.77,4.9-2.2,7.54,4.67-2.14,30.83-12.1,60.69,16.23,.85-2.25,1.45-4.61,1.76-7.07-25.77-22.74-49.57-19.81-60.25-16.7Z"/></g><path class="cls-5" d="M180.36,92.47c0,48.54-39.35,87.89-87.89,87.89S4.58,141.01,4.58,92.47,43.93,4.58,92.47,4.58s87.89,39.35,87.89,87.89Z"/></g></g></svg>