<?xml version="1.0" encoding="UTF-8"?><svg id="Capa_2" xmlns="http://www.w3.org/2000/svg" viewBox="0 0 29.46 29.46"><defs><style>.cls-1{fill:#fff;}.cls-2{fill:#e8495b;}.cls-3{fill:none;stroke:#77113e;stroke-miterlimit:10;stroke-width:1.46px;}</style></defs><g id="Capa_1-2"><g><g><path class="cls-2" d="M.73,14.73c0,6.03,3.82,11.15,9.16,13.12V1.61C4.55,3.58,.73,8.7,.73,14.73Z"/><path class="cls-2" d="M19.38,1.54V27.92c5.44-1.92,9.35-7.09,9.35-13.19S24.82,3.46,19.38,1.54Z"/><path class="cls-1" d="M14.73,.73c-1.7,0-3.33,.32-4.84,.88V27.85c1.51,.56,3.13,.88,4.84,.88s3.2-.29,4.65-.81V1.54c-1.46-.51-3.02-.81-4.65-.81Z"/></g><path class="cls-3" d="M14.73,.73c7.73,0,14,6.27,14,14s-6.27,14-14,14S.73,22.46,.73,14.73,7,.73,14.73,.73Z"/><path class="cls-2" d="M17.13,14.61c-.07-.03-.09-.08-.07-.15,.09-.28,.18-.56,.27-.84,0-.01,.01-.02,0-.03,0,0-.01,0-.02,0-.27,.06-.54,.11-.8,.17-.08,.02-.11,0-.14-.08-.05-.11-.1-.22-.14-.34,0,0,0-.02-.02-.03,0,0-.01,.01-.02,.02-.21,.23-.42,.45-.63,.68-.04,.05-.09,.06-.13,.03-.05-.02-.06-.07-.05-.13,.1-.54,.21-1.07,.31-1.61,0,0,0-.02,0-.03,0,0-.02,.01-.03,.02-.15,.09-.31,.18-.46,.27-.08,.04-.13,.03-.17-.05-.17-.32-.33-.65-.5-.97,0,0,0-.02-.02-.03,0,.01-.01,.02-.02,.03-.17,.33-.33,.65-.5,.97-.04,.08-.09,.09-.17,.05-.15-.09-.31-.18-.46-.27,0,0-.02-.01-.03-.01,0,0,0,.02,0,.02,.1,.54,.21,1.07,.31,1.61,0,.02,0,.04,0,.06-.01,.04-.04,.06-.08,.07-.04,.01-.08,0-.11-.04-.21-.22-.42-.45-.63-.67,0,0-.02-.02-.03-.03,0,.01-.01,.02-.01,.03-.05,.11-.1,.23-.14,.34-.03,.07-.07,.09-.14,.07-.23-.05-.46-.1-.69-.15-.05,0-.09-.02-.14-.03,0,.01,0,.03,.01,.04,.09,.28,.18,.56,.27,.84,.02,.07,0,.12-.07,.15-.03,.01-.06,.03-.09,.04-.08,.04-.15,.07-.23,.11,.01,.01,.02,.02,.03,.03,.48,.39,.96,.77,1.43,1.16,.06,.05,.07,.08,.04,.15-.05,.15-.11,.3-.16,.45t.02,.03c.19-.03,.39-.07,.58-.1,.24-.04,.48-.09,.73-.13,.11-.02,.19,.05,.18,.16,0,.08,0,.17-.01,.25-.01,.22-.02,.44-.04,.67,0,.14-.01,.29-.02,.43h.28c-.01-.23-.02-.45-.03-.68-.01-.22-.02-.44-.03-.67,0-.02,0-.04,0-.05,.02-.08,.1-.12,.19-.11,.43,.08,.86,.15,1.3,.23t.02-.03c-.06-.15-.11-.31-.17-.46-.01-.04-.01-.08,.01-.11,.01-.02,.03-.03,.05-.04,.47-.38,.94-.76,1.42-1.15,0,0,.02-.01,.03-.03-.11-.05-.21-.1-.31-.15Z"/></g></g></svg>