<?xml version="1.0" encoding="UTF-8"?><svg id="Capa_2" xmlns="http://www.w3.org/2000/svg" viewBox="0 0 184.94 184.94"><defs><style>.cls-1{fill:#006db5;}.cls-2{fill:#fff;}.cls-3{fill:#e8485b;}.cls-4{fill:#201f35;}.cls-5{fill:none;stroke:#77103d;stroke-miterlimit:10;stroke-width:9.17px;}</style></defs><g id="Capa_1-2"><g><circle class="cls-2" cx="92.47" cy="92.47" r="87.89"/><g><path class="cls-3" d="M68.9,81.3c1.13-2.54,2.72-4.76,4.65-6.74,4.01-4.12,8.88-6.63,14.56-7.48,12.79-1.91,24.89,6,28.32,18.34,1.64,5.92,1.2,11.71-1.3,17.33-.11,.25-.14,.56-.43,.71-.11-.25,.03-.47,.08-.69,.51-1.96,.61-3.93,.21-5.93-1.34-6.78-8.1-11.52-15.28-9.9-3.35,.76-5.92,2.65-7.88,5.46-2.8,4.01-6.67,5.93-11.58,5.6-3.97-.27-7.13-2.09-9.43-5.31-2.3-3.22-2.89-6.81-1.96-10.65,.06-.25,.23-.49,.04-.75Z"/><path class="cls-1" d="M68.9,81.3c.19,.26,.02,.5-.04,.75-.93,3.84-.34,7.42,1.96,10.65,2.3,3.22,5.46,5.04,9.43,5.31,4.9,.33,8.77-1.59,11.58-5.6,1.96-2.81,4.53-4.7,7.88-5.46,7.18-1.63,13.94,3.11,15.28,9.9,.4,2,.3,3.97-.21,5.93-.06,.23-.19,.45-.08,.69h0c-.19,0-.17,.16-.2,.27-.12,.39-.27,.76-.47,1.11-3.51,6.09-8.65,10.14-15.42,12-14.01,3.86-28.37-4.73-31.58-18.88-1.31-5.75-.67-11.33,1.86-16.67Z"/><path class="cls-4" d="M54.47,51.73c-6.2,6.19-12.32,12.3-18.37,18.34-1.5-1.5-3.04-3.04-4.62-4.62,.03-.07,.22-.19,.36-.34,5.82-5.83,11.65-11.65,17.48-17.47,.08-.09,.18-.16,.25-.26,.18-.23,.33-.18,.52,.01,.83,.84,1.66,1.68,2.5,2.51,.61,.61,1.24,1.21,1.87,1.83Z"/><path class="cls-4" d="M31.42,119.56c1.43-1.43,2.88-2.87,4.32-4.32,.19-.19,.33-.26,.52-.02,.06,.08,.13,.14,.2,.21,5.86,5.86,11.72,11.71,17.58,17.57,.13,.14,.26,.28,.35,.38-1.55,1.55-3.08,3.07-4.57,4.56-6.08-6.07-12.22-12.2-18.41-18.38Z"/><path class="cls-4" d="M145.13,71.97c-1.56,1.56-3.08,3.07-4.53,4.53-6.12-6.11-12.27-12.25-18.47-18.44,.77-.76,1.62-1.57,2.45-2.4,.63-.63,1.27-1.25,1.89-1.89,.17-.17,.3-.21,.47,0,.08,.09,.17,.17,.25,.26,5.84,5.84,11.69,11.68,17.53,17.52,.13,.14,.26,.28,.41,.43Z"/><path class="cls-4" d="M29.54,63.8c-1.44-1.44-2.86-2.88-4.3-4.3-.26-.25-.22-.39,.02-.63,1.32-1.3,2.63-2.62,3.94-3.93,4.55-4.54,9.1-9.09,13.65-13.63,.19-.19,.34-.41,.5-.48,1.56,1.56,3.09,3.08,4.59,4.58-6.1,6.09-12.23,12.21-18.4,18.39Z"/><path class="cls-4" d="M56.25,53.66c1.49,1.49,3.01,3,4.47,4.47-6.11,6.1-12.25,12.23-18.35,18.33-1.46-1.45-2.98-2.98-4.48-4.47,6.08-6.08,12.22-12.2,18.36-18.33Z"/><path class="cls-4" d="M157.94,59.23c-1.47,1.47-2.92,2.91-4.36,4.37-.21,.21-.35,.2-.53-.01-.09-.11-.2-.21-.31-.31-5.79-5.79-11.58-11.58-17.38-17.37-.1-.1-.2-.21-.31-.31-.16-.14-.18-.26-.02-.42,1.48-1.48,2.96-2.96,4.42-4.42,6.17,6.16,12.3,12.29,18.48,18.46Z"/><path class="cls-4" d="M123.95,126.7c.05-.22,.2-.32,.31-.43,2.21-2.21,4.42-4.42,6.63-6.63,.42-.41,.35-.49,.82-.01,1.31,1.31,2.62,2.62,3.93,3.93,.1,.1,.22,.19,.29,.47-.19,.15-.44,.33-.66,.55-2.12,2.1-4.22,4.22-6.33,6.32-.39,.38-.4,.38-.77,.01-1.41-1.41-2.83-2.82-4.22-4.21Z"/><path class="cls-4" d="M142.37,108.24c1.54,1.53,3.05,3.04,4.5,4.5-2.44,2.44-4.89,4.89-7.41,7.4-.42-.43-.92-.95-1.42-1.46-.93-.94-1.86-1.88-2.81-2.8-.21-.21-.25-.34-.01-.57,2.36-2.34,4.71-4.68,7.06-7.02,.02-.02,.04-.02,.09-.04Z"/><path class="cls-4" d="M144.23,132.13c1.4,1.4,2.86,2.86,4.33,4.32,.19,.19,.16,.32-.02,.47-.11,.09-.21,.2-.31,.31-2.11,2.11-4.22,4.21-6.33,6.33-.17,.17-.31,.37-.43,.51-1.59-1.59-3.12-3.12-4.6-4.59,2.41-2.4,4.85-4.84,7.35-7.34Z"/><path class="cls-4" d="M140.4,54.54c-1.5,1.5-3.03,3.03-4.52,4.51-2.41-2.4-4.85-4.84-7.25-7.24,1.48-1.48,3.01-3.01,4.52-4.51,2.39,2.39,4.84,4.83,7.25,7.24Z"/><path class="cls-4" d="M159.83,125.65c-2.4,2.39-4.76,4.73-7.1,7.08-.25,.25-.39,.23-.63-.01-1.42-1.44-2.85-2.86-4.27-4.28,.02-.25,.21-.34,.34-.47,2.19-2.2,4.38-4.39,6.58-6.58,.43-.43,.35-.52,.88,.01,1.26,1.26,2.52,2.52,3.77,3.77,.14,.14,.26,.28,.44,.47Z"/><path class="cls-4" d="M144.19,58.24c.08,.07,.17,.14,.25,.23,2.25,2.24,4.49,4.49,6.74,6.73,.4,.4,.43,.37,.02,.78-1.42,1.4-2.82,2.82-4.23,4.22-.25-.08-.37-.27-.52-.42-2.18-2.17-4.36-4.35-6.54-6.53-.47-.47-.45-.39-.02-.82,1.31-1.31,2.62-2.62,3.93-3.93,.1-.1,.18-.23,.35-.27Z"/><path class="cls-4" d="M49.74,115.91c-1.55,1.55-3.08,3.08-4.56,4.56-2.39-2.39-4.86-4.85-7.34-7.33,1.39-1.39,2.84-2.83,4.29-4.27,.17-.17,.29-.28,.53-.05,2.37,2.39,4.75,4.76,7.09,7.1Z"/><path class="cls-4" d="M48.02,139.77c-1.57,1.56-3.1,3.09-4.59,4.57-2.41-2.41-4.86-4.85-7.34-7.33,.06-.14,.26-.28,.43-.44,1.27-1.28,2.56-2.55,3.82-3.83,.24-.24,.38-.26,.63,0,2.34,2.35,4.69,4.69,7.04,7.04Z"/><path class="cls-4" d="M53.35,119.73c2.49,2.48,4.95,4.94,7.34,7.33-1.48,1.48-3.01,3-4.57,4.57-.75-.76-1.54-1.57-2.34-2.37-1.55-1.55-3.09-3.1-4.65-4.64-.22-.21-.34-.35-.06-.63,1.46-1.43,2.89-2.89,4.27-4.26Z"/><path class="cls-4" d="M32.26,133.34c-1.15-1.15-2.36-2.36-3.57-3.56-1.14-1.14-2.28-2.28-3.42-3.42-.17-.17-.38-.3-.1-.57,1.47-1.45,2.93-2.91,4.36-4.34,2.47,2.47,4.92,4.91,7.32,7.31-1.49,1.49-3.01,3-4.6,4.59Z"/><path class="cls-4" d="M148.88,114.67c1.38,1.38,2.82,2.83,4.27,4.27,.18,.18,.26,.3,.04,.53-2.39,2.37-4.77,4.75-7.11,7.09-1.55-1.54-3.07-3.07-4.55-4.54,2.4-2.4,4.85-4.84,7.35-7.34Z"/><path class="cls-4" d="M142.35,130.25c-.09,.1-.15,.18-.21,.25-2.27,2.27-4.53,4.53-6.8,6.8-.38,.38-.39,.38-.78,0-1.42-1.41-2.83-2.82-4.32-4.32,.3-.26,.59-.48,.85-.73,2.08-2.07,4.16-4.15,6.24-6.23,.38-.38,.39-.38,.77,0,1.42,1.41,2.83,2.82,4.25,4.24Z"/><path class="cls-4" d="M114.51,103.74c.03-.12,0-.28,.2-.28,.02,.15,.04,.31-.2,.28Z"/></g><circle class="cls-5" cx="92.47" cy="92.47" r="87.89"/></g></g></svg>