<?xml version="1.0" encoding="UTF-8"?><svg id="Capa_2" xmlns="http://www.w3.org/2000/svg" viewBox="0 0 29.6 29.6"><defs><style>.cls-1{fill:#fff;}.cls-2{fill:#e8495b;}.cls-3{fill:#201e35;}.cls-4{fill:#096eb5;}.cls-5{fill:none;stroke:#77113e;stroke-miterlimit:10;stroke-width:1.47px;}</style></defs><g id="Capa_1-2"><g><circle class="cls-1" cx="14.8" cy="14.8" r="14.07"/><g><path class="cls-2" d="M11.03,13.01c.18-.41,.44-.76,.74-1.08,.64-.66,1.42-1.06,2.33-1.2,2.05-.31,3.98,.96,4.53,2.94,.26,.95,.19,1.87-.21,2.77-.02,.04-.02,.09-.07,.11-.02-.04,0-.07,.01-.11,.08-.31,.1-.63,.03-.95-.22-1.09-1.3-1.84-2.45-1.58-.54,.12-.95,.42-1.26,.87-.45,.64-1.07,.95-1.85,.9-.63-.04-1.14-.34-1.51-.85-.37-.52-.46-1.09-.31-1.7,0-.04,.04-.08,0-.12Z"/><path class="cls-4" d="M11.03,13.01s0,.08,0,.12c-.15,.61-.05,1.19,.31,1.7,.37,.52,.87,.81,1.51,.85,.78,.05,1.4-.26,1.85-.9,.31-.45,.73-.75,1.26-.87,1.15-.26,2.23,.5,2.45,1.58,.06,.32,.05,.64-.03,.95,0,.04-.03,.07-.01,.11h0s-.03,.02-.03,.04c-.02,.06-.04,.12-.08,.18-.56,.98-1.39,1.62-2.47,1.92-2.24,.62-4.54-.76-5.06-3.02-.21-.92-.11-1.81,.3-2.67Z"/><path class="cls-3" d="M8.72,8.28c-.99,.99-1.97,1.97-2.94,2.94-.24-.24-.49-.49-.74-.74,0-.01,.03-.03,.06-.05,.93-.93,1.87-1.86,2.8-2.8,.01-.01,.03-.03,.04-.04,.03-.04,.05-.03,.08,0,.13,.13,.27,.27,.4,.4,.1,.1,.2,.19,.3,.29Z"/><path class="cls-3" d="M5.03,19.14c.23-.23,.46-.46,.69-.69,.03-.03,.05-.04,.08,0,0,.01,.02,.02,.03,.03,.94,.94,1.88,1.88,2.81,2.81,.02,.02,.04,.04,.06,.06-.25,.25-.49,.49-.73,.73-.97-.97-1.96-1.95-2.95-2.94Z"/><path class="cls-3" d="M23.23,11.52c-.25,.25-.49,.49-.73,.73-.98-.98-1.96-1.96-2.96-2.95,.12-.12,.26-.25,.39-.38,.1-.1,.2-.2,.3-.3,.03-.03,.05-.03,.08,0,.01,.01,.03,.03,.04,.04,.94,.93,1.87,1.87,2.81,2.8,.02,.02,.04,.04,.07,.07Z"/><path class="cls-3" d="M4.73,10.21c-.23-.23-.46-.46-.69-.69-.04-.04-.04-.06,0-.1,.21-.21,.42-.42,.63-.63,.73-.73,1.46-1.46,2.18-2.18,.03-.03,.05-.07,.08-.08,.25,.25,.49,.49,.73,.73-.98,.97-1.96,1.96-2.95,2.94Z"/><path class="cls-3" d="M9,8.59c.24,.24,.48,.48,.72,.72-.98,.98-1.96,1.96-2.94,2.93-.23-.23-.48-.48-.72-.72,.97-.97,1.96-1.95,2.94-2.93Z"/><path class="cls-3" d="M25.28,9.48c-.24,.24-.47,.47-.7,.7-.03,.03-.06,.03-.08,0-.01-.02-.03-.03-.05-.05-.93-.93-1.85-1.85-2.78-2.78-.02-.02-.03-.03-.05-.05-.02-.02-.03-.04,0-.07,.24-.24,.47-.47,.71-.71,.99,.99,1.97,1.97,2.96,2.96Z"/><path class="cls-3" d="M19.84,20.28s.03-.05,.05-.07c.35-.35,.71-.71,1.06-1.06,.07-.07,.06-.08,.13,0,.21,.21,.42,.42,.63,.63,.02,.02,.03,.03,.05,.08-.03,.02-.07,.05-.11,.09-.34,.34-.68,.67-1.01,1.01-.06,.06-.06,.06-.12,0-.23-.23-.45-.45-.68-.67Z"/><path class="cls-3" d="M22.79,17.33c.25,.25,.49,.49,.72,.72-.39,.39-.78,.78-1.19,1.18-.07-.07-.15-.15-.23-.23-.15-.15-.3-.3-.45-.45-.03-.03-.04-.06,0-.09,.38-.37,.75-.75,1.13-1.12,0,0,0,0,.01,0Z"/><path class="cls-3" d="M23.09,21.15c.22,.22,.46,.46,.69,.69,.03,.03,.03,.05,0,.08-.02,.01-.03,.03-.05,.05-.34,.34-.68,.67-1.01,1.01-.03,.03-.05,.06-.07,.08-.26-.25-.5-.5-.74-.73,.38-.38,.78-.77,1.18-1.17Z"/><path class="cls-3" d="M22.47,8.73c-.24,.24-.48,.48-.72,.72-.39-.38-.78-.78-1.16-1.16,.24-.24,.48-.48,.72-.72,.38,.38,.77,.77,1.16,1.16Z"/><path class="cls-3" d="M25.59,20.11c-.38,.38-.76,.76-1.14,1.13-.04,.04-.06,.04-.1,0-.23-.23-.46-.46-.68-.68,0-.04,.03-.05,.05-.08,.35-.35,.7-.7,1.05-1.05,.07-.07,.06-.08,.14,0,.2,.2,.4,.4,.6,.6,.02,.02,.04,.05,.07,.08Z"/><path class="cls-3" d="M23.08,9.32s.03,.02,.04,.04c.36,.36,.72,.72,1.08,1.08,.06,.06,.07,.06,0,.12-.23,.22-.45,.45-.68,.68-.04-.01-.06-.04-.08-.07-.35-.35-.7-.7-1.05-1.04-.07-.07-.07-.06,0-.13,.21-.21,.42-.42,.63-.63,.02-.02,.03-.04,.06-.04Z"/><path class="cls-3" d="M7.96,18.56c-.25,.25-.49,.49-.73,.73-.38-.38-.78-.78-1.18-1.17,.22-.22,.45-.45,.69-.68,.03-.03,.05-.05,.08,0,.38,.38,.76,.76,1.14,1.14Z"/><path class="cls-3" d="M7.69,22.37c-.25,.25-.5,.49-.73,.73-.39-.38-.78-.78-1.17-1.17,.01-.02,.04-.04,.07-.07,.2-.2,.41-.41,.61-.61,.04-.04,.06-.04,.1,0,.37,.38,.75,.75,1.13,1.13Z"/><path class="cls-3" d="M8.54,19.17c.4,.4,.79,.79,1.18,1.17-.24,.24-.48,.48-.73,.73-.12-.12-.25-.25-.37-.38-.25-.25-.49-.5-.74-.74-.03-.03-.05-.06,0-.1,.23-.23,.46-.46,.68-.68Z"/><path class="cls-3" d="M5.16,21.34c-.18-.18-.38-.38-.57-.57-.18-.18-.36-.37-.55-.55-.03-.03-.06-.05-.02-.09,.24-.23,.47-.47,.7-.7,.4,.4,.79,.79,1.17,1.17-.24,.24-.48,.48-.74,.73Z"/><path class="cls-3" d="M23.83,18.36c.22,.22,.45,.45,.68,.68,.03,.03,.04,.05,0,.08-.38,.38-.76,.76-1.14,1.14-.25-.25-.49-.49-.73-.73,.38-.38,.78-.77,1.18-1.18Z"/><path class="cls-3" d="M22.79,20.85s-.02,.03-.03,.04c-.36,.36-.73,.73-1.09,1.09-.06,.06-.06,.06-.12,0-.23-.23-.45-.45-.69-.69,.05-.04,.1-.08,.14-.12,.33-.33,.67-.66,1-1,.06-.06,.06-.06,.12,0,.23,.23,.45,.45,.68,.68Z"/><path class="cls-3" d="M18.33,16.61s0-.04,.03-.04c0,.02,0,.05-.03,.04Z"/></g><circle class="cls-5" cx="14.8" cy="14.8" r="14.07"/></g></g></svg>