<?xml version="1.0" encoding="UTF-8"?><svg id="Capa_2" xmlns="http://www.w3.org/2000/svg" viewBox="0 0 29.46 29.46"><defs><style>.cls-1{fill:#fff;}.cls-2{fill:#e8495b;}.cls-3{fill:#096eb5;}.cls-4{fill:none;stroke:#77113e;stroke-miterlimit:10;stroke-width:1.46px;}</style></defs><g id="Capa_1-2"><g><g><path class="cls-3" d="M14.73,.73C9.72,.73,5.34,3.37,2.86,7.33H26.6C24.13,3.37,19.74,.73,14.73,.73Z"/><path class="cls-3" d="M14.73,28.73c5.1,0,9.55-2.74,12-6.81H2.73c2.45,4.08,6.9,6.81,12,6.81Z"/><path class="cls-2" d="M.73,14.73c0,1.62,.29,3.18,.8,4.63H27.93c.51-1.45,.8-3,.8-4.63s-.32-3.33-.88-4.84H1.61c-.56,1.51-.88,3.13-.88,4.84Z"/><path class="cls-1" d="M2.86,7.33c-.5,.8-.92,1.66-1.25,2.56H27.85c-.33-.9-.75-1.76-1.25-2.56H2.86Z"/><path class="cls-1" d="M2.73,21.92H26.73c.48-.8,.88-1.64,1.19-2.53H1.54c.31,.89,.72,1.74,1.19,2.53Z"/><path class="cls-1" d="M1.54,19.38H27.92s0-.02,0-.03H1.53s0,.02,0,.03Z"/></g><path class="cls-4" d="M28.73,14.73c0,7.73-6.27,14-14,14S.73,22.46,.73,14.73,7,.73,14.73,.73s14,6.27,14,14Z"/></g></g></svg>