<?xml version="1.0" encoding="UTF-8"?><svg id="Capa_2" xmlns="http://www.w3.org/2000/svg" xmlns:xlink="http://www.w3.org/1999/xlink" viewBox="0 0 29.46 29.46"><defs><style>.cls-1,.cls-2{fill:none;}.cls-3{clip-path:url(#clippath);}.cls-4{fill:#fff;}.cls-5{fill:#e7415c;}.cls-6{fill:#096eb5;}.cls-2{stroke:#77113e;stroke-miterlimit:10;stroke-width:1.46px;}</style><clipPath id="clippath"><path class="cls-1" d="M14.77,21.98h0c-3.63,0-6.58-2.94-6.58-6.58v-6.63h13.15v6.63c0,3.63-2.94,6.58-6.58,6.58Z"/></clipPath></defs><g id="Capa_1-2"><g><g><g><path class="cls-4" d="M28.39,11.67C26.99,5.41,21.41,.73,14.73,.73S2.48,5.41,1.08,11.67c-.22,.99-.35,2.01-.35,3.06,0,2.14,.5,4.17,1.36,5.99,2.25,4.73,7.05,8.01,12.64,8.01s10.4-3.28,12.64-8.01c.86-1.82,1.36-3.84,1.36-5.99,0-1.05-.13-2.08-.35-3.06Z"/><path class="cls-5" d="M27.93,10.05c-1.59-4.49-5.41-7.92-10.13-8.97-.99-.22-2.01-.35-3.06-.35-2.14,0-4.17,.5-5.99,1.36C5.41,3.68,2.8,6.54,1.55,10.05H27.93Z"/><path class="cls-6" d="M27.86,19.6H1.61c1.28,3.43,3.86,6.22,7.14,7.78,1.82,.86,3.84,1.36,5.99,1.36,1.05,0,2.08-.13,3.06-.35,4.65-1.04,8.43-4.39,10.06-8.79Z"/></g><g><path class="cls-4" d="M14.77,21.98h0c-3.63,0-6.58-2.94-6.58-6.58v-4.49c0-1.18,.96-2.14,2.14-2.14h8.87c1.18,0,2.14,.96,2.14,2.14v4.49c0,3.63-2.94,6.58-6.58,6.58Z"/><g class="cls-3"><g><polygon class="cls-5" points="10.61 8.68 7.92 8.68 7.92 11.37 10.61 11.37 10.61 14.03 7.92 14.03 7.92 16.72 10.61 16.72 10.61 19.39 7.92 19.39 7.92 22.08 10.61 22.08 10.61 19.41 13.3 19.41 13.3 16.72 10.61 16.72 10.61 14.05 13.3 14.05 13.3 11.36 10.61 11.36 10.61 8.68"/><polygon class="cls-5" points="15.99 8.68 13.3 8.68 13.3 11.37 15.99 11.37 15.99 14.03 13.3 14.03 13.3 16.72 15.99 16.72 15.99 19.39 13.3 19.39 13.3 22.08 15.99 22.08 15.99 19.41 18.67 19.41 18.67 16.72 15.99 16.72 15.99 14.05 18.67 14.05 18.67 11.36 15.99 11.36 15.99 8.68"/><rect class="cls-5" x="18.68" y="8.68" width="2.69" height="2.69"/><rect class="cls-5" x="18.68" y="14.03" width="2.69" height="2.69"/><rect class="cls-5" x="18.68" y="19.39" width="2.69" height="2.69"/></g></g><path class="cls-4" d="M14.77,22.14c-3.71,0-6.73-3.02-6.73-6.73v-6.78h13.46v6.78c0,3.71-3.02,6.73-6.73,6.73Zm-6.42-13.2v6.47c0,3.54,2.88,6.42,6.42,6.42s6.42-2.88,6.42-6.42v-6.47H8.35Z"/></g></g><path class="cls-2" d="M28.39,11.67C26.99,5.41,21.41,.73,14.73,.73S2.48,5.41,1.08,11.67c-.22,.99-.35,2.01-.35,3.06,0,2.14,.5,4.17,1.36,5.99,2.25,4.73,7.05,8.01,12.64,8.01s10.4-3.28,12.64-8.01c.86-1.82,1.36-3.84,1.36-5.99,0-1.05-.13-2.08-.35-3.06Z"/></g></g></svg>