<?xml version="1.0" encoding="UTF-8"?><svg id="Capa_2" xmlns="http://www.w3.org/2000/svg" viewBox="0 0 29.46 29.46"><defs><style>.cls-1{fill:#fbbc04;}.cls-2{fill:#e8495b;}.cls-3{fill:none;stroke:#77113e;stroke-miterlimit:10;stroke-width:1.46px;}</style></defs><g id="Capa_1-2"><g><g><path class="cls-2" d="M14.73,.73C9.72,.73,5.33,3.38,2.86,7.34H26.6C24.13,3.38,19.74,.73,14.73,.73Z"/><path class="cls-2" d="M14.73,28.73c5.09,0,9.53-2.73,11.98-6.79H2.75c2.45,4.06,6.89,6.79,11.98,6.79Z"/><path class="cls-1" d="M.73,14.73c0,1.63,.29,3.2,.81,4.65H27.92c.51-1.46,.81-3.02,.81-4.65,0-2.72-.79-5.25-2.13-7.39H2.86C1.52,9.48,.73,12.01,.73,14.73Z"/><path class="cls-1" d="M2.75,21.94H26.71c.48-.8,.89-1.66,1.21-2.55H1.54c.32,.9,.72,1.75,1.21,2.55Z"/></g><path class="cls-3" d="M28.73,14.73c0,7.73-6.27,14-14,14S.73,22.46,.73,14.73,7,.73,14.73,.73s14,6.27,14,14Z"/></g></g></svg>