<?xml version="1.0" encoding="UTF-8"?><svg id="Capa_2" xmlns="http://www.w3.org/2000/svg" xmlns:xlink="http://www.w3.org/1999/xlink" viewBox="0 0 214.39 184.94"><defs><style>.cls-1,.cls-2{fill:none;}.cls-3{clip-path:url(#clippath);}.cls-4{fill:#fbbc00;}.cls-5{fill:#e8485b;}.cls-6{fill:#201f35;}.cls-7{fill:#4f9b34;}.cls-2{stroke:#77103d;stroke-miterlimit:10;stroke-width:9.17px;}</style><clipPath id="clippath"><path class="cls-1" d="M20.36,92.47C20.36,43.93,59.71,4.58,108.24,4.58s87.89,39.35,87.89,87.89-39.35,87.89-87.89,87.89S20.36,141.01,20.36,92.47Z"/></clipPath></defs><g id="Capa_1-2"><g><g class="cls-3"><g><rect class="cls-7" x="17.81" y="-14.15" width="178.77" height="214.39" transform="translate(14.15 200.24) rotate(-90)"/><rect class="cls-5" x="77.4" y="-73.74" width="59.59" height="214.39" transform="translate(73.74 140.65) rotate(-90)"/><rect class="cls-4" x="77.4" y="-14.15" width="59.59" height="214.39" transform="translate(14.15 200.24) rotate(-90)"/><polygon class="cls-6" points="112.29 87.48 106.92 72.18 101.64 87.5 85.43 87.88 98.38 97.64 93.72 113.17 107 103.87 120.33 113.1 115.6 97.59 128.49 87.77 112.29 87.48"/></g></g><path class="cls-2" d="M20.36,92.47C20.36,43.93,59.71,4.58,108.24,4.58s87.89,39.35,87.89,87.89-39.35,87.89-87.89,87.89S20.36,141.01,20.36,92.47Z"/></g></g></svg>