<?xml version="1.0" encoding="UTF-8"?><svg id="Capa_2" xmlns="http://www.w3.org/2000/svg" viewBox="0 0 142.41 142.18"><defs><style>.cls-1{fill:#87124a;}</style></defs><g id="Capa_1-2"><g><path class="cls-1" d="M1.98,142.18c-1.54-.93-1.99-2.27-1.98-4.07,.07-11.17,.1-22.33,0-33.5-.03-3.08,1.53-4.03,3.99-4.02,11.86,.05,23.72,.02,35.58,.02,.59,0,1.19,0,1.92,0,0-.69,0-1.24,0-1.78,0-9.96,0-19.92,0-29.89,0-2.89,1.03-3.92,3.95-3.92,17.19,0,34.38,0,51.57,0,2.9,0,3.92,1.05,3.92,3.95,0,13.9,0,27.8,0,41.7v1.78h1.76c11.82,0,23.63,.03,35.45-.03,1.82,0,3.23,.44,4.25,1.95v27.81H1.98ZM47.62,71.04v65.08h47.18V71.04H47.62Zm-6.24,65.08v-29.47H6.13v29.47H41.38Zm94.96,0v-17.51h-35.31v17.51h35.31Z"/><path class="cls-1" d="M97.91,21.51c-.29,.41-.75,1.39-1.49,2.04-3.4,3-6.85,5.96-10.36,8.83-1.06,.87-1.26,1.66-.91,2.94,1.23,4.49,2.35,9.02,3.5,13.54,.67,2.66-.81,4.68-3.19,4.3-.65-.1-1.29-.49-1.85-.87-3.76-2.53-7.52-5.06-11.23-7.67-.87-.61-1.45-.57-2.3,.03-3.83,2.68-7.69,5.31-11.58,7.9-2.15,1.43-4.7,.33-4.88-2.07-.04-.58,.11-1.19,.26-1.77,1.17-4.7,2.33-9.41,3.58-14.09,.22-.83,.03-1.27-.56-1.77-3.61-3.05-7.19-6.13-10.78-9.19-1.47-1.26-1.9-2.38-1.42-3.73,.47-1.33,1.59-1.94,3.44-2.04,4.67-.24,9.34-.52,14-.85,.37-.03,.87-.57,1.03-.98,1.71-4.53,3.36-9.09,5.04-13.64C68.81,.66,69.61,.03,71.15,0c1.6-.03,2.46,.64,3.12,2.41,1.67,4.55,3.35,9.1,5,13.66,.25,.68,.54,.99,1.35,1.03,4.76,.22,9.52,.52,14.28,.8,1.78,.1,3,1.32,3.01,3.61Zm-42.73,2c2.02,1.72,3.68,3.42,5.6,4.73,2.98,2.01,3.84,4.38,2.49,7.8-.87,2.21-1.21,4.63-1.86,7.24,2.61-1.77,4.95-3.35,7.28-4.94,2.1-1.43,2.95-1.44,5.02-.03,2.36,1.6,4.72,3.2,7.3,4.95-.85-3.35-1.6-6.44-2.41-9.51-.42-1.6-.08-2.87,1.25-3.94,1.8-1.45,3.53-3,5.28-4.51,.64-.55,1.26-1.12,2.07-1.83-3.17-.21-6.03-.41-8.89-.58-2.59-.15-3.11-.52-4.02-2.99-.98-2.67-1.95-5.33-3.05-8.32-.3,.73-.48,1.12-.63,1.53-.92,2.47-1.84,4.93-2.73,7.41-.55,1.52-1.53,2.3-3.19,2.37-3.05,.14-6.09,.38-9.52,.6Z"/><path class="cls-1" d="M68.19,94.85c-2.76-.86-3.73-3.17-2.25-4.99,1.28-1.56,6.29-1.65,7.51-.03,.46,.62,.76,1.52,.76,2.29,.06,7.64,.04,15.28,.03,22.92,0,2.05-1.27,3.45-3.03,3.45-1.75,0-3.01-1.4-3.02-3.45-.02-6.2,0-12.41,0-18.61,0-.5,0-1.01,0-1.58Z"/></g></g></svg>