<?xml version="1.0" encoding="UTF-8"?><svg id="Capa_2" xmlns="http://www.w3.org/2000/svg" xmlns:xlink="http://www.w3.org/1999/xlink" viewBox="0 0 51.86 51.86"><defs><style>.cls-1{fill:url(#linear-gradient);}.cls-2{fill:#fff;}</style><linearGradient id="linear-gradient" x1="0" y1="25.93" x2="51.86" y2="25.93" gradientUnits="userSpaceOnUse"><stop offset="0" stop-color="#a7125f"/><stop offset="1" stop-color="#7b1141"/></linearGradient></defs><g id="Capa_1-2"><g><circle class="cls-1" cx="25.93" cy="25.93" r="25.93"/><g><path class="cls-2" d="M25.93,12.55c4.36,0,4.88,.02,6.6,.1,1.59,.07,2.46,.34,3.03,.56,.76,.3,1.31,.65,1.88,1.22,.57,.57,.93,1.12,1.22,1.88,.22,.58,.49,1.44,.56,3.03,.08,1.72,.1,2.24,.1,6.6s-.02,4.88-.1,6.6c-.07,1.59-.34,2.46-.56,3.03-.3,.76-.65,1.31-1.22,1.88-.57,.57-1.12,.93-1.88,1.22-.58,.22-1.44,.49-3.03,.56-1.72,.08-2.24,.1-6.6,.1s-4.88-.02-6.6-.1c-1.59-.07-2.46-.34-3.03-.56-.76-.3-1.31-.65-1.88-1.22-.57-.57-.93-1.12-1.22-1.88-.22-.58-.49-1.44-.56-3.03-.08-1.72-.1-2.24-.1-6.6s.02-4.88,.1-6.6c.07-1.59,.34-2.46,.56-3.03,.3-.76,.65-1.31,1.22-1.88,.57-.57,1.12-.93,1.88-1.22,.58-.22,1.44-.49,3.03-.56,1.72-.08,2.24-.1,6.6-.1m0-2.94c-4.43,0-4.99,.02-6.73,.1-1.74,.08-2.92,.36-3.96,.76-1.07,.42-1.98,.98-2.89,1.88-.91,.91-1.47,1.82-1.88,2.89-.4,1.04-.68,2.23-.76,3.96-.08,1.74-.1,2.3-.1,6.73s.02,4.99,.1,6.73c.08,1.74,.36,2.92,.76,3.96,.42,1.07,.98,1.98,1.88,2.89,.91,.91,1.82,1.47,2.89,1.88,1.04,.4,2.23,.68,3.96,.76,1.74,.08,2.3,.1,6.73,.1s4.99-.02,6.73-.1c1.74-.08,2.92-.36,3.96-.76,1.07-.42,1.98-.98,2.89-1.88,.91-.91,1.47-1.82,1.88-2.89,.4-1.04,.68-2.23,.76-3.96,.08-1.74,.1-2.3,.1-6.73s-.02-4.99-.1-6.73c-.08-1.74-.36-2.92-.76-3.96-.42-1.07-.98-1.98-1.88-2.89-.91-.91-1.82-1.47-2.89-1.88-1.04-.4-2.23-.68-3.96-.76-1.74-.08-2.3-.1-6.73-.1h0Z"/><path class="cls-2" d="M25.93,17.55c-4.63,0-8.38,3.75-8.38,8.38s3.75,8.38,8.38,8.38,8.38-3.75,8.38-8.38-3.75-8.38-8.38-8.38Zm0,13.83c-3.01,0-5.44-2.44-5.44-5.44s2.44-5.44,5.44-5.44,5.44,2.44,5.44,5.44-2.44,5.44-5.44,5.44Z"/><circle class="cls-2" cx="34.65" cy="17.22" r="1.96"/></g></g></g></svg>