<?xml version="1.0" encoding="UTF-8"?><svg id="Capa_2" xmlns="http://www.w3.org/2000/svg" viewBox="0 0 1007.46 240.78"><defs><style>.cls-1{fill:#005aa6;}.cls-2{fill:#fff;}.cls-3{fill:#979797;}</style></defs><g id="Capa_1-2"><g><path class="cls-2" d="M999.04,76.21c-.53-1.33-1.46-2.68-2.5-3.82-.13-1.18-.37-2.36-.85-3.48-6.86-16.07-20.33-30.31-20.33-30.31-8.03-8.88-21.94-21.27-42.57-29.94-1.6-.67-3.42-.92-5.23-.83-1.22-1.02-2.62-1.83-4.19-2.32-11.81-3.66-24.02-5.51-36.28-5.51-59.5,0-109.37,43.05-118.71,101.08-.05,0-.09,0-.15,0-8.76,0-16.88,2.36-24.29,7.04-4.91-4.03-12.13-7.04-22.77-7.04-3.36,0-6.59,.42-9.61,1.25-2.13,.59-3.83,1.19-5.33,1.73-.24,.09-.49,.18-.73,.29-.21,.09-.47,.21-.77,.34-1.88-1.12-4.04-1.73-6.28-1.73h-25c-1.91-1.17-4.09-1.88-6.38-1.88h-3.62c-4.81,0-10.48,.81-16.18,3.45-1.81-1.02-3.87-1.57-6-1.57h-25.29c-4.36,0-8.24,2.31-10.41,5.84-.41-.32-.83-.67-1.24-.95-6.58-4.62-16.13-6.77-30.05-6.77-24.62,0-38.79,6.37-46.85,14.74-5.56-9.43-15.95-14.74-30.09-14.74-2.42,0-4.79,.19-7.11,.57l1.9-10.57c.64-3.56-.33-7.23-2.66-10.01-2.32-2.78-5.76-4.38-9.38-4.38h-27.69c-2.29,0-4.45,.65-6.3,1.76-2.38-6.17-8.43-11.51-20.05-11.51-3,0-5.61,.3-7.95,.92-2.51,.66-4.75,1.76-6.78,3.16-4.05-2.7-8.74-4.08-13.95-4.08-2.01,0-3.93,.27-5.81,.66-.48-1.55-1.24-3.03-2.31-4.3-2.32-2.75-5.74-4.34-9.34-4.34h-8.34c-5.27,0-9.85,3.36-11.54,8.2-.75,.11-1.49,.24-2.22,.43-.49-.06-.98-.09-1.48-.09h-7.54c-2.56,0-4.93,.83-6.92,2.2-3.5-1.8-7.38-2.76-11.63-2.76-3.48,0-6.73,.66-9.8,1.82-.48-1.21-1.1-2.36-1.96-3.38-2.32-2.78-5.76-4.39-9.39-4.39h-8.19c-4.93,0-9.25,2.94-11.17,7.27-2.61-.86-5.59-1.33-9.2-1.33-4.84,0-8.73,.7-11.9,1.83-1.95-1.14-4.19-1.83-6.44-1.83h-.64c-1.78,0-3.5,.22-5.14,.65-.49-.06-.98-.09-1.48-.09h-7.54c-2.56,0-4.93,.83-6.92,2.2-3.5-1.8-7.38-2.76-11.63-2.76-5.43,0-10.35,1.51-14.73,4.33-1.6-1.28-3.3-2.38-5.17-3.09-.48-1.49-1.24-2.89-2.27-4.11-2.32-2.78-5.76-4.39-9.39-4.39h-8.34c-5.21,0-9.75,3.28-11.48,8.03-2.15-.5-4.54-.77-7.3-.77-8.67,0-14.37,2.23-18.14,5.18,.05-2.92-.9-5.8-2.8-8.07-2.32-2.77-5.75-4.37-9.37-4.37h-9.41c-5.94,0-11.02,4.26-12.05,10.11l-3.85,21.86c-2.81-3.36-6.28-6.38-10.42-9.01-4.79-3.12-10.09-5.34-15.74-6.63-5.2-1.18-11.1-1.78-17.54-1.78-9.57,0-19.36,2.21-29.12,6.57-9.79,4.4-18.47,11.3-25.84,20.56-7.31,9.28-12.23,20.87-14.64,34.55l-.92,5.52c-.09,.55-.15,1.1-.16,1.66l-.18,6.22c0,7.26,1.28,14.24,4.01,21.19,2.81,6.45,6.73,11.99,11.79,16.59,9.92,8.75,23.39,13.19,40.05,13.19,2.62,0,5.29-.15,8.05-.47,2.55-.32,4.97-.68,7.27-1.18,5.28-1.2,9.79-2.73,13.72-4.62,7.85-3.71,14.56-8.75,20.16-14.87,2.85,4.99,6.5,8.57,9.85,11.05,8.73,6.42,19.54,9.67,32.13,9.67,4.36,0,8.38-.4,11.92-1.17,2.93-.64,5.31-1.23,7.5-1.87,1.93-.62,3.82-1.3,5.49-2,4.97-2.01,9.52-4.84,13.71-8.29,1.69,2.42,3.64,4.31,5.5,5.73,6.89,5.03,14.73,7.59,23.29,7.59,7.96,0,15.38-1.39,22.2-4.14,1.89,1.19,4.13,1.89,6.53,1.89h28.8c3.43,0,6.56-1.45,8.81-3.79,7.47,3.93,16.47,6.04,27.03,6.04s20.53-1.79,28.83-5.33l-2.22,12.46c-.64,3.56,.34,7.22,2.67,10,2.32,2.77,5.76,4.38,9.38,4.38h27.96c5.93,0,11-4.25,12.04-10.08l2.2-12.3c2.44,.56,5,.85,7.67,.85,10.26,0,19.62-3.04,27.87-9.03,.42,.85,.93,1.66,1.55,2.41,2.32,2.78,5.76,4.38,9.38,4.38h27.98c4.27,0,8.1-2.2,10.29-5.61,.28,.43,.58,.84,.91,1.23,2.32,2.78,5.76,4.38,9.38,4.38h27.93c3.47,0,6.61-1.48,8.86-3.86,6.35,3.98,13.33,6.11,20.89,6.11,7.94,0,15.37-1.4,22.23-4.16,1.9,1.21,4.15,1.91,6.57,1.91h28.77c.82,0,1.62-.1,2.4-.26,.77,.15,1.55,.26,2.35,.26h27.94c5.96,0,11.05-4.29,12.06-10.16l4.1-23.87c1.33-7.08,3.27-9.08,3.37-9.18,.31-.29,1.03-.91,2.65-1.24l-5.29,30.09c-.63,3.56,.35,7.22,2.68,9.98,2.33,2.77,5.76,4.37,9.37,4.37h27.72c3.83,0,7.31-1.78,9.57-4.61,.06,.08,.13,.16,.2,.25,2.32,2.77,5.75,4.37,9.37,4.37h27.94c3.8,0,7.25-1.75,9.51-4.53,.04,.06,.09,.12,.14,.17,2.33,2.76,5.75,4.36,9.37,4.36h27.93c3.14,0,6.03-1.22,8.21-3.21,1.64,.96,3.33,1.79,5.06,2.5,.52,1.76,1.43,3.42,2.73,4.84,22.78,24.82,55.13,39.05,88.77,39.05,66.38,0,120.38-54.01,120.38-120.39,0-15.26-2.83-30.12-8.42-44.18ZM282.83,112.9h1.01c-.2,.18-.42,.35-.61,.52-.14-.17-.26-.35-.4-.52Zm-84.16,4.91c-1.31-1.74-2.72-3.2-4.14-4.5,1.06,.16,2.14,.27,3.26,.27,2.08,0,4.09-.29,6.02-.82-1.97,1.59-3.69,3.28-5.14,5.05Zm200.03-25.97l-2.13-1.58c-.33-.4-.58-.82-.76-1.2l3.01,2.42c-.03,.12-.09,.23-.13,.36Zm37.46,18.39s-.05-.04-.07-.06c.03-.02,.06-.03,.09-.05l-.02,.1ZM57.01,139.69c1.11-5.99,2.99-10.76,5.72-14.52,1.98-2.7,3.51-2.93,4.91-2.93,.62,0,1.31,.16,2.06,.49,.07,.63,.13,1.62,.13,3.11,0,4.3,2.21,8.08,5.56,10.26-3.99,.99-7.29,3.94-8.65,7.96-2.79,8.26-5.85,8.26-7.68,8.26-1.29,0-2.06-.17-2.28-.17-.05,0-.07,0-.06,.03,0,0-.59-.95-.66-3.78l.94-8.7Z"/><g><path class="cls-1" d="M82.71,124.69c0-3.37-.26-5.96-.86-7.78-.57-1.82-1.68-3.41-3.29-4.74-3.38-2.19-6.82-3.3-10.28-3.3-5.99,0-10.92,2.66-14.78,7.93-3.88,5.34-6.53,11.96-7.97,19.99l-1.06,9.87c0,11.16,5.09,16.74,15.24,16.74,9.08,0,15.52-5.5,19.27-16.57h30.34c-2.12,7.64-5.64,14.47-10.49,20.54-4.85,6.05-11.05,10.91-18.53,14.44-3.2,1.54-6.94,2.78-11.21,3.76-1.86,.41-3.92,.7-6.1,.97-2.18,.25-4.34,.38-6.51,.38-13.6,0-24.26-3.34-31.95-10.13-3.65-3.33-6.53-7.4-8.68-12.31-1.98-5.07-2.98-10.5-2.98-16.29l.17-5.86,.93-5.52c2.05-11.66,6.11-21.3,12.18-29,6.07-7.62,13.15-13.33,21.25-16.98,8.12-3.63,16.13-5.5,24.1-5.5,5.59,0,10.53,.5,14.83,1.47,4.29,.97,8.2,2.63,11.78,4.95,6.14,3.91,10.17,8.67,12.03,14.27,.99,2.84,1.62,5.72,2,8.66l.57,10h-29.99Z"/><path class="cls-1" d="M157.61,130.8c-5.52,0-9.48,2.45-11.87,7.33-2.07,4.66-3.58,10.53-4.57,17.71,0,7.85,3.12,11.8,9.34,11.8,5.36,0,9.31-2.53,11.9-7.53,2.62-5.01,3.87-10.55,3.87-16.63,0-8.45-2.89-12.69-8.68-12.69m2.34-18.63c9.39,0,17.46,2.31,24.33,6.9,6.8,4.58,10.18,11.91,10.18,21.87l-.54,7.23c-1.31,8.59-4.35,15.77-9.14,21.58-4.77,5.8-10.38,9.99-16.8,12.58-1.5,.63-3.07,1.18-4.66,1.7-1.61,.46-3.74,.99-6.36,1.56-2.6,.57-5.76,.89-9.31,.89-9.98,0-18.26-2.42-24.89-7.29-6.58-4.87-9.89-12.01-9.89-21.53l.42-4.27,.38-3.59c2.41-12.52,7.92-21.89,16.51-28.22,8.61-6.29,18.52-9.42,29.74-9.42"/><path class="cls-1" d="M246.34,153.26c-2.21,.99-5.51,1.93-9.86,2.8l-4.97,1.09c-1.42,.38-3.04,.97-4.84,1.87-1.76,.92-2.94,2.82-3.47,5.76,0,3.33,2.5,5.29,7.49,5.87,4.35,0,8.04-1.74,10.99-5.33,2.42-2.95,3.96-6.97,4.66-12.05m-42.52-17.57c2.59-15.68,17.29-23.52,44.12-23.52,10.96,0,18.65,1.5,23,4.55,4.37,3.06,6.57,7.56,6.57,13.52,0,2.31-.26,5.18-.83,8.56l-5.97,34.28-.78,4.69c.19,1.98,1.22,3.7,2.91,5.21l-.26,1.25h-28.8v-7.58c-8.08,6.55-17.68,9.84-28.73,9.84-5.92,0-11.29-1.74-16.07-5.23-3.37-2.59-5.09-6.4-5.09-11.42v-1.68l.53-3.19c1.09-6.19,3.65-10.85,7.8-14.08,3.3-2.74,7.35-4.81,12.14-6.19l7.22-1.32,10.17-1.74c7.23-.78,11.81-1.7,13.64-2.53,2.95-1.25,4.45-3,4.45-5.22,0-3.35-2.72-4.97-8.16-4.97-5.73,0-9.4,2.27-10.99,6.78h-26.87Z"/><path class="cls-1" d="M327.16,134.1c0-4.55-2.55-6.83-7.65-6.83s-7.9,1.66-8.47,4.97c-.26,2.14,2.45,4.05,8.21,5.75,5.32,1.18,9.91,2.3,13.66,3.33,3.73,1.02,7,2.16,9.64,3.38,5.2,2.14,7.76,6.46,7.76,13.01,0,9.11-3.88,16.15-11.72,21.23-7.81,5.01-17.88,7.56-30.15,7.56-9.68,0-17.58-1.92-23.6-5.77-5.01-3.09-7.46-8.18-7.46-15.22v-3.08h26.33l-.17,1.6c0,4.59,2.94,6.94,8.72,6.94,2.13,0,4.26-.59,6.41-1.64,2.13-1.07,3.19-2.7,3.19-4.81,0-1.95-1.17-3.49-3.61-4.55l-12.95-3.24c-3.96-.78-7.22-1.74-9.89-2.86-2.6-1.09-4.98-2.5-7.15-4.2-3.02-2.5-4.52-6.1-4.52-10.7v-1.63l.24-1.86c.8-5.97,4.31-11.35,10.6-16.2,3.1-2.41,6.83-4.16,11.28-5.34,4.39-1.14,9.8-1.74,16.26-1.74,20.22,0,30.35,6.61,30.35,19.79v2.14h-25.31Z"/><path class="cls-3" d="M393.81,164.96c4.73,0,8.41-2.16,10.96-6.44,1.25-2.25,2.18-4.54,2.81-6.85,.63-2.32,.94-5.01,.94-7.93,0-7.32-3.06-10.98-9.24-10.98-8.06,0-13.14,7.04-15.08,21.11,0,7.43,3.24,11.09,9.61,11.09m-46.72,43.04l16.7-93.95h24.77l-1.77,10.39c2.96-4.15,6.73-7.28,11.31-9.27,4.59-2,8.98-3.01,13.19-3.01h4.12c1.16,.28,2.38,.47,3.54,.67,1.23,.18,2.85,.88,4.88,1.99,3.74,1.82,6.87,4.87,9.38,9.27,2.49,4.34,3.7,9.53,3.7,15.5,0,7.6-1.6,15.04-4.85,22.26-3.26,7.25-7.97,13.13-14.16,17.74-6.22,4.61-13.21,6.87-20.96,6.87-7.21,0-12.7-2.99-16.44-9.02l-5.47,30.54h-27.96Z"/><path class="cls-3" d="M453.03,87.78h27.69l-6.29,35.09c6.89-7.14,14.71-10.7,23.54-10.7,14.98,0,22.45,7.04,22.45,21.08,0,2.28-.26,5.01-.82,8.18l-7.34,42.8h-27.93l6.55-36.53,.26-5.05c0-5.69-2.68-8.56-7.89-8.56-7.11,0-11.54,4.62-13.23,13.86l-6.26,36.28h-27.98l17.25-96.45Z"/><path class="cls-3" d="M573.31,153.26c-2.21,.99-5.53,1.93-9.86,2.8l-4.97,1.09c-1.43,.38-3.02,.97-4.82,1.87-1.8,.92-2.96,2.82-3.49,5.76,0,3.33,2.5,5.29,7.53,5.87,4.38,0,8.01-1.74,10.92-5.33,2.46-2.95,3.99-6.97,4.69-12.05m-42.54-17.57c2.6-15.68,17.31-23.52,44.14-23.52,10.99,0,18.68,1.5,23.02,4.55,4.38,3.06,6.55,7.56,6.55,13.52,0,2.31-.29,5.18-.79,8.56l-6,34.28-.82,4.69c.28,1.98,1.29,3.7,2.96,5.21l-.27,1.25h-28.77v-7.58c-8.18,6.55-17.72,9.84-28.79,9.84-5.89,0-11.24-1.74-16.08-5.23-3.38-2.59-5.04-6.4-5.04-11.42v-1.68l.5-3.19c1.09-6.19,3.69-10.85,7.78-14.08,3.3-2.74,7.33-4.81,12.17-6.19l7.21-1.32,10.15-1.74c7.24-.78,11.8-1.7,13.67-2.53,2.93-1.25,4.42-3,4.42-5.22,0-3.35-2.73-4.97-8.18-4.97s-9.34,2.27-10.92,6.78h-26.92Z"/><path class="cls-3" d="M616.61,114.05h25.3l-2.43,14.3c5.8-10.78,13.98-16.18,24.6-16.18h3.62l-4.95,28.22c-2.13-.56-4.16-.82-6.03-.82-5.43,0-9.82,1.57-13.2,4.67-3.31,3.12-5.72,8.43-7.12,15.95l-4.13,24.04h-27.93l12.28-70.18Z"/><path class="cls-1" d="M988.3,79.59l-.33-.28c-20.91,48.63-97.92,39.22-97.92,39.22-11.36-76.14,21.31-98.26,30.31-102.48-10.32-3.2-21.28-4.97-32.66-4.97-55.8,0-101.71,42.2-107.53,96.49,3.7,.97,6.79,2.52,9.3,4.69,3.83,3.3,6.22,7.84,7.14,13.71,6.43-13.15,22.26-19.83,47.28-19.83,12.33,0,20.99,1.85,26.44,5.62,5.97,4.19,9.14,10.55,9.14,18.46,0,2.67-.31,5.86-.9,9.53l-6.56,37.71,.81,1.07c1.57,1.43,2.28,3.56,1.86,5.65l-.29,1.24c-.56,2.83-3.03,4.83-5.84,4.83h-28.79c-2.25,0-4.25-1.28-5.27-3.13-7.05,3.55-14.93,5.33-23.5,5.33-1.02,0-2.04-.04-3.04-.15,19.77,21.54,48.21,35.09,79.76,35.09,59.7,0,108.15-48.39,108.15-108.16,0-14.02-2.69-27.41-7.56-39.66"/><path class="cls-3" d="M896.76,111.17s60.83,8.08,88.32-38.59c-5.74-13.44-17.53-26.27-18.16-26.91-6.66-7.36-19.22-18.88-38.24-26.87l-.42,.21c-7.41,3.4-40.56,24.01-31.5,92.15"/><path class="cls-3" d="M673.53,114.05h25.55l-1.86,10.41c2.9-3.48,6.71-6.37,11.35-8.82,1.16-.64,1.95-1,2.4-1.2,1.09-.39,2.57-.93,4.48-1.46,1.92-.53,4.05-.81,6.35-.81,11.17,0,17.92,4.29,20.32,12.82,7.79-8.53,16.7-12.82,26.73-12.82,7.53,0,13.09,1.59,16.76,4.68,3.64,3.12,5.47,8.26,5.47,15.39,0,2.95-.27,6.26-.8,10.02l-7.34,41.98h-27.93l6.25-35.83c.56-2.85,.83-5.19,.83-6.95,0-2.67-.59-4.58-1.77-5.69-1.12-1.14-3.14-1.67-5.86-1.67s-5.15,.85-7.31,2.48c-2.18,1.6-3.86,5.57-5.02,11.83l-6.13,35.83h-27.94l6.41-36.53,.49-6.01c0-5.06-2.41-7.6-7.19-7.6-3.12,0-5.73,1.04-7.88,3.19-1.88,2.09-3.44,5.76-4.69,11.12l-6.28,35.83h-27.72l12.34-70.18Z"/><path class="cls-3" d="M842.31,153.26c-2.25,.99-5.54,1.93-9.93,2.8l-4.94,1.09c-1.42,.38-3.04,.97-4.82,1.87-1.77,.92-2.91,2.82-3.49,5.76,0,3.33,2.53,5.29,7.53,5.87,4.35,0,8.01-1.74,11.01-5.33,2.39-2.95,3.95-6.97,4.65-12.05m-42.56-17.57c2.62-15.68,17.32-23.52,44.14-23.52,11,0,18.63,1.5,22.98,4.55,4.41,3.06,6.59,7.56,6.59,13.52,0,2.31-.27,5.18-.79,8.56l-6.02,34.28-.8,4.69c.29,1.98,1.29,3.7,2.94,5.21l-.25,1.25h-28.78v-7.58c-8.13,6.55-17.71,9.84-28.77,9.84-5.87,0-11.24-1.74-16.06-5.23-3.4-2.59-5.08-6.4-5.08-11.42v-1.68l.55-3.19c1.04-6.19,3.66-10.85,7.74-14.08,3.31-2.74,7.36-4.81,12.18-6.19l7.25-1.32,10.14-1.74c7.24-.78,11.79-1.7,13.64-2.53,2.98-1.25,4.4-3,4.4-5.22,0-3.35-2.71-4.97-8.08-4.97-5.75,0-9.41,2.27-11.01,6.78h-26.9Z"/><g><path class="cls-3" d="M131.09,70.77h9.41l-3.87,22.06h12.92l-1.16,6.7h-22.38l5.07-28.76Z"/><path class="cls-3" d="M157.66,85.05c.77-4.68,5.16-7.02,13.16-7.02,3.27,0,5.56,.45,6.86,1.36,1.3,.91,1.95,2.25,1.95,4.04,0,.69-.08,1.54-.24,2.56l-1.79,10.23-.24,1.4c.08,.59,.37,1.1,.88,1.56l-.08,.36h-8.58v-2.27c-2.42,1.97-5.28,2.95-8.58,2.95-1.75,0-3.35-.52-4.79-1.56-1.01-.77-1.52-1.9-1.52-3.4v-.52l.16-.96c.32-1.84,1.09-3.24,2.32-4.2,.98-.83,2.19-1.44,3.63-1.84l2.15-.4,3.03-.52c2.15-.24,3.51-.49,4.07-.76,.88-.37,1.31-.89,1.31-1.56,0-.99-.81-1.48-2.43-1.48-1.7,0-2.79,.68-3.27,2.03h-8.02Zm12.68,5.27c-.66,.29-1.65,.57-2.95,.84l-1.48,.32c-.43,.11-.9,.29-1.44,.56-.53,.27-.88,.84-1.04,1.71,0,.98,.75,1.57,2.23,1.76,1.3,0,2.39-.53,3.27-1.6,.72-.88,1.18-2.07,1.4-3.59Z"/><path class="cls-3" d="M189.6,70.77h8.34l-1.8,9.97c1.09-.93,2.14-1.62,3.15-2.05,1.01-.44,2.17-.66,3.47-.66,2,0,3.7,.73,5.13,2.2,1.42,1.47,2.13,3.52,2.13,6.15,0,3.7-1.07,6.9-3.19,9.59-1.01,1.33-2.23,2.37-3.67,3.12-1.44,.75-3.02,1.12-4.75,1.12-2.98,0-4.91-1.21-5.78-3.63l-.64,2.95h-7.46l5.07-28.76Zm9.33,13.64c-1.49,0-2.53,.54-3.13,1.6-.6,1.07-1.08,2.59-1.45,4.56,0,2.4,.93,3.61,2.79,3.61,1.33,0,2.41-.64,3.23-1.92,.82-1.28,1.24-2.72,1.24-4.33,0-2.35-.89-3.52-2.67-3.52Z"/><path class="cls-3" d="M229.49,78.03c2.79,0,5.21,.69,7.24,2.06,2.04,1.37,3.05,3.55,3.05,6.53l-.16,2.16c-.4,2.56-1.31,4.7-2.73,6.43-1.42,1.73-3.09,2.98-5.01,3.76-.45,.19-.92,.35-1.4,.5-.48,.15-1.11,.31-1.89,.48-.79,.17-1.71,.26-2.77,.26-2.98,0-5.45-.73-7.42-2.18-1.97-1.45-2.95-3.59-2.95-6.41l.12-1.28,.12-1.08c.72-3.73,2.36-6.53,4.93-8.41,2.57-1.88,5.52-2.82,8.87-2.82Zm-.72,5.55c-1.65,0-2.83,.73-3.55,2.2-.61,1.39-1.06,3.15-1.35,5.29,0,2.35,.93,3.52,2.79,3.52,1.6,0,2.78-.75,3.55-2.24,.77-1.5,1.16-3.15,1.16-4.96,0-2.54-.87-3.8-2.59-3.8Z"/><path class="cls-3" d="M248.04,78.59h7.54l-.72,4.27c1.73-3.22,4.17-4.83,7.34-4.83h1.08l-1.48,8.42c-.64-.16-1.24-.24-1.79-.24-1.62,0-2.93,.47-3.93,1.4-1,.93-1.71,2.51-2.13,4.75l-1.24,7.18h-8.34l3.67-20.94Z"/><path class="cls-3" d="M268.02,85.05c.77-4.68,5.16-7.02,13.16-7.02,3.27,0,5.56,.45,6.86,1.36,1.3,.91,1.95,2.25,1.95,4.04,0,.69-.08,1.54-.24,2.56l-1.79,10.23-.24,1.4c.08,.59,.37,1.1,.88,1.56l-.08,.36h-8.58v-2.27c-2.42,1.97-5.28,2.95-8.58,2.95-1.75,0-3.35-.52-4.79-1.56-1.01-.77-1.52-1.9-1.52-3.4v-.52l.16-.96c.32-1.84,1.09-3.24,2.32-4.2,.98-.83,2.19-1.44,3.63-1.84l2.15-.4,3.03-.52c2.15-.24,3.51-.49,4.07-.76,.88-.37,1.31-.89,1.31-1.56,0-.99-.81-1.48-2.43-1.48-1.7,0-2.79,.68-3.27,2.03h-8.02Zm12.68,5.27c-.66,.29-1.65,.57-2.95,.84l-1.48,.32c-.43,.11-.9,.29-1.44,.56-.53,.27-.88,.84-1.04,1.71,0,.98,.75,1.57,2.23,1.76,1.3,0,2.39-.53,3.27-1.6,.72-.88,1.18-2.07,1.4-3.59Z"/><path class="cls-3" d="M297.24,78.58h3.16s1.16-6.5,1.16-6.5h8.19l-1.17,6.5h3.97s-.86,4.83-.86,4.83h-3.97s-1.4,7.78-1.4,7.78l-.16,1c0,.64,.25,1.05,.76,1.24,.43,.11,.89,.17,1.4,.18,.5,.01,1.01,.02,1.52,.02l-1,5.9h-1.92l-2.79,.16c-2.5,0-4.24-.27-5.23-.8-.98-.53-1.48-1.57-1.48-3.11,0-.48,.13-1.57,.4-3.27l1.56-9.09h-2.91s.78-4.83,.78-4.83Z"/><path class="cls-3" d="M330.88,78.03c2.79,0,5.21,.69,7.24,2.06,2.04,1.37,3.05,3.55,3.05,6.53l-.16,2.16c-.4,2.56-1.31,4.7-2.73,6.43-1.42,1.73-3.09,2.98-5.01,3.76-.45,.19-.92,.35-1.4,.5-.48,.15-1.11,.31-1.89,.48-.79,.17-1.71,.26-2.77,.26-2.98,0-5.45-.73-7.42-2.18-1.97-1.45-2.95-3.59-2.95-6.41l.12-1.28,.12-1.08c.72-3.73,2.36-6.53,4.93-8.41,2.57-1.88,5.52-2.82,8.87-2.82Zm-.72,5.55c-1.65,0-2.83,.73-3.55,2.2-.61,1.39-1.06,3.15-1.35,5.29,0,2.35,.93,3.52,2.79,3.52,1.6,0,2.78-.75,3.55-2.24,.77-1.5,1.16-3.15,1.16-4.96,0-2.54-.86-3.8-2.59-3.8Z"/><path class="cls-3" d="M349.43,78.59h7.54l-.72,4.27c1.73-3.22,4.17-4.83,7.34-4.83h1.08l-1.48,8.42c-.64-.16-1.24-.24-1.79-.24-1.62,0-2.93,.47-3.93,1.4-1,.93-1.71,2.51-2.13,4.75l-1.24,7.18h-8.34l3.67-20.94Z"/><path class="cls-3" d="M370.73,78.63h8.34l-3.71,20.9h-8.26l3.63-20.9Zm1.47-8.58h8.34l-1,5.9h-8.34l1-5.9Z"/><path class="cls-3" d="M398.01,78.03c2.79,0,5.21,.69,7.24,2.06,2.04,1.37,3.05,3.55,3.05,6.53l-.16,2.16c-.4,2.56-1.31,4.7-2.73,6.43-1.42,1.73-3.09,2.98-5.01,3.76-.45,.19-.92,.35-1.4,.5-.48,.15-1.11,.31-1.89,.48-.79,.17-1.71,.26-2.77,.26-2.98,0-5.45-.73-7.42-2.18-1.97-1.45-2.95-3.59-2.95-6.41l.12-1.28,.12-1.08c.72-3.73,2.36-6.53,4.93-8.41,2.57-1.88,5.52-2.82,8.87-2.82Zm-.72,5.55c-1.65,0-2.83,.73-3.55,2.2-.61,1.39-1.06,3.15-1.35,5.29,0,2.35,.93,3.52,2.79,3.52,1.6,0,2.78-.75,3.55-2.24,.77-1.5,1.16-3.15,1.16-4.96,0-2.54-.87-3.8-2.59-3.8Z"/><path class="cls-3" d="M428.21,84.57c0-1.36-.76-2.03-2.27-2.03s-2.35,.49-2.51,1.48c-.08,.64,.73,1.21,2.43,1.72,1.59,.35,2.95,.67,4.07,.98,1.12,.31,2.08,.65,2.87,1.02,1.54,.64,2.32,1.93,2.32,3.88,0,2.72-1.17,4.83-3.51,6.34-2.33,1.51-5.34,2.26-9,2.26-2.9,0-5.24-.57-7.05-1.72-1.49-.93-2.23-2.45-2.23-4.55v-.92h7.86l-.04,.48c0,1.38,.86,2.07,2.59,2.07,.64,0,1.28-.16,1.91-.48,.64-.32,.96-.8,.96-1.44,0-.59-.36-1.04-1.08-1.36l-3.87-.96c-1.17-.24-2.15-.53-2.93-.86-.78-.33-1.5-.75-2.13-1.26-.91-.75-1.36-1.81-1.36-3.2v-.48l.08-.56c.24-1.78,1.29-3.4,3.15-4.84,.93-.72,2.06-1.25,3.37-1.6,1.32-.35,2.93-.52,4.85-.52,6.04,0,9.06,1.97,9.06,5.9v.64h-7.54Z"/></g></g></g></g></svg>