<?xml version="1.0" encoding="UTF-8"?><svg id="Capa_2" xmlns="http://www.w3.org/2000/svg" viewBox="0 0 98.68 118.27"><defs><style>.cls-1{fill:#87124a;}</style></defs><g id="Capa_1-2"><g><path class="cls-1" d="M69.67,0c.53,.45,1.09,.86,1.57,1.35,8.69,8.68,17.36,17.37,26.07,26.03,.94,.94,1.37,1.93,1.37,3.26-.02,24.25-.02,48.5-.02,72.76,0,2.54-.56,3.09-3.14,3.09-2.85,0-5.7,0-8.73,0,0,.46,0,.86,0,1.26,0,2.73,.01,5.47,0,8.2-.01,1.62-.72,2.33-2.32,2.33-27.38,0-54.75,0-82.13,0-1.49,0-2.19-.65-2.32-2.12-.04-.38-.02-.77-.02-1.15,0-34.61,0-69.21,0-103.82,0-.38-.02-.77,.02-1.15,.13-1.46,.84-2.14,2.32-2.15,3.12-.02,6.23,0,9.54,0,0-1.69,.05-3.33-.02-4.96C11.81,1.71,12.06,.72,13.06,0,31.93,0,50.8,0,69.67,0Zm24.9,102.42V31.6c-.53,0-.98,0-1.44,0-7.7,0-15.4,0-23.1,0-2.33,0-2.94-.61-2.94-2.93,0-7.78,0-15.55,0-23.33,0-.44,0-.89,0-1.31H15.89V102.42H94.56Zm-11.75,4.07h-1.47c-22.13,0-44.27,0-66.4,0-.42,0-.86,.04-1.27-.04-1.05-.2-1.74-.79-1.78-1.93-.02-.46-.02-.92-.02-1.39,0-29.91,0-59.81,0-89.72v-1.52H4.12V114.24H82.81v-7.76Zm8.46-78.99c-6.73-6.73-13.5-13.49-20.15-20.13V27.49h20.15Z"/><path class="cls-1" d="M61.23,53.28c-7.54,0-15.09,0-22.63,0-.5,0-1-.05-1.49-.13-1.03-.17-1.55-.9-1.58-1.85-.03-.97,.5-1.69,1.5-1.93,.37-.09,.76-.13,1.14-.13,15.32,0,30.63,0,45.95,0,1.74,0,2.66,.72,2.64,2.03,0,.97-.5,1.61-1.42,1.85-.51,.13-1.06,.16-1.6,.16-7.5,0-15.01,0-22.51,0Z"/><path class="cls-1" d="M61.14,65.11c-7.54,0-15.09,0-22.63,0-1.99,0-3.04-.74-2.99-2.08,.05-1.31,1.05-1.98,2.99-1.98,15.12,0,30.25,0,45.37,0,.46,0,.92,.05,1.37,.15,.99,.22,1.52,.86,1.52,1.88,0,1.03-.54,1.66-1.52,1.89-.44,.1-.91,.13-1.37,.13-7.58,0-15.16,0-22.74,0Z"/><path class="cls-1" d="M61.13,76.91c-7.58,0-15.16,0-22.74,0-.46,0-.93,0-1.37-.11-.97-.26-1.52-.98-1.47-1.95,.05-1,.62-1.73,1.71-1.86,.42-.05,.84-.07,1.27-.07,15.09,0,30.17,0,45.26,0,.42,0,.85,0,1.27,.07,1.05,.14,1.65,.75,1.73,1.82,.07,1.03-.58,1.85-1.62,2.05-.41,.08-.84,.06-1.26,.06-7.58,0-15.16,0-22.74,0Z"/><path class="cls-1" d="M61.12,41.4c-7.58,0-15.16,0-22.74,0-1.87,0-2.83-.65-2.86-1.93-.03-1.32,.98-2.03,2.9-2.03,15.24,0,30.48,0,45.72,0,1.76,0,2.65,.69,2.64,2.01,0,.99-.65,1.76-1.65,1.9-.45,.06-.92,.06-1.38,.06-7.54,0-15.08,0-22.63,0Z"/><path class="cls-1" d="M61.24,88.7c-7.81,0-15.62,0-23.44,0-1.71,0-2.79-1.34-2.07-2.68,.3-.55,1.04-.89,1.64-1.22,.27-.15,.68-.04,1.03-.04,15.16,0,30.33,0,45.49,0,2.03,0,2.89,.59,2.88,1.98,0,1.38-.87,1.96-2.9,1.96-7.54,0-15.09,0-22.63,0Z"/><path class="cls-1" d="M31.58,33.51c-1.89,0-3.77,.02-5.66,0-1.45-.02-2.21-.76-2.22-2.2-.02-3.77-.02-7.54,0-11.31,0-1.46,.73-2.22,2.19-2.23,3.81-.03,7.62-.03,11.43,0,1.37,.01,2.13,.66,2.15,2.03,.06,3.89,.06,7.77,0,11.66-.02,1.41-.81,2.05-2.24,2.06-1.89,.02-3.77,0-5.66,0Zm-3.88-4.03h7.74v-7.69h-7.74v7.69Z"/><path class="cls-1" d="M27.72,65.17c-.88-.07-1.69-.07-2.48-.21-1-.18-1.52-.9-1.52-1.89,0-.98,.52-1.78,1.54-1.85,1.59-.11,3.21-.11,4.8,0,.94,.07,1.45,.79,1.5,1.75,.05,1.01-.43,1.74-1.41,1.95-.81,.18-1.67,.17-2.43,.24Z"/><path class="cls-1" d="M27.74,49.24c.61,0,1.23-.05,1.84,0,1.22,.11,1.97,.89,1.98,1.98,0,1.09-.61,1.87-1.83,1.96-1.41,.1-2.84,.1-4.24-.02-1.14-.09-1.77-.89-1.79-1.9-.01-1.01,.73-1.86,1.85-2,.72-.09,1.46-.02,2.18-.02,0,0,0-.01,0-.02Z"/><path class="cls-1" d="M27.55,88.69c-.69,0-1.39,.04-2.07-.01-1-.08-1.77-.95-1.77-1.93,0-.98,.74-1.9,1.74-1.95,1.46-.06,2.92-.06,4.37,0,1.03,.04,1.74,.89,1.75,1.92,0,1.07-.74,1.88-1.83,1.98-.08,0-.15,0-.23,0-.65,0-1.31,0-1.96,0,0,0,0,0,0-.01Z"/><path class="cls-1" d="M27.6,76.9c-.65,0-1.31,.04-1.96,0-1.17-.1-1.97-.96-1.95-2.03,.02-1.06,.73-1.84,1.91-1.9,1.38-.07,2.76-.07,4.14,.01,1.13,.07,1.77,.81,1.8,1.86,.03,1.06-.67,1.87-1.77,2.05-.08,.01-.15,.02-.23,.02-.65,0-1.31,0-1.96,0,0,0,0,0,0,0Z"/><path class="cls-1" d="M27.57,41.37c-.65,0-1.31,.04-1.96,0-1.14-.08-1.89-.85-1.91-1.9-.02-.97,.7-1.92,1.72-1.98,1.49-.09,3-.09,4.48,0,1.03,.07,1.68,.99,1.65,2.01-.03,1.04-.71,1.77-1.81,1.85-.72,.06-1.46,.01-2.19,.01,0,0,0,0,0,0Z"/></g></g></svg>