<?xml version="1.0" encoding="UTF-8"?><svg id="Capa_2" xmlns="http://www.w3.org/2000/svg" xmlns:xlink="http://www.w3.org/1999/xlink" viewBox="0 0 302.93 302.93"><defs><style>.cls-1,.cls-2{fill:none;}.cls-3{clip-path:url(#clippath);}.cls-4{fill:#fff;}.cls-5{fill:#e8485b;}.cls-2{stroke:#77103d;stroke-miterlimit:10;stroke-width:9.17px;}</style><clipPath id="clippath"><path class="cls-1" d="M238.81,151.74c0,48.54-39.35,87.89-87.9,87.89s-87.89-39.35-87.89-87.89S102.37,63.85,150.91,63.85s87.9,39.35,87.9,87.89Z"/></clipPath></defs><g id="Capa_1-2"><g><path class="cls-4" d="M238.81,151.74c0,48.54-39.35,87.89-87.9,87.89s-87.89-39.35-87.89-87.89S102.37,63.85,150.91,63.85s87.9,39.35,87.9,87.89Z"/><g class="cls-3"><g><rect class="cls-5" x="136.32" width="30.29" height="302.93"/><rect class="cls-5" x="136.32" y="0" width="30.29" height="302.93" transform="translate(302.93 0) rotate(90)"/></g></g><path class="cls-2" d="M238.81,151.74c0,48.54-39.35,87.89-87.9,87.89s-87.89-39.35-87.89-87.89S102.37,63.85,150.91,63.85s87.9,39.35,87.9,87.89Z"/></g></g></svg>