<?xml version="1.0" encoding="UTF-8"?><svg id="Capa_2" xmlns="http://www.w3.org/2000/svg" viewBox="0 0 29.46 29.46"><defs><style>.cls-1,.cls-2{fill:none;}.cls-3{fill:#fff;}.cls-4{fill:#e8495b;}.cls-2{stroke:#77113e;stroke-miterlimit:10;stroke-width:1.46px;}</style></defs><g id="Capa_1-2"><g><path class="cls-3" d="M28.73,14.73c0,7.73-6.27,14-14,14S.73,22.46,.73,14.73,7,.73,14.73,.73s14,6.27,14,14Z"/><path class="cls-1" d="M28.73,14.73c0,7.73-6.27,14-14,14S.73,22.46,.73,14.73,7,.73,14.73,.73s14,6.27,14,14Z"/><g><path class="cls-4" d="M12.41,17.1v11.42c.76,.13,1.53,.21,2.32,.21,.85,0,1.69-.09,2.5-.24v-11.4h-4.83Z"/><path class="cls-4" d="M17.23,12.27V.97c-.81-.15-1.65-.24-2.5-.24-.79,0-1.57,.08-2.32,.21V12.27h4.83Z"/><path class="cls-4" d="M12.41,12.27H.96c-.14,.8-.23,1.62-.23,2.46s.08,1.6,.22,2.37H12.41v-4.83Z"/><path class="cls-4" d="M28.5,12.27h-11.27v4.83h11.28c.13-.77,.22-1.56,.22-2.37s-.09-1.66-.23-2.46Z"/><rect class="cls-4" x="12.41" y="12.27" width="4.83" height="4.83"/></g><path class="cls-2" d="M28.73,14.73c0,7.73-6.27,14-14,14S.73,22.46,.73,14.73,7,.73,14.73,.73s14,6.27,14,14Z"/></g></g></svg>