<?xml version="1.0" encoding="UTF-8"?><svg id="Capa_2" xmlns="http://www.w3.org/2000/svg" viewBox="0 0 184.94 184.94"><defs><style>.cls-1{fill:#e8485b;}.cls-2{fill:#4f9b34;}.cls-3{fill:none;stroke:#77103d;stroke-miterlimit:10;stroke-width:9.17px;}</style></defs><g id="Capa_1-2"><g><path class="cls-1" d="M180.36,92.47c0,48.54-39.35,87.89-87.89,87.89S4.58,141.01,4.58,92.47,43.93,4.58,92.47,4.58s87.89,39.35,87.89,87.89Z"/><path class="cls-3" d="M180.36,92.47c0,48.54-39.35,87.89-87.89,87.89S4.58,141.01,4.58,92.47,43.93,4.58,92.47,4.58s87.89,39.35,87.89,87.89Z"/><polygon class="cls-2" points="97.37 83.73 92.01 68.43 86.73 83.76 70.52 84.13 83.47 93.89 78.81 109.42 92.09 100.13 105.42 109.35 100.69 93.85 113.58 84.02 97.37 83.73"/></g></g></svg>