<?xml version="1.0" encoding="UTF-8"?><svg id="Capa_2" xmlns="http://www.w3.org/2000/svg" viewBox="0 0 184.94 184.94"><defs><style>.cls-1{fill:#fff;}.cls-2{fill:#e8485b;}.cls-3{fill:none;stroke:#77103d;stroke-miterlimit:10;stroke-width:9.17px;}</style></defs><g id="Capa_1-2"><g><path class="cls-2" d="M180.36,92.47c0,48.54-39.35,87.89-87.89,87.89S4.58,141.01,4.58,92.47,43.93,4.58,92.47,4.58s87.89,39.35,87.89,87.89Z"/><polygon class="cls-1" points="142.39 76.7 108.44 76.7 108.44 42.75 76.71 42.75 76.71 76.7 42.76 76.7 42.76 108.43 76.71 108.43 76.71 142.38 108.44 142.38 108.44 108.43 142.39 108.43 142.39 76.7"/><path class="cls-3" d="M180.36,92.47c0,48.54-39.35,87.89-87.89,87.89S4.58,141.01,4.58,92.47,43.93,4.58,92.47,4.58s87.89,39.35,87.89,87.89Z"/></g></g></svg>