<?xml version="1.0" encoding="UTF-8"?><svg id="Capa_2" xmlns="http://www.w3.org/2000/svg" xmlns:xlink="http://www.w3.org/1999/xlink" viewBox="0 0 807.38 148.55"><defs><style>.cls-1{letter-spacing:0em;}.cls-2{fill:#8c153a;font-family:Rubik-Regular, Rubik;font-size:17.21px;}.cls-3{fill:url(#linear-gradient);}.cls-4{letter-spacing:.02em;}.cls-5{letter-spacing:0em;}.cls-6{fill:#fff;}.cls-7{fill:none;stroke:url(#linear-gradient-4);stroke-miterlimit:10;stroke-width:4.28px;}.cls-8{letter-spacing:.02em;}.cls-9{fill:url(#linear-gradient-3);}.cls-10{fill:url(#linear-gradient-2);}.cls-11{letter-spacing:.03em;}.cls-12{letter-spacing:-.01em;}.cls-13{letter-spacing:.02em;}.cls-14{filter:url(#drop-shadow-1);font-family:BebasNeueBold, 'Bebas Neue';font-size:43.31px;}.cls-15{letter-spacing:0em;}.cls-16{letter-spacing:-.01em;}.cls-17{letter-spacing:-.02em;}</style><linearGradient id="linear-gradient" x1="391.53" y1="86.48" x2="443.39" y2="86.48" gradientUnits="userSpaceOnUse"><stop offset="0" stop-color="#a7125f"/><stop offset="1" stop-color="#7b1141"/></linearGradient><linearGradient id="linear-gradient-2" x1="537.87" x2="589.74" xlink:href="#linear-gradient"/><linearGradient id="linear-gradient-3" x1="236.62" x2="288.49" xlink:href="#linear-gradient"/><linearGradient id="linear-gradient-4" x1="0" y1="83.23" x2="807.38" y2="83.23" xlink:href="#linear-gradient"/><filter id="drop-shadow-1" filterUnits="userSpaceOnUse"><feOffset dx="2" dy="2"/><feGaussianBlur result="blur" stdDeviation="2"/><feFlood flood-color="#000" flood-opacity=".7"/><feComposite in2="blur" operator="in"/><feComposite in="SourceGraphic"/></filter></defs><g id="Capa_1-2"><g><circle class="cls-3" cx="417.46" cy="86.48" r="25.93"/><g><path class="cls-6" d="M417.46,73.1c4.36,0,4.88,.02,6.6,.1,1.59,.07,2.46,.34,3.03,.56,.76,.3,1.31,.65,1.88,1.22,.57,.57,.93,1.12,1.22,1.88,.22,.58,.49,1.44,.56,3.03,.08,1.72,.1,2.24,.1,6.6s-.02,4.88-.1,6.6c-.07,1.59-.34,2.46-.56,3.03-.3,.76-.65,1.31-1.22,1.88-.57,.57-1.12,.93-1.88,1.22-.58,.22-1.44,.49-3.03,.56-1.72,.08-2.24,.1-6.6,.1s-4.88-.02-6.6-.1c-1.59-.07-2.46-.34-3.03-.56-.76-.3-1.31-.65-1.88-1.22-.57-.57-.93-1.12-1.22-1.88-.22-.58-.49-1.44-.56-3.03-.08-1.72-.1-2.24-.1-6.6s.02-4.88,.1-6.6c.07-1.59,.34-2.46,.56-3.03,.3-.76,.65-1.31,1.22-1.88,.57-.57,1.12-.93,1.88-1.22,.58-.22,1.44-.49,3.03-.56,1.72-.08,2.24-.1,6.6-.1m0-2.94c-4.43,0-4.99,.02-6.73,.1-1.74,.08-2.92,.36-3.96,.76-1.07,.42-1.98,.98-2.89,1.88-.91,.91-1.47,1.82-1.88,2.89-.4,1.04-.68,2.23-.76,3.96-.08,1.74-.1,2.3-.1,6.73s.02,4.99,.1,6.73c.08,1.74,.36,2.92,.76,3.96,.42,1.07,.98,1.98,1.88,2.89,.91,.91,1.82,1.47,2.89,1.88,1.04,.4,2.23,.68,3.96,.76,1.74,.08,2.3,.1,6.73,.1s4.99-.02,6.73-.1c1.74-.08,2.92-.36,3.96-.76,1.07-.42,1.98-.98,2.89-1.88,.91-.91,1.47-1.82,1.88-2.89,.4-1.04,.68-2.23,.76-3.96,.08-1.74,.1-2.3,.1-6.73s-.02-4.99-.1-6.73c-.08-1.74-.36-2.92-.76-3.96-.42-1.07-.98-1.98-1.88-2.89-.91-.91-1.82-1.47-2.89-1.88-1.04-.4-2.23-.68-3.96-.76-1.74-.08-2.3-.1-6.73-.1h0Z"/><path class="cls-6" d="M417.46,78.1c-4.63,0-8.38,3.75-8.38,8.38s3.75,8.38,8.38,8.38,8.38-3.75,8.38-8.38-3.75-8.38-8.38-8.38Zm0,13.83c-3.01,0-5.44-2.44-5.44-5.44s2.44-5.44,5.44-5.44,5.44,2.44,5.44,5.44-2.44,5.44-5.44,5.44Z"/><circle class="cls-6" cx="426.18" cy="77.77" r="1.96"/></g></g><g><circle class="cls-10" cx="563.8" cy="86.48" r="25.93"/><g><path class="cls-6" d="M563.8,73.1c4.36,0,4.88,.02,6.6,.1,1.59,.07,2.46,.34,3.03,.56,.76,.3,1.31,.65,1.88,1.22,.57,.57,.93,1.12,1.22,1.88,.22,.58,.49,1.44,.56,3.03,.08,1.72,.1,2.24,.1,6.6s-.02,4.88-.1,6.6c-.07,1.59-.34,2.46-.56,3.03-.3,.76-.65,1.31-1.22,1.88-.57,.57-1.12,.93-1.88,1.22-.58,.22-1.44,.49-3.03,.56-1.72,.08-2.24,.1-6.6,.1s-4.88-.02-6.6-.1c-1.59-.07-2.46-.34-3.03-.56-.76-.3-1.31-.65-1.88-1.22-.57-.57-.93-1.12-1.22-1.88-.22-.58-.49-1.44-.56-3.03-.08-1.72-.1-2.24-.1-6.6s.02-4.88,.1-6.6c.07-1.59,.34-2.46,.56-3.03,.3-.76,.65-1.31,1.22-1.88,.57-.57,1.12-.93,1.88-1.22,.58-.22,1.44-.49,3.03-.56,1.72-.08,2.24-.1,6.6-.1m0-2.94c-4.43,0-4.99,.02-6.73,.1-1.74,.08-2.92,.36-3.96,.76-1.07,.42-1.98,.98-2.89,1.88-.91,.91-1.47,1.82-1.88,2.89-.4,1.04-.68,2.23-.76,3.96-.08,1.74-.1,2.3-.1,6.73s.02,4.99,.1,6.73c.08,1.74,.36,2.92,.76,3.96,.42,1.07,.98,1.98,1.88,2.89,.91,.91,1.82,1.47,2.89,1.88,1.04,.4,2.23,.68,3.96,.76,1.74,.08,2.3,.1,6.73,.1s4.99-.02,6.73-.1c1.74-.08,2.92-.36,3.96-.76,1.07-.42,1.98-.98,2.89-1.88,.91-.91,1.47-1.82,1.88-2.89,.4-1.04,.68-2.23,.76-3.96,.08-1.74,.1-2.3,.1-6.73s-.02-4.99-.1-6.73c-.08-1.74-.36-2.92-.76-3.96-.42-1.07-.98-1.98-1.88-2.89-.91-.91-1.82-1.47-2.89-1.88-1.04-.4-2.23-.68-3.96-.76-1.74-.08-2.3-.1-6.73-.1h0Z"/><path class="cls-6" d="M563.8,78.1c-4.63,0-8.38,3.75-8.38,8.38s3.75,8.38,8.38,8.38,8.38-3.75,8.38-8.38-3.75-8.38-8.38-8.38Zm0,13.83c-3.01,0-5.44-2.44-5.44-5.44s2.44-5.44,5.44-5.44,5.44,2.44,5.44,5.44-2.44,5.44-5.44,5.44Z"/><circle class="cls-6" cx="572.52" cy="77.77" r="1.96"/></g></g><text class="cls-2" transform="translate(356.96 134.14)"><tspan class="cls-11" x="0" y="0">C</tspan><tspan class="cls-8" x="12" y="0">O</tspan><tspan class="cls-4" x="23.87" y="0">A</tspan><tspan class="cls-11" x="35.95" y="0">SPHARM</tspan><tspan class="cls-1" x="109.56" y="0">A</tspan></text><text class="cls-2" transform="translate(526.24 134.14)"><tspan class="cls-11" x="0" y="0">DOLIC</tspan><tspan class="cls-5" x="51.8" y="0">O</tspan><tspan class="cls-13" x="63.4" y="0">X</tspan></text><g><circle class="cls-9" cx="262.55" cy="86.48" r="25.93"/><g><path class="cls-6" d="M262.55,73.1c4.36,0,4.88,.02,6.6,.1,1.59,.07,2.46,.34,3.03,.56,.76,.3,1.31,.65,1.88,1.22,.57,.57,.93,1.12,1.22,1.88,.22,.58,.49,1.44,.56,3.03,.08,1.72,.1,2.24,.1,6.6s-.02,4.88-.1,6.6c-.07,1.59-.34,2.46-.56,3.03-.3,.76-.65,1.31-1.22,1.88-.57,.57-1.12,.93-1.88,1.22-.58,.22-1.44,.49-3.03,.56-1.72,.08-2.24,.1-6.6,.1s-4.88-.02-6.6-.1c-1.59-.07-2.46-.34-3.03-.56-.76-.3-1.31-.65-1.88-1.22-.57-.57-.93-1.12-1.22-1.88-.22-.58-.49-1.44-.56-3.03-.08-1.72-.1-2.24-.1-6.6s.02-4.88,.1-6.6c.07-1.59,.34-2.46,.56-3.03,.3-.76,.65-1.31,1.22-1.88,.57-.57,1.12-.93,1.88-1.22,.58-.22,1.44-.49,3.03-.56,1.72-.08,2.24-.1,6.6-.1m0-2.94c-4.43,0-4.99,.02-6.73,.1-1.74,.08-2.92,.36-3.96,.76-1.07,.42-1.98,.98-2.89,1.88-.91,.91-1.47,1.82-1.88,2.89-.4,1.04-.68,2.23-.76,3.96-.08,1.74-.1,2.3-.1,6.73s.02,4.99,.1,6.73c.08,1.74,.36,2.92,.76,3.96,.42,1.07,.98,1.98,1.88,2.89,.91,.91,1.82,1.47,2.89,1.88,1.04,.4,2.23,.68,3.96,.76,1.74,.08,2.3,.1,6.73,.1s4.99-.02,6.73-.1c1.74-.08,2.92-.36,3.96-.76,1.07-.42,1.98-.98,2.89-1.88,.91-.91,1.47-1.82,1.88-2.89,.4-1.04,.68-2.23,.76-3.96,.08-1.74,.1-2.3,.1-6.73s-.02-4.99-.1-6.73c-.08-1.74-.36-2.92-.76-3.96-.42-1.07-.98-1.98-1.88-2.89-.91-.91-1.82-1.47-2.89-1.88-1.04-.4-2.23-.68-3.96-.76-1.74-.08-2.3-.1-6.73-.1h0Z"/><path class="cls-6" d="M262.55,78.1c-4.63,0-8.38,3.75-8.38,8.38s3.75,8.38,8.38,8.38,8.38-3.75,8.38-8.38-3.75-8.38-8.38-8.38Zm0,13.83c-3.01,0-5.44-2.44-5.44-5.44s2.44-5.44,5.44-5.44,5.44,2.44,5.44,5.44-2.44,5.44-5.44,5.44Z"/><circle class="cls-6" cx="271.27" cy="77.77" r="1.96"/></g></g><text class="cls-2" transform="translate(212.44 134.14)"><tspan class="cls-11" x="0" y="0">DERM</tspan><tspan class="cls-17" x="48.96" y="0">A</tspan><tspan class="cls-11" x="60.37" y="0">VIVE</tspan></text><path class="cls-7" d="M110.12,20.05H30.07c-15.42,0-27.92,12.5-27.92,27.92V118.48c0,15.42,12.5,27.92,27.92,27.92H777.31c15.42,0,27.92-12.5,27.92-27.92V47.98c0-15.42-12.5-27.92-27.92-27.92h-82.72"/><text class="cls-14" transform="translate(135.42 36.81)"><tspan class="cls-16" x="0" y="0">recuer</tspan><tspan class="cls-12" x="98.04" y="0">d</tspan><tspan class="cls-15" x="115.24" y="0">a seguirnos en nuestras redes</tspan></text></g></svg>