<?xml version="1.0" encoding="UTF-8"?><svg id="Capa_2" xmlns="http://www.w3.org/2000/svg" xmlns:xlink="http://www.w3.org/1999/xlink" viewBox="0 0 295.18 184.94"><defs><style>.cls-1,.cls-2{fill:none;}.cls-3{clip-path:url(#clippath);}.cls-4{fill:#006db5;}.cls-5{fill:#fff;}.cls-6{fill:#e8465f;}.cls-2{stroke:#77103d;stroke-miterlimit:10;stroke-width:9.17px;}</style><clipPath id="clippath"><path class="cls-1" d="M229.88,92.47c0,48.54-39.35,87.89-87.89,87.89S54.1,141.01,54.1,92.47,93.45,4.58,141.99,4.58s87.89,39.35,87.89,87.89Z"/></clipPath></defs><g id="Capa_1-2"><g><g class="cls-3"><g><rect class="cls-4" x=".97" y="5.93" width="294.16" height="175.14"/><g><g><path class="cls-5" d="M24.31,118.7H0s0-14.47,0-14.47l.67-.37L181.58,4.91h24.52s0,14.63,0,14.63L24.31,118.7Zm-21.88-2.67H23.74S203.66,17.89,203.66,17.89V7.57s-21.51,0-21.51,0L2.44,105.88v10.16Z"/><polygon class="cls-5" points="204.88 18.71 24.02 117.37 1.22 117.37 1.22 105.06 181.87 6.24 204.88 6.24 204.88 18.71"/><polygon class="cls-6" points="204.88 14.78 152.37 43.31 137.31 43.31 204.88 6.24 204.88 14.78"/><polygon class="cls-6" points="69 79.94 54.15 79.94 1.22 109.23 1.22 117.37 69 79.94"/></g><rect class="cls-5" x="84.72" y="-40.2" width="36.66" height="203.64" transform="translate(41.32 164.61) rotate(-89.94)"/><rect class="cls-5" x="86.27" y="6.22" width="33.57" height="111.18"/><path class="cls-5" d="M206.04,118.83l-24.31-.03-.26-.14L.05,19.4V4.78s24.53,.03,24.53,.03l.26,.14L206.05,104.37v14.46Zm-23.75-2.69l21.3,.02v-10.16S24,7.46,24,7.46l-21.51-.02v10.32S182.3,116.15,182.3,116.15Z"/><polygon class="cls-5" points="1.27 18.58 182.01 117.48 204.82 117.5 204.83 105.19 24.29 6.13 1.28 6.11 1.27 18.58"/><polygon class="cls-6" points="1.27 14.64 53.75 43.24 68.8 43.26 1.28 6.11 1.27 14.64"/><rect class="cls-6" x="91.7" y="-39.82" width="22.7" height="203.64" transform="translate(40.94 164.98) rotate(-89.94)"/><rect class="cls-6" x="92.66" y="6.22" width="20.79" height="112.07"/><polygon class="cls-6" points="137.08 79.99 151.93 80 204.83 109.36 204.82 117.5 137.08 79.99"/></g><polygon class="cls-5" points="150.76 141.03 159.55 137.99 155.03 146.76 162.68 152.37 153.59 153.98 154.35 164.01 147.52 157.25 140.81 164.15 141.4 154.11 132.27 152.68 139.83 146.92 135.16 138.24 144 141.1 147.3 131.7 150.76 141.03"/><polygon class="cls-5" points="244.5 158.98 248.6 157.57 246.49 161.65 250.06 164.26 245.82 165.02 246.17 169.69 242.99 166.54 239.87 169.75 240.14 165.08 235.89 164.41 239.41 161.72 237.24 157.68 241.35 159.01 242.89 154.64 244.5 158.98"/><polygon class="cls-5" points="225.37 114.55 229.46 113.14 227.36 117.22 230.92 119.83 226.69 120.59 227.04 125.26 223.86 122.11 220.74 125.32 221.01 120.64 216.76 119.98 220.28 117.3 218.1 113.25 222.22 114.59 223.76 110.21 225.37 114.55"/><polygon class="cls-5" points="248.1 66.1 252.2 64.69 250.09 68.77 253.66 71.38 249.42 72.13 249.77 76.8 246.59 73.66 243.47 76.87 243.74 72.19 239.49 71.53 243.01 68.84 240.84 64.8 244.95 66.13 246.49 61.76 248.1 66.1"/><polygon class="cls-5" points="277.04 96.58 281.13 95.17 279.03 99.25 282.59 101.86 278.36 102.61 278.71 107.29 275.53 104.14 272.41 107.35 272.68 102.67 268.43 102.01 271.95 99.32 269.77 95.28 273.89 96.61 275.43 92.24 277.04 96.58"/><polygon class="cls-5" points="266.97 127.49 262.9 126.89 261.05 122.89 259.27 126.92 255.21 127.61 258.18 130.71 257.52 135.13 261.14 133.01 264.79 135.06 264.05 130.65 266.97 127.49"/></g></g><path class="cls-2" d="M229.88,92.47c0,48.54-39.35,87.89-87.89,87.89S54.1,141.01,54.1,92.47,93.45,4.58,141.99,4.58s87.89,39.35,87.89,87.89Z"/></g></g></svg>