<?xml version="1.0" encoding="UTF-8"?><svg id="Capa_2" xmlns="http://www.w3.org/2000/svg" viewBox="0 0 184.94 184.94"><defs><style>.cls-1{fill:#fff;}.cls-2{fill:#e8485b;}.cls-3{fill:none;stroke:#77103d;stroke-miterlimit:10;stroke-width:9.17px;}</style></defs><g id="Capa_1-2"><g><path class="cls-2" d="M180.36,92.47c0,48.54-39.35,87.89-87.89,87.89S4.58,141.01,4.58,92.47,43.93,4.58,92.47,4.58s87.89,39.35,87.89,87.89Z"/><path class="cls-1" d="M68.67,7.93c-8.63,2.43-16.72,6.1-24.05,10.88v61.43H5.53c-.56,4.01-.95,8.07-.95,12.23s.36,7.95,.89,11.83H44.61v61.83c7.33,4.77,15.43,8.45,24.05,10.88V104.29h110.8c.52-3.88,.89-7.8,.89-11.83s-.39-8.22-.95-12.23H68.67V7.93Z"/><path class="cls-3" d="M180.36,92.47c0,48.54-39.35,87.89-87.89,87.89S4.58,141.01,4.58,92.47,43.93,4.58,92.47,4.58s87.89,39.35,87.89,87.89Z"/></g></g></svg>