<?xml version="1.0" encoding="UTF-8"?><svg id="Capa_2" xmlns="http://www.w3.org/2000/svg" xmlns:xlink="http://www.w3.org/1999/xlink" viewBox="0 0 214.39 184.94"><defs><style>.cls-1,.cls-2{fill:none;}.cls-3{clip-path:url(#clippath);}.cls-4{fill:#006db5;}.cls-5{fill:#fff;}.cls-6{fill:#e8485b;}.cls-2{stroke:#77103d;stroke-miterlimit:10;stroke-width:9.17px;}</style><clipPath id="clippath"><path class="cls-1" d="M194.03,92.47c0,48.54-39.35,87.89-87.89,87.89S18.25,141.01,18.25,92.47,57.6,4.58,106.14,4.58s87.89,39.35,87.89,87.89Z"/></clipPath></defs><g id="Capa_1-2"><g><g class="cls-3"><g><rect class="cls-4" x="17.81" y="-15.3" width="178.77" height="214.39" transform="translate(199.09 -15.3) rotate(90)"/><rect class="cls-4" x="77.4" y="44.29" width="59.59" height="214.39" transform="translate(258.68 44.29) rotate(90)"/><rect class="cls-6" x="77.4" y="-15.3" width="59.59" height="214.39" transform="translate(199.09 -15.3) rotate(90)"/><rect class="cls-5" x="99.15" y="-53.14" width="16.09" height="214.39" transform="translate(53.14 161.25) rotate(-90)"/><rect class="cls-5" x="99.15" y="22.37" width="16.08" height="214.39" transform="translate(-22.37 236.75) rotate(-90)"/></g></g><path class="cls-2" d="M194.03,92.47c0,48.54-39.35,87.89-87.89,87.89S18.25,141.01,18.25,92.47,57.6,4.58,106.14,4.58s87.89,39.35,87.89,87.89Z"/></g></g></svg>