<?xml version="1.0" encoding="UTF-8"?><svg id="Capa_2" xmlns="http://www.w3.org/2000/svg" xmlns:xlink="http://www.w3.org/1999/xlink" viewBox="0 0 233.81 184.94"><defs><style>.cls-1,.cls-2{fill:none;}.cls-3{clip-path:url(#clippath);}.cls-4{fill:#fff;}.cls-5{fill:#e8485b;}.cls-6{fill:#4f9b34;}.cls-2{stroke:#77103d;stroke-miterlimit:10;stroke-width:9.17px;}</style><clipPath id="clippath"><path class="cls-1" d="M202.45,92.47c0,48.54-39.35,87.89-87.89,87.89S26.68,141.01,26.68,92.47,66.03,4.58,114.57,4.58s87.89,39.35,87.89,87.89Z"/></clipPath></defs><g id="Capa_1-2"><g><g class="cls-3"><g><rect class="cls-4" y="1.41" width="233.81" height="180.73"/><rect class="cls-6" x="71.73" y="20.05" width="90.36" height="233.81" transform="translate(253.87 20.05) rotate(90)"/></g><path class="cls-5" d="M79.56,128.09c-.19,.24-.38,.14-.53,.05-.68-.44-1.13-1.05-1.18-1.88-.04-.54,.19-1.02,.64-1.31,.44-.28,.58-.65,.61-1.15-.46-.31-.97-.59-1.29-1.11-.14-.24-.58-.25-.83-.1-.24,.15-.31,.36-.2,.69,.04,.13,.1,.26,.18,.47-.36-.14-.47-.37-.56-.6-.44-1.07-.12-2.53,1.33-2.84,.14-.03,.3-.09,.4-.19,.38-.36,.81-.6,1.28-.68-.09-.45-.19-.87-.27-1.3-.07-.35-.52-.56-.84-.37-.1,.06-.19,.15-.3,.23-.25-1,.53-2.2,1.47-2.31,.18-.02,.39-.01,.55,.07,.32,.16,.66,.23,1.02,.25,.96,.07,1.56,.62,1.85,1.49,.3,.93,.91,1.64,1.61,2.27,.3,.27,.65,.52,1.01,.7,.62,.31,1.1,.17,1.54-.35,2.21-2.61,3.56-5.63,4.17-8.99,.13-.76,.22-1.52,.33-2.28,.05-.33,.03-.62-.28-.84-.15-.1-.24-.29-.37-.46-1,.19-1.66-.45-2.4-1.07-.31,.16-.65,.32-.97,.51-1.15,.67-2.32,1.31-3.64,1.63-.19,.05-.28,.16-.35,.32-.88,2.26-4.62,3.04-6.39,1.32-.3-.29-.66-.52-.92-1.01,.18,.07,.27,.08,.33,.13,.83,.65,2.26,.47,3.02-.63,.12-.17,.21-.36,.31-.54,.13-.23,.11-.44,0-.69-1.93-4.39-3.3-8.94-4.15-13.65,0-.05-.03-.1-.07-.22-.1,.12-.18,.21-.24,.31-.31,.51-.67,.95-1.28,1.12-.12,.03-.22,.13-.31,.22-.82,.82-1.97,.79-2.72-.09-.4-.47-.68-.99-.45-1.66,.04,.1,.08,.2,.12,.3,.11,.34,.26,.48,.48,.45,.25-.03,.53-.32,.55-.58,0-.11-.02-.23-.02-.34-.07-1.05,.27-1.95,1-2.71,.52-.54,.65-1.25,.82-1.94,.03-.12-.07-.28-.13-.41-.18-.35-.41-.68-.57-1.03-.27-.59-.51-1.2-.81-1.9,.03,.01-.05-.02-.14-.07-.64-.37-1.24-.39-1.94-.03-.89,.45-1.79,.39-2.54-.38-.18-.18-.4-.24-.62-.12-.2,.11-.25,.32-.21,.54,.02,.1,.03,.21,.06,.38-.14-.06-.24-.08-.3-.14-.48-.46-.66-1.04-.57-1.69,.09-.64,.5-1.03,1.09-1.26,.14-.05,.29-.08,.4-.17,.62-.49,1.31-.67,2.05-.33,.7,.33,1.4,.58,2.19,.52,.12,0,.25,.05,.42,.08,.05-.33-.1-.57-.26-.79-.3-.41-.72-.69-1.21-.77-.93-.14-1.41-.73-1.67-1.55-.09-.3-.27-.43-.55-.49-.53-.12-.75,.02-.85,.58-.01,.07-.04,.13-.09,.28-.13-.14-.26-.21-.27-.3-.07-.42-.17-.85-.14-1.27,.03-.48,.34-.85,.8-1,.46-.15,.94-.25,1.42-.28,.44-.03,.9,.05,1.35,.1,1,.13,1.73,.59,1.95,1.66,0-.24-.04-.47-.03-.71,.02-.32,.04-.64,.1-.94,.1-.5,.03-.74-.44-.95-.27-.12-.56-.17-.86-.26,.09-.31,.34-.46,.58-.59,1.11-.6,2.41-.32,3.17,.7,.19,.26,.38,.49,.69,.63,.41,.2,.58,.59,.54,1.03-.03,.37-.09,.75-.19,1.11-.14,.5-.13,.99-.02,1.5,.3,1.44,.87,2.76,1.75,3.93,.61,.81,1.03,1.67,1.21,2.68,.5,2.72,1.6,5.23,2.93,7.65,.09,.16,.21,.29,.32,.43q.31-.22,.54-.82c-.47-.28-.55-.76-.57-1.25-.04-.77,.13-1.49,.54-2.13-.62-1.47-.35-2.75,.71-3.9-.21-1.3,.29-2.44,1.47-3.33-.27-.54-.04-1.03,.23-1.51,.38-.7,.89-1.3,1.57-1.73-.04-1.02,.37-1.66,1.64-2.48-.03-.98,.76-1.4,1.37-1.99-.34-.6-.15-1.19,.14-1.74,.15-.28,.12-.52-.03-.73-.34-.45-.69-.89-1.24-1.1-.27-.1-.48-.08-.71,.13-.83,.78-1.79,1.36-2.91,1.65-.17,.05-.36,.06-.6,.1,.11-.47,.69-.54,.71-1.06-.98,.52-1.99,.73-3.18,.8,.3-.37,.53-.64,.85-1.02-1.54,.1-2.95,.1-4.35,.06,0-.04-.02-.08-.03-.12,.08-.05,.14-.12,.23-.16,.3-.14,.67-.21,.9-.41,1.07-.93,1.6-2.14,1.7-3.59-.16,0-.29-.02-.41,0-.91,.15-1.82,.29-2.75,.22-1.18-.09-2.23-.5-3.16-1.22-.1-.08-.21-.15-.36-.27-.1,.91,.16,1.73,.23,2.6-2.04-.96-4.86-7.26-4.37-9.78,.37,.42,.71,.82,1.06,1.19,.35,.37,.7,.73,1.07,1.07,.39,.36,.79,.7,1.2,1.03,.4,.32,.81,.62,1.23,.9,.44,.29,.89,.56,1.34,.82,.44,.25,.89,.47,1.4,.73-.66,.41-1.32,.55-2.04,.5,.62,.6,3.04,.91,4.24,.53,.04-1.18,.08-2.38,.56-3.52-.46-.28-.88-.56-1.32-.8-.61-.33-1.24-.45-1.87-.01-.06,.04-.13,.07-.21,.09-.03,.01-.07,0-.17-.03,.07-.11,.11-.22,.19-.3,.89-.85,1.99-1.26,3.17-1.49,2.15-.43,4.22-.06,6.26,.63,.3,.1,.59,.21,.96,.33-.06-.11-.07-.16-.1-.2-.6-.66-.24-1.32,.3-1.67,.63-.41,1.34-.57,2.07-.68,1.38-.2,2.74-.08,4.09,.18,.43,.08,.8,.07,1.23-.12,.64-.29,1.36-.4,2.04-.62,.77-.24,1.54-.49,2.29-.77,.73-.26,1.37-.69,1.97-1.27,.24,.56,.05,1.01-.11,1.45-.16,.44-.35,.86-.56,1.34,1.35-.17,2.61-.42,3.59-1.53,.05,.21,.1,.33,.1,.45,.03,1.07-.28,2.05-.85,2.93-.38,.6-.84,1.15-1.26,1.73-.16,.22-.34,.44-.54,.7,1.2,.44,2.02,1.19,2.46,2.33,.36,.93,.49,1.89,.41,2.88-.05,.01-.1,.03-.14,.05-.07-.16-.14-.32-.22-.47-.36-.72-1.09-.97-1.8-.61-.31,.16-.36,.31-.14,.57,.21,.25,.45,.45,.67,.68,.41,.41,.85,.8,1.23,1.24,1.01,1.18,1.19,2.52,.61,3.95-.16,.38-.37,.74-.57,1.1-.05,.09-.14,.15-.28,.3-.02-.24-.03-.38-.04-.52-.04-.55-.16-1.08-.5-1.53-.19-.25-.42-.44-.76-.4-.53,.07-.79,.46-.61,.97,.1,.29,.28,.58,.47,.82,.26,.34,.58,.64,.86,.97,.22,.26,.44,.52,.63,.79,.57,.85,.65,1.74,.23,2.68-.33,.74-.82,1.38-1.5,2.03-.02-.24-.02-.37-.03-.5-.04-.41,0-.84-.14-1.21-.29-.79-1.1-1.01-1.87-.57,.06,.49,.29,.91,.67,1.24,.27,.23,.55,.45,.84,.66,.91,.65,1.15,1.53,.9,2.58-.06,.23-.12,.46-.1,.73,.1-.15,.22-.29,.32-.45,.82-1.28,1.27-2.68,1.42-4.18,.15-1.5,.23-3,.34-4.49,.12-1.58,.36-3.13,.93-4.62,.88-2.32,2.42-4.08,4.53-5.37,1.81-1.11,3.8-1.79,5.86-2.27,2.85-.66,5.75-.89,8.67-1.02,1.95-.08,3.91-.16,5.85-.35,3.22-.33,6.18-1.37,8.73-3.44,.69-.55,1.4-1.07,2.12-1.59,.27-.2,.56-.37,.86-.53,.71-.4,1.44-.41,2.15,0,.28,.16,.59,.21,.89,.3,.54,.14,1.01,.49,1.55,.68,.12,.04,.21,.31,.23,.48,.07,.66-.53,1.38-1.27,1.51,.04-.21,.07-.39,.11-.6-.32-.15-.55,.09-.8,.16-.28,.08-.57,.15-.85,.25-.21,.07-.45,.12-.6,.26-.5,.45-1.03,.89-1.46,1.4-1.57,1.91-2.6,4.09-2.9,6.56-.3,2.41,.34,4.54,1.97,6.36,.1,.11,.22,.21,.33,.3,.45,.35,.52,.89,.19,1.51-.32,.6-.62,.73-1.3,.53,.06-.3,.46-.56,.16-.89-.61-.08-1.2-.19-1.8-.24-.27-.02-.56,.02-.83,.08-.55,.12-1.11,.23-1.63,.43-2.11,.8-3.02,2.58-2.95,4.65,.01,.39,.09,.78,.17,1.17,.11,.53,.35,.96,.83,1.28,.7,.47,.78,.94,.42,1.69-.15,.32-.27,.67-.48,.95-.38,.52-.76,.5-1.22-.02,.16-.11,.36-.19,.45-.34,.08-.12,.01-.32,.01-.44-1.96-1.07-3.99-1.41-6.13-.83-1.58,.42-2.93,1.24-3.73,2.28,.14-.03,.24-.04,.32-.07,.82-.31,1.66-.45,2.54-.47,3.97-.09,7.77,.68,11.42,2.21,1.09,.46,2.19,.9,3.29,1.33,1.96,.77,3.92,.6,5.82-.18,1.68-.69,2.67-1.96,2.88-3.79,.03-.22,.02-.44-.05-.68-.05,.07-.1,.13-.14,.21-.84,1.71-2.28,2.51-4.09,2.82-2.81,.47-4.99-1.66-5.6-3.99-.71-2.75,.52-5.39,3.12-6.59,1.88-.87,3.81-.94,5.75-.2,.1,.04,.21,.09,.31,.13,.1,.04,.21,.08,.38,.14,.87-.9,1.39-2.04,2.03-3.13-1.61,.67-3.24,1.06-5.04,1.11,.08-.14,.1-.23,.16-.29,1.71-1.53,3.42-3.06,5.14-4.57,2.32-2.03,4.95-3.6,7.67-5.02,.58-.3,1.18-.59,1.76-.88,.06-.03,.13-.04,.28-.07-.19,.49-.54,.77-.78,1.12-.26,.39-.55,.76-.82,1.15-.25,.37-.49,.75-.73,1.14-.24,.4-.47,.81-.69,1.22-.21,.4-.41,.8-.6,1.21-.2,.43-.38,.86-.56,1.29-.17,.42-.32,.84-.47,1.26-.15,.43-.29,.85-.41,1.29-.13,.45-.25,.91-.35,1.36-.1,.44-.19,.88-.27,1.32-.08,.46-.15,.93-.22,1.39-.06,.44-.12,.87-.18,1.34-.65-.4-.83-.71-2.14-3.48-.42,.64-.63,1.33-.81,2.04-.03,.13-.05,.26-.08,.39-.13,.54-.02,.98,.36,1.44,1.99,2.39,2.61,5.16,2,8.19-.88,4.38-3.47,7.5-7.36,9.58-.64,.34-1.33,.6-2,.9-.15,.07-.31,.13-.46,.19,.74,2.01,1.85,3.72,3.59,4.97,.93,.67,1.93,1.11,3.11,1.2,1.77,.14,3.2,2.03,2.94,3.82-.19,1.36-.91,2.45-1.86,3.4-.03,.03-.1,.04-.15,.05-.01,0-.03-.01-.11-.06,.09-.16,.2-.33,.29-.5,.26-.5,.29-1.01,.03-1.51-.28-.54-.7-.71-1.27-.49-.17,.07-.33,.17-.52,.27,.05,.74,.09,1.47,.15,2.2,.17,1.93,.33,3.86,.54,5.78,.07,.63,.23,1.26,.46,1.85,.4,1.03,1.04,1.31,2.11,1.02,.33-.09,.64-.21,.97-.29,.95-.24,2.2,.27,2.67,1.13,.12,.22,.26,.34,.45,.46,1.36,.84,1.46,1.95,.27,3.02-.32,.29-.45,.35-.83,.43,.04-.24,.11-.47,.12-.71,.01-.25-.03-.5-.29-.62-.26-.13-.47-.03-.66,.16-.5,.52-1.09,.53-1.71,.26-.28-.12-.55-.25-.82-.38-.68-.33-1.37-.36-2.07-.07-.45,.18-.9,.38-1.35,.57-1.12,.49-2.27,.78-3.5,.72-.71-.03-1.37-.19-1.96-.6-.14-.1-.34-.16-.52-.15-.49,.01-.97,.07-1.46,.12-.53,.06-1.01,.27-1.47,.54-.4,.24-.81,.48-1.24,.65-.88,.36-1.73,.09-2.28-.67-.64,.05-.74,.3-.5,1.29-.54,0-1.37-.73-1.58-1.45-.34-1.19,.54-1.67,1.31-2.15-.34-.28-.69-.56-1.03-.85-.27-.23-.56-.25-.79,.02-.15,.18-.25,.41-.34,.63-.06,.13-.07,.28-.12,.5-.13-.14-.23-.22-.29-.32-.27-.46-.42-.96-.45-1.49-.05-.8,.37-1.41,1.14-1.6,.45-.11,.81-.3,1.17-.59,.28-.23,.67-.32,1.02-.48,.1-.48-.07-.73-.56-.74-.33,0-.62,.12-.86,.36-.09,.09-.17,.19-.27,.31-.23-.15-.21-.36-.18-.56,.19-1.17,1.23-2.43,2.82-2.11,.14,.03,.3,.03,.43,0,.79-.2,1.45,.05,1.97,.64,.22,.25,.38,.56,.55,.85,.57,.97,1.37,1.68,2.39,2.15,.07,.03,.14,.06,.21,.08,.43,.14,.56,.08,.72-.35,.37-1.02,.55-2.07,.51-3.15-.08-2.11-.63-4.11-1.46-6.04-.2-.46-.51-.87-.77-1.3-1.22,.5-2.29,.34-3.31-.4-1.13,.21-2.23,.21-3.09-.8-1.22,.26-2.42,.37-3.21-.85-1.43-.01-2.45-.73-3.38-1.75-.49,.12-.92-.15-1.35-.42-.52-.33-.84-.2-.9,.42-.03,.29,.02,.61,.13,.87,.25,.59,.61,1.1,1.27,1.36,.65,.25,1.22,.66,1.73,1.14,1.19,1.1,1.52,3.67-.48,4.78-.63,.35-1.33,.59-2,.88-.07,.03-.16,.06-.22,.03-.09-.03-.2-.1-.24-.18-.02-.04,.05-.17,.12-.22,.08-.07,.21-.09,.3-.16,.18-.13,.36-.27,.52-.43,.21-.24,.28-.54,.16-.84-.13-.31-.41-.42-.72-.45-.65-.05-1.2,.22-1.65,.61-2.03,1.74-3.96,3.58-5.6,5.71-.34,.44-.62,.94-.89,1.43-.09,.18-.16,.48-.07,.62,.14,.24,.41,.05,.61-.02,.34-.11,.66-.28,1-.37,.85-.21,1.68-.21,2.4,.39,.11,.09,.27,.13,.4,.19,.22,.1,.45,.19,.66,.32,.63,.41,.8,1.02,.51,1.72-.21,.5-.55,.89-1.01,1.18-.25,.16-.3,.16-.71,.14,.08-.17,.18-.33,.23-.5,.02-.09-.01-.25-.08-.3-.07-.05-.21-.03-.31,0-.06,.02-.11,.09-.17,.14-.27,.26-.6,.41-.97,.38-.6-.03-1.2-.1-1.79-.19-.42-.07-.84-.19-1.26-.31-1.15-.34-2.27-.21-3.37,.2-.46,.17-.9,.38-1.34,.58-.73,.32-1.49,.52-2.29,.53-.38,0-.73-.07-1.1-.16-.81-.21-1.64-.2-2.4,.23-.54,.31-1.06,.64-1.6,.95-.26,.15-.53,.28-.82,.38-.49,.16-.96,.14-1.38-.2-.3-.24-.61-.27-.92-.09-.29,.17-.35,.42-.3,.73,.02,.09,.04,.17,.08,.34-.18-.07-.31-.08-.4-.15-.56-.43-.91-1-.96-1.72-.05-.85,.45-1.36,1.16-1.69,.29-.14,.52-.29,.64-.63-.1-.08-.21-.16-.32-.25-.32-.25-.57-.53-.61-.97-.04-.37-.22-.53-.47-.53-.27,0-.54,.26-.58,.59-.02,.16,0,.33,0,.52-.3-.05-.44-.26-.55-.5-.56-1.23,.2-2.51,1.55-2.5,.55,0,.93-.38,1.44-.44,.06,0,.14-.18,.14-.27,0-.16-.03-.36-.12-.48-.11-.15-.29-.32-.47-.35-.23-.04-.36,.16-.42,.38-.05,.18-.09,.36-.15,.62-.09-.13-.19-.2-.2-.28-.04-.41-.11-.82-.06-1.22,.06-.51,.39-.87,.89-.99,.41-.1,.85-.1,1.28-.1,.25,0,.48,.03,.7-.11,.28-.18,.57-.14,.86-.02,.52,.21,.94,.55,1.24,1.02,.86,1.37,2.2,1.99,3.69,2.37,.18,.04,.43,0,.58-.1,.67-.48,1.37-.93,1.97-1.49,1.58-1.5,2.66-3.35,3.56-5.3,.25-.54,.47-1.1,.72-1.7-.85-.25-1.67-.47-2.21-1.18-1.57-.08-2.5-.78-2.98-2.26-1.01-.26-1.62-.79-2.09-1.84-.22-.02-.45-.04-.68-.05-.63,1.48-1.94,1.71-3.31,1.88-.36,.96-1.21,1.19-2.11,1.31-.41,.05-.83,0-1.22,0-.37,.4-.73,.78-1.12,1.2,.02,.06,.05,.16,.09,.26,.64,1.34,.34,2.58-.49,3.7-.69,.91-1.68,1.43-2.77,1.74-.05,.01-.11,.01-.16,.01-.01,0-.03-.02-.09-.06,.07-.1,.15-.19,.21-.29,.21-.35,.47-.68,.62-1.05,.17-.42,0-.78-.37-1.01-.63-.38-1.33-.36-2.03-.32-.09,0-.2,.11-.27,.18-2.03,2.19-4.09,4.36-5.56,7-.27,.49-.5,1.01-.74,1.52-.19,.41-.18,.84-.08,1.27,.09,.4,.26,.56,.67,.52,.48-.05,.96-.16,1.44-.25,.17-.03,.33-.08,.49-.13,.72-.23,1.37-.09,1.97,.34,.3,.21,.63,.39,.95,.59,.1,.06,.2,.11,.29,.18,.93,.63,1.1,1.49,.46,2.42-.33,.48-.74,.88-1.29,1.13-.2-.2,0-.34,.03-.48,.05-.24,.16-.48-.06-.68-.17-.15-.5-.11-.76,.11-.35,.3-.74,.35-1.16,.2-.23-.08-.46-.17-.68-.26-1.43-.62-2.88-.63-4.35-.16-.86,.27-1.71,.57-2.59,.77-.97,.22-1.96,.35-2.96,.19-.33-.05-.6-.12-.78-.45-.19-.34-.68-.44-1.05-.26-.16,.08-.32,.2-.45,.33-.28,.25-.55,.51-.81,.78-.69,.71-1.51,.76-2.4,.47-.22-.08-.47-.28-.67-.05-.19,.22-.08,.5,.02,.75,.04,.09,.07,.17,.11,.28Zm68.9-47.13c-.4-.15-.76-.3-1.12-.42-.41-.13-.82-.11-1.21,.05-.56,.23-.85,.82-.76,1.54,.06,.5,.46,.91,1,.99,.5,.08,.92-.12,1.27-.47,.43-.44,.65-.99,.83-1.7Zm-65.87-12.42c1.12,.78,2.98,.95,3.71,.35-1.18-.52-2.4-.54-3.71-.35Zm19.33,17.54c.17-.19,.32-.35,.46-.53,.16-.21,.12-.56-.08-.81-.17-.22-.4-.27-.65-.17-.32,.13-.57,.34-.74,.67,.22,.39,.54,.65,1.01,.84Z"/></g><path class="cls-2" d="M202.45,92.47c0,48.54-39.35,87.89-87.89,87.89S26.68,141.01,26.68,92.47,66.03,4.58,114.57,4.58s87.89,39.35,87.89,87.89Z"/></g></g></svg>