<?xml version="1.0" encoding="UTF-8"?><svg id="Capa_2" xmlns="http://www.w3.org/2000/svg" xmlns:xlink="http://www.w3.org/1999/xlink" viewBox="0 0 184.96 233.84"><defs><style>.cls-1,.cls-2{fill:none;}.cls-3{clip-path:url(#clippath);}.cls-4{fill:#fff;}.cls-5{fill:#77103d;}.cls-2{stroke:#77103d;stroke-miterlimit:10;stroke-width:9.17px;}</style><clipPath id="clippath"><path class="cls-1" d="M92.48,31.36c48.54,0,87.89,39.35,87.89,87.89s-39.35,87.9-87.89,87.9S4.58,167.8,4.58,119.26,43.93,31.36,92.48,31.36Z"/></clipPath></defs><g id="Capa_1-2"><g><g class="cls-3"><g><rect class="cls-4" x="1.41" y="0" width="180.75" height="233.84"/><polygon class="cls-5" points="91.84 34.01 59.77 47.36 91.84 60.71 59.77 74.07 91.84 87.4 59.77 100.72 91.84 114.09 59.77 127.43 91.84 140.8 59.77 154.17 91.84 167.53 59.77 180.92 91.84 194.34 59.77 207.75 118.27 207.75 98.97 37.57 91.84 34.01"/><rect class="cls-5" x="91.78" y="0" width="90.37" height="233.84"/></g></g><path class="cls-2" d="M92.48,31.36c48.54,0,87.89,39.35,87.89,87.89s-39.35,87.9-87.89,87.9S4.58,167.8,4.58,119.26,43.93,31.36,92.48,31.36Z"/></g></g></svg>