<?xml version="1.0" encoding="UTF-8"?><svg id="Capa_2" xmlns="http://www.w3.org/2000/svg" xmlns:xlink="http://www.w3.org/1999/xlink" viewBox="0 0 184.94 214.39"><defs><style>.cls-1,.cls-2{fill:none;}.cls-3{clip-path:url(#clippath);}.cls-4{fill:#fbbc00;}.cls-5{fill:#e8485b;}.cls-6{fill:#4f9b34;}.cls-2{stroke:#77103d;stroke-miterlimit:10;stroke-width:9.17px;}</style><clipPath id="clippath"><path class="cls-1" d="M92.47,194.03c-48.54,0-87.89-39.35-87.89-87.89S43.93,18.25,92.47,18.25s87.89,39.35,87.89,87.89-39.35,87.89-87.89,87.89Z"/></clipPath></defs><g id="Capa_1-2"><g><g class="cls-3"><g><rect class="cls-4" x="3.66" y="0" width="178.77" height="214.39" transform="translate(186.09 214.39) rotate(180)"/><rect class="cls-6" x="3.66" y="0" width="59.59" height="214.39" transform="translate(66.91 214.39) rotate(180)"/><rect class="cls-5" x="63.25" y="0" width="59.59" height="214.39" transform="translate(186.09 214.39) rotate(180)"/><polygon class="cls-4" points="98.34 99.63 92.98 84.33 87.7 99.65 71.49 100.03 84.43 109.79 79.78 125.32 93.06 116.02 106.39 125.25 101.66 109.74 114.55 99.92 98.34 99.63"/></g></g><path class="cls-2" d="M92.47,194.03c-48.54,0-87.89-39.35-87.89-87.89S43.93,18.25,92.47,18.25s87.89,39.35,87.89,87.89-39.35,87.89-87.89,87.89Z"/></g></g></svg>