<?xml version="1.0" encoding="UTF-8"?><svg id="Capa_2" xmlns="http://www.w3.org/2000/svg" viewBox="0 0 29.56 29.56"><defs><style>.cls-1{fill:#fbbc04;}.cls-2{fill:#e8495b;}.cls-3{fill:#4f9b34;}.cls-4{fill:none;stroke:#77113e;stroke-miterlimit:10;stroke-width:1.47px;}</style></defs><g id="Capa_1-2"><g><g><path class="cls-2" d="M19.64,1.61V27.95c5.36-1.98,9.19-7.12,9.19-13.17S25,3.59,19.64,1.61Z"/><path class="cls-3" d="M.73,14.78c0,6.12,3.92,11.31,9.38,13.24V1.54C4.65,3.47,.73,8.66,.73,14.78Z"/><path class="cls-1" d="M14.78,.73c-1.64,0-3.21,.3-4.67,.81V28.02c1.46,.52,3.03,.81,4.67,.81s3.34-.32,4.86-.88V1.61c-1.52-.56-3.15-.88-4.86-.88Zm.09,15.63l-2.12,1.49,.74-2.48-2.07-1.56,2.59-.06,.84-2.45,.86,2.45,2.59,.05-2.06,1.57,.76,2.48-2.13-1.48Z"/><polygon class="cls-3" points="18.31 13.79 15.72 13.74 14.86 11.3 14.02 13.75 11.43 13.8 13.5 15.37 12.75 17.85 14.88 16.36 17.01 17.84 16.25 15.36 18.31 13.79"/></g><path class="cls-4" d="M14.78,28.83C7.02,28.83,.73,22.54,.73,14.78S7.02,.73,14.78,.73s14.05,6.29,14.05,14.05-6.29,14.05-14.05,14.05Z"/></g></g></svg>