<?xml version="1.0" encoding="UTF-8"?><svg id="Capa_2" xmlns="http://www.w3.org/2000/svg" xmlns:xlink="http://www.w3.org/1999/xlink" viewBox="0 0 184.96 214.4"><defs><style>.cls-1,.cls-2{fill:none;}.cls-3{clip-path:url(#clippath);}.cls-4{fill:#fbbc00;}.cls-5{fill:#e8485b;}.cls-6{fill:#4f9b34;}.cls-2{stroke:#77103d;stroke-miterlimit:10;stroke-width:9.17px;}</style><clipPath id="clippath"><path class="cls-1" d="M92.48,194.04c-48.54,0-87.9-39.35-87.9-87.9S43.93,18.25,92.48,18.25s87.89,39.35,87.89,87.9-39.35,87.9-87.89,87.9Z"/></clipPath></defs><g id="Capa_1-2"><g><g class="cls-3"><g><rect class="cls-5" x="3.66" y="0" width="178.79" height="214.4" transform="translate(186.11 214.4) rotate(180)"/><rect class="cls-6" x="3.66" y="0" width="59.6" height="214.4" transform="translate(66.92 214.4) rotate(180)"/><rect class="cls-4" x="63.26" y="0" width="59.6" height="214.4" transform="translate(186.11 214.4) rotate(180)"/><polygon class="cls-6" points="98.35 99.64 92.99 84.34 87.7 99.66 71.5 100.03 84.44 109.8 79.78 125.33 93.07 116.03 106.4 125.26 101.66 109.75 114.56 99.93 98.35 99.64"/></g></g><path class="cls-2" d="M92.48,194.04c-48.54,0-87.9-39.35-87.9-87.9S43.93,18.25,92.48,18.25s87.89,39.35,87.89,87.9-39.35,87.9-87.89,87.9Z"/></g></g></svg>