<?xml version="1.0" encoding="UTF-8"?><svg id="Capa_2" xmlns="http://www.w3.org/2000/svg" xmlns:xlink="http://www.w3.org/1999/xlink" viewBox="0 0 214.39 184.94"><defs><style>.cls-1,.cls-2{fill:none;}.cls-3{clip-path:url(#clippath);}.cls-4{fill:#006db5;}.cls-5{fill:#fff;}.cls-6{fill:#e8485b;}.cls-7{fill:#201f35;}.cls-2{stroke:#77103d;stroke-miterlimit:10;stroke-width:9.17px;}</style><clipPath id="clippath"><path class="cls-1" d="M194.03,92.47c0,48.54-39.35,87.89-87.89,87.89S18.25,141.01,18.25,92.47,57.6,4.58,106.14,4.58s87.89,39.35,87.89,87.89Z"/></clipPath></defs><g id="Capa_1-2"><g><g><g class="cls-3"><g><rect class="cls-6" x="17.81" y="-15.3" width="178.77" height="214.39" transform="translate(199.09 -15.3) rotate(90)"/><rect class="cls-5" x="77.4" y="44.29" width="59.59" height="214.39" transform="translate(258.68 44.29) rotate(90)"/><rect class="cls-4" x="77.4" y="-15.3" width="59.59" height="214.39" transform="translate(199.09 -15.3) rotate(90)"/></g></g><path class="cls-2" d="M194.03,92.47c0,48.54-39.35,87.89-87.89,87.89S18.25,141.01,18.25,92.47,57.6,4.58,106.14,4.58s87.89,39.35,87.89,87.89Z"/></g><g><g><path class="cls-7" d="M49.64,69.22v44.28c0,10.78,8.74,19.52,19.52,19.52s19.52-8.74,19.52-19.52v-44.28H49.64Z"/><path class="cls-5" d="M69.16,126.42c-7.13,0-12.92-5.79-12.92-12.92v-37.67h25.84v37.67c0,7.13-5.79,12.92-12.92,12.92Z"/><rect class="cls-7" x="65.25" y="72.76" width="7.28" height="55.98"/><rect class="cls-7" x="52.88" y="96.14" width="32.39" height="7.27"/></g><rect class="cls-7" x="54.46" y="61.52" width="28.36" height="5.62"/><path class="cls-7" d="M82.82,59.32h-28.36l-2.64-4.05c-4.55-6.99,.47-16.23,8.81-16.23h16.02c8.34,0,13.35,9.25,8.8,16.23l-2.64,4.05Z"/></g></g></g></svg>