<?xml version="1.0" encoding="UTF-8"?><svg id="Capa_2" xmlns="http://www.w3.org/2000/svg" viewBox="0 0 184.94 184.94"><defs><style>.cls-1{fill:#fff;}.cls-2{fill:#e8485b;}.cls-3{fill:none;stroke:#77103d;stroke-miterlimit:10;stroke-width:9.17px;}</style></defs><g id="Capa_1-2"><g><path class="cls-2" d="M180.36,92.47c0,48.54-39.35,87.89-87.89,87.89S4.58,141.01,4.58,92.47,43.93,4.58,92.47,4.58s87.89,39.35,87.89,87.89Z"/><path class="cls-3" d="M180.36,92.47c0,48.54-39.35,87.89-87.89,87.89S4.58,141.01,4.58,92.47,43.93,4.58,92.47,4.58s87.89,39.35,87.89,87.89Z"/><g><path class="cls-1" d="M142.02,92.46c0,27.23-22.07,49.29-49.29,49.29s-49.3-22.07-49.3-49.29,22.07-49.3,49.3-49.3,49.29,22.07,49.29,49.3Z"/><g><path class="cls-2" d="M82.61,107.44c-7.31-9.03-6.81-22.07,1.26-30.28,4.19-4.25,9.28-6.61,15.24-6.85,7.44-.31,13.6,2.52,18.57,8.04-5.36-9.96-17.78-16.73-31.08-13.62-13.71,3.2-22.99,15.85-21.91,29.89,1.06,13.8,11.72,24.54,25.04,26.12,4.89,.58,9.64-.05,14.2-1.95,4.38-1.82,10.76-6.72,11.27-8.64-10.31,9.02-25.18,6.44-32.59-2.7Z"/><path class="cls-2" d="M118.91,88.58c.16-.19,.31-.38,.61-.75-.46,.09-.71,.13-.96,.19-2.8,.68-5.61,1.34-8.41,2.05-.5,.13-.76,.02-1.02-.42-1.51-2.49-3.04-4.97-4.57-7.45-.13-.21-.26-.41-.4-.61-.05,.02-.11,.04-.16,.06-.02,.25-.04,.5-.06,.75-.22,2.86-.45,5.72-.65,8.58-.04,.55-.17,.85-.78,.94-.74,.11-1.47,.34-2.21,.52-2.29,.56-4.58,1.11-6.87,1.67,0,.05,0,.11,0,.16,.21,.09,.42,.19,.63,.28,2.64,1.09,5.28,2.21,7.94,3.26,.62,.24,.73,.54,.68,1.15-.25,2.86-.45,5.72-.67,8.58-.02,.24-.02,.47-.03,.9,.3-.34,.46-.51,.61-.68,1.89-2.22,3.79-4.43,5.66-6.66,.33-.4,.6-.46,1.08-.26,2.33,.99,4.68,1.94,7.02,2.9,.56,.23,1.12,.45,1.68,.68-.02-.34-.14-.56-.27-.77-1.53-2.48-3.04-4.97-4.59-7.44-.24-.39-.22-.63,.08-.98,1.9-2.21,3.79-4.43,5.67-6.65Z"/></g></g></g></g></svg>