<?xml version="1.0" encoding="UTF-8"?><svg id="Capa_2" xmlns="http://www.w3.org/2000/svg" xmlns:xlink="http://www.w3.org/1999/xlink" viewBox="0 0 200.82 184.94"><defs><style>.cls-1,.cls-2{fill:none;}.cls-3{clip-path:url(#clippath);}.cls-4{fill:#006db5;}.cls-5{fill:#fff;}.cls-6{fill:#ffd713;}.cls-2{stroke:#77103d;stroke-miterlimit:10;stroke-width:9.17px;}</style><clipPath id="clippath"><path class="cls-1" d="M180.36,92.47c0,48.54-39.35,87.89-87.89,87.89S4.58,141.01,4.58,92.47,43.93,4.58,92.47,4.58s87.89,39.35,87.89,87.89Z"/></clipPath></defs><g id="Capa_1-2"><g><g class="cls-3"><g><rect class="cls-5" x="2.49" y="7.53" width="198.33" height="170.08"/><rect class="cls-4" x="2.49" y="139.82" width="198.33" height="18.88" transform="translate(203.3 298.52) rotate(180)"/><rect class="cls-4" x="2.49" y="102.02" width="198.33" height="18.88" transform="translate(203.3 222.93) rotate(180)"/><rect class="cls-4" x="89.7" y="64.22" width="111.12" height="18.88" transform="translate(290.52 147.33) rotate(180)"/><rect class="cls-4" x="89.7" y="26.42" width="111.12" height="18.89" transform="translate(290.52 71.74) rotate(180)"/><polygon class="cls-6" points="61.65 60.78 77.14 57.91 61.69 54.86 74.9 46.28 59.45 49.37 68.38 36.39 55.28 45.16 58.56 29.74 49.82 42.86 46.95 27.37 43.9 42.82 35.32 29.61 38.41 45.06 25.43 36.13 34.2 49.22 18.78 45.95 31.9 54.68 16.4 57.56 31.86 60.61 18.65 69.19 34.1 66.1 25.17 79.08 38.26 70.31 34.98 85.72 43.72 72.61 46.59 88.1 49.65 72.64 58.23 85.86 55.14 70.41 68.12 79.34 59.35 66.25 74.76 69.52 61.65 60.78"/></g></g><path class="cls-2" d="M180.36,92.47c0,48.54-39.35,87.89-87.89,87.89S4.58,141.01,4.58,92.47,43.93,4.58,92.47,4.58s87.89,39.35,87.89,87.89Z"/></g></g></svg>